<?xml version="1.0" encoding="UTF-8" standalone="no"?>
<!-- Created with Inkscape (http://www.inkscape.org/) -->

<svg
   xmlns:dc="http://purl.org/dc/elements/1.1/"
   xmlns:cc="http://creativecommons.org/ns#"
   xmlns:rdf="http://www.w3.org/1999/02/22-rdf-syntax-ns#"
   xmlns:svg="http://www.w3.org/2000/svg"
   xmlns="http://www.w3.org/2000/svg"
   xmlns:sodipodi="http://sodipodi.sourceforge.net/DTD/sodipodi-0.dtd"
   xmlns:inkscape="http://www.inkscape.org/namespaces/inkscape"
   width="24"
   height="24"
   id="svg3760"
   version="1.1"
   inkscape:version="0.92.3 (2405546, 2018-03-11)"
   sodipodi:docname="lc_dbtableedit-http.svg">
  <defs
     id="defs3762" />
  <sodipodi:namedview
     id="base"
     pagecolor="#ffffff"
     bordercolor="#666666"
     borderopacity="1.0"
     inkscape:pageopacity="0.0"
     inkscape:pageshadow="2"
     inkscape:zoom="34.574202"
     inkscape:cx="7.9493744"
     inkscape:cy="12.091115"
     inkscape:document-units="px"
     inkscape:current-layer="layer1"
     showgrid="true"
     fit-margin-top="0"
     fit-margin-left="0"
     fit-margin-right="0"
     fit-margin-bottom="0"
     inkscape:window-width="1920"
     inkscape:window-height="1015"
     inkscape:window-x="0"
     inkscape:window-y="0"
     inkscape:window-maximized="1"
     inkscape:showpageshadow="false"
     showguides="true">
    <sodipodi:guide
       position="1,23"
       orientation="22,0"
       id="guide4116"
       inkscape:locked="false" />
    <sodipodi:guide
       position="1,1"
       orientation="0,22"
       id="guide4118"
       inkscape:locked="false" />
    <sodipodi:guide
       position="23,1"
       orientation="-22,0"
       id="guide4120"
       inkscape:locked="false" />
    <sodipodi:guide
       position="23,23"
       orientation="0,-22"
       id="guide4122"
       inkscape:locked="false" />
    <sodipodi:guide
       position="3,21"
       orientation="18,0"
       id="guide4124"
       inkscape:locked="false" />
    <sodipodi:guide
       position="21,3"
       orientation="-18,0"
       id="guide4128"
       inkscape:locked="false" />
    <sodipodi:guide
       position="21,21"
       orientation="0,-18"
       id="guide4130"
       inkscape:locked="false" />
    <sodipodi:guide
       position="4,20"
       orientation="16,0"
       id="guide4132"
       inkscape:locked="false" />
    <sodipodi:guide
       position="4,4"
       orientation="0,16"
       id="guide4134"
       inkscape:locked="false" />
    <sodipodi:guide
       position="20,4"
       orientation="-16,0"
       id="guide4136"
       inkscape:locked="false" />
    <sodipodi:guide
       position="20,20"
       orientation="0,-16"
       id="guide4138"
       inkscape:locked="false" />
    <inkscape:grid
       type="xygrid"
       id="grid4140"
       originx="0.99999582"
       originy="1.0000027"
       spacingx="1"
       spacingy="1" />
  </sodipodi:namedview>
  <metadata
     id="metadata3765">
    <rdf:RDF>
      <cc:Work
         rdf:about="">
        <dc:format>image/svg+xml</dc:format>
        <dc:type
           rdf:resource="http://purl.org/dc/dcmitype/StillImage" />
        <dc:title></dc:title>
      </cc:Work>
    </rdf:RDF>
  </metadata>
  <g
     inkscape:label="Capa 1"
     inkscape:groupmode="layer"
     id="layer1"
     transform="translate(-552.72253,-582.11926)">
    <path
       style="opacity:1;fill:#4d4d4d;fill-opacity:1;stroke:none"
       d="M 4 4 L 4 5 L 4 20 L 5 20 L 9 20 L 9 19 L 5 19 L 5 17 L 8 17 L 9 17 L 10 17 L 14 17 L 15 17 L 19 17 L 20 17 L 20 5 L 20 4 L 4 4 z M 5 5 L 9 5 L 9 6 L 9 7 L 8 7 L 5 7 L 5 5 z M 10 5 L 14 5 L 14 6 L 14 7 L 10 7 L 10 6 L 10 5 z M 15 5 L 19 5 L 19 7 L 16 7 L 15 7 L 15 6 L 15 5 z M 5 8 L 8 8 L 9 8 L 9 10 L 5 10 L 5 8 z M 10 8 L 14 8 L 14 10 L 10 10 L 10 8 z M 15 8 L 19 8 L 19 10 L 15 10 L 15 8 z M 5 11 L 9 11 L 9 13 L 5 13 L 5 11 z M 10 11 L 14 11 L 14 13 L 10 13 L 10 11 z M 15 11 L 19 11 L 19 13 L 15 13 L 15 11 z M 5 14 L 9 14 L 9 16 L 8 16 L 5 16 L 5 14 z M 10 14 L 14 14 L 14 16 L 10 16 L 10 14 z M 15 14 L 19 14 L 19 16 L 15 16 L 15 14 z "
       transform="translate(552.72253,582.11926)"
       id="rect4108-9" />
    <rect
       rx="3.5"
       style="opacity:1;fill:#d5dddc;fill-opacity:1;stroke:none;stroke-opacity:1"
       id="rect4172"
       width="7"
       height="7"
       x="564.72253"
       y="595.11926"
       ry="3.5" />
    <path
       id="path3011"
       d="m 568.30025,595.13996 c -0.14048,0 -0.27656,0.011 -0.41307,0.028 -0.13388,0.016 -0.27039,0.038 -0.39898,0.068 -0.0414,0.01 -0.0815,0.029 -0.12375,0.041 -0.037,0.01 -0.0735,0.017 -0.11009,0.028 -0.0462,0.014 -0.0942,0.026 -0.13784,0.041 -0.0471,0.017 -0.0911,0.036 -0.13784,0.055 -0.0907,0.036 -0.17482,0.08 -0.26158,0.1237 -0.0313,0.016 -0.0656,0.024 -0.0964,0.042 -0.10128,0.053 -0.1942,0.1157 -0.28888,0.1787 -0.0361,0.024 -0.0749,0.043 -0.1101,0.068 -0.0145,0.01 -0.0269,0.016 -0.0414,0.027 -0.0414,0.032 -0.0841,0.063 -0.12374,0.096 -0.0471,0.039 -0.0925,0.082 -0.13784,0.1238 -0.0141,0.013 -0.0273,0.028 -0.0414,0.041 -0.005,0.01 -0.009,0.01 -0.0136,0.013 -0.007,0.01 -0.007,0.021 -0.0137,0.028 -0.0925,0.09 -0.19332,0.1757 -0.27523,0.2751 -0.002,0.01 0.002,0.011 0,0.013 -0.0797,0.097 -0.15105,0.1973 -0.22019,0.3029 -0.009,0.014 -0.0185,0.027 -0.0277,0.041 -0.007,0.01 -0.0207,0.017 -0.0277,0.028 -0.0264,0.043 -0.0445,0.092 -0.0687,0.1378 -0.008,0.014 -0.0198,0.027 -0.0277,0.041 -0.033,0.065 -0.0661,0.1276 -0.0964,0.1928 -0.002,0.01 0.002,0.01 0,0.013 -0.0515,0.1113 -0.0978,0.2262 -0.13784,0.3438 -0.008,0.023 -0.0198,0.046 -0.0277,0.068 -10e-4,0.01 10e-4,0.01 0,0.013 -0.009,0.028 -0.0194,0.055 -0.0277,0.083 -0.0322,0.1131 -0.0617,0.2262 -0.0828,0.3437 -0.015,0.084 -0.0326,0.1748 -0.0414,0.2615 -0.0119,0.1167 -0.0136,0.2386 -0.0136,0.3579 0,0.1778 0.0159,0.3521 0.0414,0.523 0.003,0.018 -0.003,0.037 0,0.055 0.0194,0.1172 0.052,0.2312 0.0828,0.3439 0.0114,0.042 0.0282,0.082 0.0414,0.1237 0.0176,0.057 0.0348,0.1096 0.0551,0.1651 0.0339,0.094 0.0687,0.1857 0.11009,0.275 0.022,0.047 0.0449,0.093 0.0687,0.1378 0.0669,0.1286 0.13871,0.2531 0.22018,0.3716 0.007,0.01 0.0203,0.017 0.0277,0.028 0.0872,0.1237 0.1735,0.2464 0.27523,0.3579 0.0176,0.02 0.037,0.035 0.055,0.055 0.0176,0.019 0.037,0.037 0.055,0.055 0.0942,0.094 0.19861,0.1783 0.30298,0.2615 0.13475,0.1074 0.27699,0.202 0.42672,0.2888 0.005,0.01 0.008,0.01 0.0136,0.013 0.0233,0.013 0.0454,0.028 0.0687,0.042 0.13916,0.068 0.30474,0.143 0.41307,0.1927 0.0485,0.019 0.10173,0.025 0.15149,0.041 0.0234,0.01 0.0454,0.021 0.0687,0.028 0.0599,0.018 0.11802,0.039 0.17879,0.055 0.0185,0.01 0.0366,0.01 0.0551,0.013 0.12859,0.031 0.26511,0.053 0.39898,0.068 0.13608,0.016 0.27215,0.027 0.41307,0.027 0.14973,0 0.2955,-0.01 0.44038,-0.027 0.16074,-0.021 0.29989,-0.054 0.44037,-0.082 0.74776,-0.1919 1.39247,-0.626 1.85794,-1.2107 0.0123,-0.016 0.0295,-0.025 0.0414,-0.041 0.004,-0.01 0.01,-0.01 0.0136,-0.013 0.006,-0.01 0.008,-0.02 0.0137,-0.027 0.27436,-0.3632 0.47429,-0.7841 0.59187,-1.2383 0.0247,-0.096 0.052,-0.1902 0.0687,-0.2888 0.002,-0.013 -0.002,-0.028 0,-0.041 0.003,-0.018 0.011,-0.035 0.0136,-0.055 0.003,-0.019 0.0114,-0.035 0.0137,-0.055 h -0.0137 c 0.0194,-0.1448 0.0414,-0.2901 0.0414,-0.4402 0,-0.243 -0.022,-0.486 -0.0687,-0.7153 -0.004,-0.019 -0.01,-0.036 -0.0137,-0.055 -0.0203,-0.092 -0.0546,-0.1862 -0.0828,-0.2751 -10e-4,-0.01 0.001,-0.01 0,-0.013 -0.005,-0.017 -0.008,-0.024 -0.0137,-0.041 -0.0172,-0.052 -0.0357,-0.1136 -0.0551,-0.1652 -0.005,-0.014 -0.008,-0.028 -0.0136,-0.041 -0.0189,-0.048 -0.0476,-0.091 -0.0687,-0.1379 -9e-4,0 8.9e-4,-0.011 0,-0.013 -0.011,-0.024 -0.0299,-0.046 -0.0414,-0.068 -0.0431,-0.09 -0.0872,-0.176 -0.13784,-0.2614 -0.0255,-0.043 -0.0414,-0.095 -0.0687,-0.1378 -0.0106,-0.016 -0.0304,-0.025 -0.0414,-0.041 -0.0295,-0.043 -0.0647,-0.081 -0.0964,-0.1238 -0.0352,-0.044 -0.0616,-0.095 -0.0964,-0.1377 -0.002,-0.01 0.002,-0.011 0,-0.013 -0.0757,-0.092 -0.16294,-0.1774 -0.24793,-0.2614 -0.041,-0.04 -0.081,-0.085 -0.12375,-0.1238 -0.0123,-0.011 -0.0286,-0.016 -0.0414,-0.027 -0.092,-0.08 -0.18936,-0.1496 -0.28888,-0.2199 -0.0242,-0.017 -0.0445,-0.039 -0.0687,-0.055 -0.0308,-0.021 -0.0652,-0.036 -0.0964,-0.055 -0.0594,-0.037 -0.11714,-0.077 -0.17879,-0.11 -0.0542,-0.03 -0.10922,-0.056 -0.16514,-0.083 -0.0942,-0.045 -0.19025,-0.087 -0.28889,-0.1238 -0.11714,-0.043 -0.23516,-0.079 -0.35802,-0.11 -0.1079,-0.027 -0.21887,-0.052 -0.33028,-0.068 -0.17483,-0.027 -0.35451,-0.041 -0.53682,-0.041 m 0,0.4403 c 0.13167,0 0.25762,0.012 0.38533,0.028 0.0793,0.01 0.15633,0.025 0.23384,0.041 0.004,0 0.009,0 0.0136,0 0.0731,0.016 0.14884,0.036 0.22018,0.055 0.0423,0.012 0.0824,0.027 0.12375,0.041 0.0757,0.025 0.14708,0.052 0.22018,0.082 0.0854,0.035 0.16691,0.067 0.24794,0.11 -0.0137,0.01 -0.0277,0.01 -0.0414,0.013 -0.0207,0.01 -0.0498,0.043 -0.0551,0.055 -0.009,0.021 0.002,0.051 0,0.082 0.0167,0.01 0.0264,0.039 0.0551,0.055 0.011,0.01 0.0181,-0.01 0.0277,0 0.0167,0.01 0.0308,0.038 0.0277,0.055 -0.005,0.024 -0.0388,0.01 -0.0551,0.027 0.003,0.035 -0.0189,0.047 -0.0277,0.068 0.005,0.014 0.0251,0.01 0.0277,0.028 -0.003,0.019 -0.0348,0.022 -0.0277,0.041 0.0317,0.024 0.0665,-0.01 0.0964,-0.013 0.0656,-0.01 0.12462,0.018 0.16513,-0.013 -0.005,-0.032 0.0445,-0.04 0.0414,-0.068 -0.003,-0.021 -0.0396,-0.027 -0.055,-0.041 -0.008,-0.01 -0.0176,-0.026 -0.0277,-0.041 -0.0115,-0.018 -0.0282,-0.038 -0.0414,-0.055 -0.0172,-0.023 -0.055,-0.052 -0.055,-0.068 4.4e-4,-0.02 0.0229,-0.027 0.0277,-0.055 -0.005,-0.025 -0.0515,0 -0.0551,-0.027 9e-4,-0.01 0.009,-0.022 0.0136,-0.028 0.0661,0.036 0.13124,0.079 0.19289,0.1238 0.0141,0.01 0.0273,0.018 0.0414,0.028 0.0476,0.036 0.0912,0.075 0.13784,0.11 -0.0295,0.01 -0.0445,0.039 -0.0687,0.068 -0.0167,0.021 -0.0436,0.045 -0.0687,0.055 -0.0123,0.01 -0.0299,-0.01 -0.0414,0 -0.0163,0.011 -0.0225,0.042 -0.0414,0.055 -0.0136,0.01 -0.0546,0.041 -0.0687,0.041 -0.0167,5e-4 -0.0432,-0.018 -0.055,-0.013 -0.0176,0.01 -0.008,0.034 -0.0277,0.041 -0.0388,0.013 -0.1101,-0.031 -0.12375,0.028 0.0167,0.034 0.0674,0.022 0.0964,0.041 0.0185,0.011 0.0502,0.063 0.0551,0.082 0.004,0.016 0.007,0.079 0,0.096 -0.0181,0.047 -0.07,0.043 -0.12375,0.041 -0.015,0 -0.0277,0 -0.0414,0 -0.0912,-0.01 -0.17923,-0.037 -0.22018,0.027 0.003,0.05 0.011,0.08 0,0.1237 -0.008,0.032 -0.0427,0.055 -0.0414,0.082 8.9e-4,0.014 0.0242,0.036 0.0277,0.055 0.002,0.01 -0.005,0.032 0,0.041 0.015,0.029 0.0559,-0.01 0.0828,0 0.026,0.01 0.0555,0.053 0.055,0.082 -4.4e-4,0.021 -0.0145,0.05 -0.0277,0.068 -0.0255,0.039 -0.0735,0.034 -0.1101,0.055 -0.0308,0.017 -0.037,0.052 -0.055,0.083 -0.0194,0.033 -0.0357,0.049 -0.0277,0.096 -0.0264,0.052 -0.0555,0.085 -0.11009,0.1101 -0.0163,0.01 -0.0405,0.017 -0.0551,0.027 -0.0119,0.01 -0.0247,0.023 -0.0414,0.041 -0.0207,0.023 -0.044,0.037 -0.0551,0.055 -0.008,0.013 -0.004,0.037 -0.0136,0.055 -0.0128,0.024 -0.0388,0.044 -0.055,0.068 -0.008,0.011 -0.0189,0.026 -0.0277,0.042 -0.0185,0.034 -0.0445,0.067 -0.0414,0.096 0.003,0.029 0.0392,0.03 0.0414,0.055 0.002,0.014 -0.0145,0.026 -0.0136,0.041 4.4e-4,0.022 0.0119,0.038 0.0136,0.055 0.004,0.043 -0.0194,0.053 -0.0277,0.083 -0.004,0.014 0.003,0.03 0,0.041 -0.007,0.022 -0.041,0.043 -0.0414,0.068 -4.4e-4,0.019 0.026,0.043 0.0277,0.068 8.9e-4,0.018 -0.0167,0.025 -0.0136,0.041 0.006,0.032 0.0713,0.072 0.0964,0.096 0.033,0.033 0.0683,0.061 0.0828,0.096 0.0119,0.03 0.0181,0.074 0.0414,0.096 0.0172,0.017 0.0467,0.023 0.0687,0.041 0.0207,0.016 0.0471,0.024 0.0687,0.041 0.0357,0.028 0.0806,0.087 0.13784,0.082 0.0299,-0.01 0.0625,-0.022 0.0964,-0.028 0.0348,-0.01 0.0749,-0.017 0.11009,-0.013 0.0269,0.01 0.0546,0.029 0.0828,0.028 0.0295,0 0.063,-0.027 0.0964,-0.041 0.0581,-0.025 0.14929,-0.067 0.23384,-0.055 0.0643,0.01 0.0656,0.095 0.11009,0.1237 0.052,0.01 0.0964,-0.023 0.13784,-0.013 0.0308,0.01 0.0656,0.058 0.0687,0.083 0.003,0.025 -0.0238,0.053 -0.0277,0.068 -0.008,0.035 -0.007,0.075 -0.0137,0.096 -0.005,0.017 -0.0141,0.038 -0.0136,0.055 0,0.016 0.0255,0.063 0.0414,0.083 0.0194,0.024 0.0454,0.042 0.0687,0.068 0.0383,0.048 0.0683,0.1039 0.0964,0.1651 0.008,0.016 -0.007,0.034 0,0.055 -0.0128,0.099 -0.0454,0.1661 -0.1101,0.2752 -0.0304,0.036 -0.0696,0.066 -0.0687,0.11 -0.002,0.1058 0.0599,0.173 0.0551,0.2752 -0.0106,0.1374 0.0106,0.1466 0,0.2201 0.0462,0.023 0.0137,0.1025 0,0.1515 -0.0198,0.058 -0.044,0.072 -0.0551,0.11 0.0313,0.013 0.0753,0.01 0.1101,0 0,0 0.0423,0.1766 0.0414,0.1787 -0.35538,0.351 -0.80104,0.6111 -1.29382,0.7568 -0.24221,0.058 -0.31399,0.058 -0.42672,0.082 -0.14709,0.024 -0.30078,0.042 -0.45403,0.042 -0.10701,0 -0.2127,-0.01 -0.31663,-0.013 -0.0802,-0.01 -0.15589,-0.028 -0.23384,-0.041 -0.0233,-0.01 -0.0458,-0.01 -0.0687,-0.013 -0.0718,-0.024 -0.15457,-0.039 -0.22018,-0.055 -0.0749,-0.021 -0.14753,-0.043 -0.22019,-0.068 0.006,-0.01 0.0119,-0.01 0.0136,-0.013 0.004,-0.018 9e-4,-0.028 0,-0.055 0.007,-0.028 0.0352,-0.025 0.0414,-0.055 -0.0123,-0.021 -0.0366,-0.017 -0.0551,-0.027 -0.0181,-0.01 -0.0299,-0.033 -0.0277,-0.055 0.0308,-0.013 0.0881,0.029 0.11009,-0.013 0.011,-0.021 -0.015,-0.062 0,-0.082 0.0101,-0.013 0.0744,-0.024 0.0964,-0.028 0.0313,-0.01 0.0652,-0.01 0.0828,-0.013 0.0194,-0.013 0.0445,-0.047 0.0414,-0.083 -0.002,-0.017 -0.0145,-0.026 -0.0277,-0.041 -0.011,-0.013 -0.006,-0.029 -0.0136,-0.041 -0.0137,-0.021 -0.0352,-0.025 -0.0414,-0.055 0.0423,-0.01 0.10393,0.045 0.16514,0.028 0.0291,-0.01 0.0691,-0.082 0.0828,-0.1102 0.004,-0.01 -0.004,-0.018 0,-0.027 0.005,-0.011 0.026,-0.022 0.0277,-0.028 0.004,-0.016 -0.004,-0.032 0,-0.041 0.0106,-0.03 0.0374,-0.033 0.055,-0.055 0.0132,-0.017 0.0286,-0.038 0.0414,-0.055 0.0136,-0.018 0.0185,-0.038 0.0277,-0.055 0.009,-0.053 -0.0264,-0.091 -0.0136,-0.1378 0.0141,-0.053 0.0863,-0.072 0.13784,-0.096 0.0176,-0.01 0.0405,-0.022 0.0551,-0.028 0.0352,-0.012 0.0775,-0.016 0.11009,-0.027 0.055,-0.02 0.0691,-0.073 0.0964,-0.1237 0.0128,-0.023 0.0251,-0.052 0.0277,-0.068 0.002,-0.016 -0.003,-0.023 0,-0.041 0.003,-0.018 0.009,-0.036 0.0136,-0.055 0.006,-0.025 0.0137,-0.068 0.0137,-0.096 0,-0.023 -0.0128,-0.035 -0.0137,-0.055 -0.004,-0.077 0.0269,-0.096 0.055,-0.1379 0.0141,-0.021 0.0176,-0.04 0.0277,-0.055 0.0476,-0.071 0.12992,-0.1 0.12375,-0.2066 -0.002,-0.036 -0.0154,-0.1126 -0.0414,-0.1236 -0.015,-0.01 -0.0471,-0.01 -0.0687,-0.013 -0.0696,-0.026 -0.12066,-0.1184 -0.19288,-0.1237 -0.0154,0 -0.0242,0.013 -0.0414,0.013 -0.0286,0 -0.0647,-0.023 -0.0964,-0.028 -0.0203,-0.01 -0.0568,0.01 -0.0687,0 -0.0185,-0.01 -0.0128,-0.045 -0.0277,-0.055 -0.0119,-0.01 -0.037,-0.01 -0.055,-0.013 -0.0291,-0.011 -0.0493,-0.024 -0.0828,-0.028 -0.0101,-5e-4 -0.0295,0 -0.0414,0 -0.0185,-0.01 -0.0379,-0.018 -0.055,-0.027 -0.0211,-0.013 -0.0326,-0.023 -0.0414,-0.041 0.0194,-0.064 -0.0423,-0.074 -0.055,-0.11 -0.006,-0.017 0.006,-0.039 0,-0.055 -0.008,-0.023 -0.0313,-0.037 -0.0551,-0.055 -0.0427,-0.033 -0.0766,-0.061 -0.13784,-0.068 -0.0269,-0.01 -0.0639,0 -0.0964,0 -0.0343,-0.01 -0.0709,-0.025 -0.0964,-0.055 -0.0247,-0.028 -0.0335,-0.055 -0.0551,-0.068 -0.0207,-0.013 -0.0546,-0.013 -0.0687,-0.028 -0.006,-0.01 -0.007,-0.013 -0.0136,-0.027 -0.0101,-0.021 -0.0269,-0.043 -0.0136,-0.068 -0.0233,-0.012 -0.0154,0.032 -0.0414,0.027 -0.0229,-0.033 -0.0445,-0.051 -0.0964,-0.041 -0.0238,0.01 -0.0409,0.026 -0.0687,0.028 -0.0229,0 -0.0388,-0.023 -0.0687,-0.028 -0.0229,-0.01 -0.0528,0.016 -0.0687,0.013 -0.0251,-0.01 -0.0321,-0.026 -0.0551,-0.041 -0.0167,-0.011 -0.0458,-0.042 -0.055,-0.041 -0.0295,0 -0.0555,0.063 -0.0964,0.041 -0.0198,-0.025 0.0374,-0.032 0.0136,-0.055 -0.0176,-0.018 -0.0269,0.01 -0.0414,0.013 -0.0163,0.011 -0.037,0.021 -0.0551,0.027 -0.0405,0.015 -0.0647,0.011 -0.0964,0.028 -0.0291,0.015 -0.0383,0.039 -0.0551,0.068 -0.0136,0.024 -0.0348,0.067 -0.0551,0.068 -0.0247,0 -0.0467,-0.032 -0.0687,-0.041 -0.0674,-0.029 -0.10921,0.013 -0.16514,0.013 -0.052,0 -0.12639,-0.076 -0.12375,-0.1237 0.002,-0.03 0.0238,-0.073 0.0277,-0.1101 0.003,-0.029 0.0273,-0.056 0.0277,-0.082 4.4e-4,-0.036 -0.0594,-0.065 -0.0828,-0.068 -0.0551,-0.01 -0.12991,0.027 -0.19288,0 -0.0119,-0.021 0.0207,-0.036 0.0277,-0.055 0.004,-0.011 -0.004,-0.015 0,-0.028 0.007,-0.019 0.0326,-0.035 0.0414,-0.055 0.007,-0.015 0.007,-0.036 0.0136,-0.055 0.007,-0.022 0.026,-0.04 0.0277,-0.055 0.002,-0.021 -0.0119,-0.042 -0.0277,-0.055 -0.0489,0.01 -0.0824,0 -0.1101,0.013 -0.0634,0.029 -0.0467,0.1171 -0.11009,0.1378 -0.022,0.01 -0.0586,0.01 -0.0828,0.013 -0.0207,0.01 -0.0471,0.014 -0.0687,0.013 -0.0255,0 -0.0674,-0.025 -0.0828,-0.041 -0.004,-0.01 -0.0106,-0.016 -0.0136,-0.027 9e-4,-0.01 -8.9e-4,-0.01 0,-0.013 0.0203,-0.098 0.041,-0.1954 0.0687,-0.2887 10e-4,-0.01 -10e-4,-0.01 0,-0.013 0.0185,-0.061 0.0454,-0.1189 0.0687,-0.1788 0.006,-0.01 0.008,-0.01 0.0136,-0.013 0.0339,-0.023 0.0687,-0.052 0.11009,-0.055 0.0251,0 0.0722,0.01 0.0965,0.013 0.022,0.01 0.0361,0.026 0.055,0.028 0.0542,0.01 0.0656,-0.046 0.1101,-0.068 0.0458,0.01 0.0687,-0.01 0.11009,0 0.0282,0.01 0.0608,0.039 0.0828,0.041 0.0185,0 0.0233,-0.031 0.0414,-0.027 0.0176,0.01 0.0524,0.048 0.0551,0.068 0.003,0.026 -0.0211,0.053 -0.0136,0.082 0.0277,0.028 0.0841,0.024 0.12374,0.041 0.026,-0.021 0.004,-0.052 0,-0.082 -8.9e-4,-0.013 0.002,-0.029 0,-0.041 -0.003,-0.021 -0.0137,-0.037 -0.0137,-0.055 -4.4e-4,-0.083 0.0678,-0.132 0.12375,-0.1651 0.0242,-0.014 0.0476,-0.031 0.0687,-0.041 0.0295,-0.015 0.044,-0.027 0.0687,-0.041 0.0445,-0.025 0.089,-0.04 0.12375,-0.068 0.0163,-0.038 -0.002,-0.086 0,-0.1237 0.0163,-0.01 0.0242,0 0.0414,0 0.0269,-0.01 0.0396,-0.04 0.0551,-0.055 0.009,-0.01 0.0304,-0.019 0.0414,-0.028 0.0269,-0.021 0.0317,-0.046 0.0551,-0.055 0.008,-0.01 0.0282,-0.01 0.0414,-0.013 0.0176,-0.01 0.0405,-0.018 0.0687,-0.028 0.0185,-0.01 0.0616,-0.01 0.0687,-0.013 0.009,-0.01 -0.003,-0.042 0,-0.055 0.0141,-0.066 0.11978,-0.074 0.17879,-0.096 0.0414,-0.016 0.0784,-0.05 0.12374,-0.041 -0.009,0.032 -0.0484,0.017 -0.0414,0.055 0.0101,0.053 0.0775,-0.01 0.0964,-0.013 0.0357,-0.015 0.10437,-0.023 0.15149,-0.041 0.0414,-0.015 0.10789,-0.035 0.0687,-0.082 -0.0326,0 -0.0405,0.029 -0.0687,0.041 -0.0194,0.01 -0.0247,-0.012 -0.0414,-0.013 -0.0159,0 -0.0251,0.017 -0.0414,0.013 -0.0163,-0.01 -0.0388,-0.035 -0.0414,-0.055 -0.006,-0.049 0.0484,-0.06 0.0687,-0.096 -0.0132,-0.045 -0.0731,-0.01 -0.11009,-0.028 0.004,-0.026 0.0242,-0.05 0.0551,-0.055 0.0251,-0.01 0.0815,0.01 0.0964,0.013 0.009,0.01 0,0.029 0.0136,0.041 0.015,0.013 0.0357,0.01 0.0551,0 0.007,-0.034 -0.0467,-0.019 -0.0414,-0.041 0.0396,-0.026 0.1167,-0.01 0.16514,-0.013 0.0277,-0.01 0.0577,-0.028 0.0828,-0.041 0.0238,-0.013 0.0436,-0.036 0.0687,-0.013 0.007,0.023 -0.0141,0.029 -0.0277,0.041 -0.0449,0.04 -0.089,0.091 -0.12375,0.1377 0.0216,0.021 0.0599,0.01 0.0964,0.013 0.0141,0 0.0264,0.011 0.0414,0.013 0.0176,0.01 0.0414,-0.01 0.0551,0 0.0247,0.01 0.0308,0.041 0.055,0.041 0.0401,0 0.0366,-0.055 0.0136,-0.082 0.007,-0.027 0.0234,-0.035 0.0137,-0.055 -0.0181,-0.035 -0.0929,0.01 -0.0964,-0.041 -0.002,-0.03 0.0308,-0.033 0.0414,-0.055 -0.005,-0.057 0.0467,-0.06 0.0414,-0.11 -0.003,-0.021 -0.0264,-0.021 -0.0414,-0.041 -0.008,-0.01 -0.004,-0.034 -0.0136,-0.041 -0.0308,-0.026 -0.0925,-0.02 -0.0964,-0.068 -0.002,-0.029 0.004,-0.051 0,-0.082 -0.004,-0.03 -0.0291,-0.118 -0.055,-0.1238 -0.033,-0.01 -0.0568,0.05 -0.0964,0.068 -0.0216,0.01 -0.0612,0.018 -0.0828,0.013 -0.0141,-0.01 -0.0392,-0.014 -0.0414,-0.041 -0.003,-0.031 0.022,-0.036 0.0277,-0.068 -0.005,-0.02 -0.0225,-0.012 -0.0414,-0.027 -0.0216,-0.017 -0.0401,-0.05 -0.0687,-0.055 -0.0145,0 -0.041,0.013 -0.0551,0.013 -0.0264,0 -0.0467,-0.01 -0.0687,-0.013 0.009,-0.01 0.0181,-0.01 0.0277,-0.013 0.0537,-0.019 0.1101,-0.026 0.16514,-0.041 0.01,-0.01 0.0181,-0.011 0.0277,-0.013 0.0136,0.014 0.0247,0.046 0.0414,0.055 0.011,0.01 0.0277,-0.01 0.0414,0 0.0431,0.013 0.0766,0.037 0.12375,0.027 0.0163,-0.028 -0.0326,-0.033 -0.0136,-0.055 0.0317,0.01 0.0581,0.018 0.0828,0.028 0.0339,-0.024 0.0564,-0.029 0.0551,-0.068 -4.4e-4,-0.021 -0.0273,-0.028 -0.0414,-0.041 0.0277,-0.01 0.0546,-0.01 0.0828,-0.013 0.002,0.01 0.009,0.013 0.0136,0.013 0.0167,0.01 0.0727,-0.023 0.0828,-0.028 0.002,0 -0.003,-0.012 0,-0.013 0.11141,-0.012 0.22943,-0.013 0.34393,-0.013 m -1.10093,0.2065 c -0.0101,0.019 -0.0207,0.035 -0.0414,0.041 0.005,0.028 -0.037,0.047 -0.0414,0.068 -0.003,0.016 -9e-4,0.041 0,0.055 0.009,0.1404 -0.11054,0.21 -0.24793,0.2065 -0.0269,0.025 -0.0128,0.075 -0.0277,0.11 -0.0123,0.029 -0.0529,0.057 -0.0828,0.055 -0.022,0 -0.0551,-0.035 -0.0551,-0.055 0,-0.025 0.0357,-0.04 0.0136,-0.068 0.003,-0.02 0.0467,-0.038 0.0414,-0.068 -0.005,-0.033 -0.0423,-0.01 -0.0828,-0.013 -0.0229,-0.01 -0.0586,-0.017 -0.0828,-0.028 0.0445,-0.03 0.0903,-0.055 0.13783,-0.083 0.0414,-0.024 0.0815,-0.046 0.12375,-0.068 0.11097,-0.056 0.22987,-0.1074 0.34393,-0.1514 m 2.36701,0.3301 c -0.0119,0 -0.0176,0.01 -0.0277,0.013 -0.0225,0.013 -0.0238,0.035 -0.0414,0.041 -0.0238,0.01 -0.0515,0.01 -0.0551,0.027 -0.003,0.018 0.0145,0.023 0.0136,0.041 -0.009,0.021 -0.0233,0.029 -0.0277,0.055 0.0299,0.049 0.10085,-0.01 0.13784,-0.013 0.0167,-0.01 0.0321,0 0.0414,-0.013 0.0101,-0.016 0.006,-0.047 0.0137,-0.068 0.008,-0.024 0.0304,-0.019 0.0277,-0.041 -0.003,-0.023 -0.0467,-0.045 -0.0828,-0.042 m -3.22046,0.3439 c 0.0269,0.01 0.0863,0.085 0.0277,0.11 -0.006,0.01 -0.0823,0.016 -0.0964,0.013 -0.0203,-0.01 -0.0344,-0.038 -0.0551,-0.041 -0.0405,-0.01 -0.096,0.044 -0.12374,0 0.007,-0.026 0.0379,-0.019 0.0687,-0.027 0.055,-0.015 0.13123,-0.067 0.17879,-0.055 m 0.11009,0.1377 c 0.0136,0 0.0247,0.026 0.0414,0.028 0.0159,0 0.0317,-0.016 0.0414,-0.013 0.0247,0.01 0.037,0.051 0.0136,0.068 -0.0194,0 -0.0269,-0.017 -0.0414,-0.013 -0.0401,0.01 -0.0528,0.085 -0.0828,0.083 -0.0282,-0.01 -0.0423,-0.062 -0.0136,-0.083 9e-4,-0.018 -0.0145,-0.024 -0.0137,-0.041 0.009,-0.011 0.0317,-0.029 0.0551,-0.028 m -0.13783,0.013 c 0.008,5e-4 0.0106,0 0.0136,0 -0.004,0.032 -0.0172,0.04 -0.0414,0.055 -0.0418,0.025 -0.0691,0.056 -0.0828,0.11 -0.004,0.016 -0.0489,0.059 -0.0687,0.055 -0.0467,-0.01 0.0167,-0.097 0.0277,-0.11 0.0119,-0.014 0.0273,-0.024 0.0414,-0.041 0.0132,-0.017 0.0145,-0.047 0.0277,-0.055 0.0141,-0.01 0.0581,-0.014 0.0828,-0.013 m 4.18355,0.013 c 0.0211,0.01 0.0255,0.031 0.0414,0.041 0.0119,0.01 0.0282,0.01 0.0414,0.013 0.0154,0.01 0.0238,0.026 0.0414,0.041 0.0247,0.021 0.0617,0.039 0.0964,0.055 0.007,0.01 0.0194,0.01 0.0277,0.013 0.0242,0.032 0.0458,0.065 0.0687,0.097 0.003,0.018 0.005,0.043 0.0136,0.055 0.0229,0.032 0.0577,0.058 0.0828,0.096 -4.4e-4,0.036 0.0159,0.058 0.0414,0.068 0.0321,0.054 0.0656,0.1092 0.0964,0.1651 0.0128,0.025 0.0154,0.057 0.0277,0.082 -0.009,0 -0.0189,0.01 -0.0277,0 -0.0291,-0.051 -0.18011,-0.062 -0.19288,0.013 -0.006,0.033 0.0216,0.077 -0.0277,0.083 -0.0313,0.01 -0.0674,-0.032 -0.11009,-0.041 -0.0176,-0.01 -0.0414,0.01 -0.055,0 -0.0321,-0.011 -0.0273,-0.05 -0.0551,-0.068 -0.0159,-0.011 -0.0572,-0.024 -0.0828,-0.028 -0.0159,0 -0.0247,0 -0.0414,0 -0.0198,-0.01 -0.052,-0.01 -0.0687,-0.013 -0.0159,-0.01 -0.0511,-0.028 -0.0551,-0.041 -0.006,-0.021 0.0396,-0.05 0.0414,-0.068 8.9e-4,-0.013 -0.0101,-0.021 -0.0136,-0.041 -0.002,-0.013 0.003,-0.033 0,-0.041 -0.004,-0.015 -0.0313,-0.027 -0.055,-0.028 -0.0211,0 -0.037,0.013 -0.0551,0.013 -0.026,5e-4 -0.0779,-0.016 -0.1101,-0.013 -0.0194,0 -0.037,0.012 -0.0551,0.013 -0.0511,0.01 -0.0841,-0.01 -0.12374,0 -0.0291,0 -0.0832,0.015 -0.1101,0.027 -0.0137,0.01 -0.0238,0.019 -0.0414,0.028 -0.008,0.01 -0.0172,0.01 -0.0277,0.013 -0.0167,0.01 -0.0392,0.023 -0.0551,0.028 -0.0229,0.01 -0.0546,0 -0.0964,0 -0.0299,0 -0.0824,-0.01 -0.0828,-0.041 -4.4e-4,-0.053 0.1,-0.032 0.15149,-0.041 0.0194,-0.01 0.0321,-0.028 0.0551,-0.041 0.011,-0.01 0.0172,-0.01 0.0277,-0.013 0.0176,-0.012 0.0524,-0.041 0.0551,-0.055 0.003,-0.013 -0.0154,-0.032 -0.0137,-0.041 0.002,-0.012 0.0251,-0.025 0.0414,-0.041 0.0246,-0.024 0.0383,-0.053 0.0687,-0.068 0.0207,-0.011 0.0595,-0.01 0.0687,-0.028 0.002,-0.019 -4.4e-4,-0.023 0,-0.041 0.0128,-0.012 0.0167,-0.025 0.0277,-0.028 0.0317,-0.01 0.0594,0.016 0.0964,0.013 0.0159,0 0.0379,-0.01 0.055,-0.013 0.0145,-0.01 0.0273,-0.02 0.0414,-0.027 0.0154,-0.01 0.0225,-0.026 0.0414,-0.028 0.0462,-0.01 0.0753,0.054 0.0964,0.082 0.0176,0.023 0.0674,0.052 0.0964,0.068 0.0163,0.01 0.037,0.02 0.0551,0.027 0.0383,0.017 0.10877,0.072 0.11009,0.1101 9e-4,0.019 -0.0167,0.024 -0.0137,0.041 0.0291,0.01 0.0542,-0.026 0.0551,-0.055 4.4e-4,-0.018 -0.0172,-0.023 -0.0136,-0.041 0.0136,-0.029 0.0652,-0.01 0.0828,-0.013 -0.003,-0.033 -0.0546,-0.038 -0.0828,-0.055 -0.015,-0.01 -0.0255,-0.021 -0.0414,-0.027 -0.0229,-0.01 -0.0511,-0.014 -0.0687,-0.028 -0.0167,-0.013 -0.0251,-0.035 -0.0414,-0.055 -0.0238,-0.028 -0.0696,-0.032 -0.0551,-0.096 0.007,-0.01 0.0163,-0.031 0.0277,-0.028 m -3.88101,0.096 h 0.0414 c 0.015,4e-4 0.0352,-0.01 0.0414,0 -0.01,0.039 -0.0934,0.028 -0.12375,0.013 0.002,-0.015 0.022,-0.012 0.0414,-0.013 m -0.13784,0.068 c 0.0101,0 0.0172,-0.01 0.0277,0 -0.0273,0.023 -0.0634,0.04 -0.11009,0.055 -0.0225,0.01 -0.0511,0.011 -0.0551,-0.013 -0.005,-0.031 0.0207,-0.024 0.0414,-0.028 0.0255,-0.01 0.066,-0.013 0.0964,-0.013 m 3.82597,0 c -0.0189,0.01 -0.0291,0.05 0,0.055 0.0137,-0.01 0.0172,-0.03 0.0137,-0.055 -0.008,-0.01 -0.008,0 -0.0137,0 m -0.0136,0.083 c -0.009,0.01 -0.0176,0.01 -0.0277,0.013 4.4e-4,0.033 0.007,0.053 0,0.082 0.0189,0.035 0.059,0.011 0.0687,-0.013 0.0114,-0.061 -0.0132,-0.09 -0.0414,-0.082 m 0.19288,0.165 c 0.0216,0.036 0.0621,0.061 0.1101,0.069 0.0176,-0.013 0.0194,-0.047 0.0277,-0.069 -0.0207,5e-4 -0.0427,0 -0.0687,0 -0.026,0 -0.0537,-0.012 -0.0687,0 m -5.1471,1.1834 c 0.0722,-0.01 0.0934,0.095 0.15149,0.1238 0.0145,0.01 0.0361,0.01 0.055,0.013 0.0154,0.01 0.0269,0.01 0.0414,0.013 0.0313,0.01 0.0713,0.01 0.0964,0.013 0.0374,0.017 0.0643,0.091 0.0964,0.11 0.002,0.019 -0.006,0.041 0,0.055 0.0154,0.021 0.0436,0.028 0.0687,0.041 0.0299,0.017 0.0405,0.056 0.0687,0.068 0.01,0.01 0.026,-0.01 0.0414,0 0.0388,0.012 0.0493,0.065 0.0828,0.055 0.022,-0.01 0.0242,-0.035 0.0277,-0.055 0.0145,-0.016 0.0326,-0.041 0.0551,-0.041 0.0365,0 0.0418,0.033 0.055,0.068 0.008,0.021 0.0225,0.048 0.0277,0.068 0.009,0.036 0.008,0.1431 0,0.165 -0.009,0.027 -0.0467,0.039 -0.0687,0.068 -0.0106,0.013 -0.0194,0.032 -0.0277,0.041 -0.0141,0.018 -0.0304,0.025 -0.0414,0.041 -0.006,0.01 -0.008,0.029 -0.0136,0.042 -0.0176,0.037 -0.0423,0.065 -0.0277,0.1102 0.006,0.019 0.0273,0.034 0.0277,0.055 0,0.025 -0.0506,0.041 -0.055,0.068 -0.003,0.02 0.0211,0.055 0.0277,0.082 0.005,0.021 0.0427,0.041 0.055,0.055 0.0207,0.023 0.0361,0.053 0.0551,0.083 0.0374,0.058 0.0599,0.1233 0.0964,0.1787 0.0189,0.029 0.0559,0.052 0.0687,0.083 0.007,0.016 -0.006,0.041 0,0.055 0.0211,0.048 0.11714,0.1004 0.16515,0.1238 0.0225,0.011 0.0485,0 0.0687,0.013 0.0313,0.017 0.0942,0.069 0.11009,0.096 0.0141,0.024 0.0207,0.085 0.0277,0.1237 0.009,0.052 -0.002,0.096 0,0.1515 0.002,0.031 0.0132,0.052 0.0136,0.082 0,0.01 4.4e-4,0.031 0,0.041 -9e-4,0.037 0.003,0.073 0,0.1101 -0.002,0.021 -10e-4,0.038 0,0.055 0.002,0.018 0.0123,0.025 0.0136,0.041 8.9e-4,0.017 -0.0154,0.042 -0.0136,0.055 0.004,0.037 0.0339,0.063 0.0414,0.096 0.006,0.027 0.0172,0.092 0.0136,0.1237 -0.002,0.017 -0.011,0.037 -0.0136,0.055 -0.002,0.014 0.002,0.027 0,0.041 -0.003,0.021 -0.015,0.036 -0.0136,0.055 0.003,0.039 0.0352,0.07 0.0414,0.11 0.002,0.013 -4.4e-4,0.028 0,0.041 4.4e-4,0.012 0.0101,0.017 0.0136,0.027 -0.11582,-0.065 -0.22415,-0.1399 -0.33028,-0.22 -0.10085,-0.076 -0.19861,-0.1603 -0.28889,-0.2479 -0.004,-0.01 -0.009,-0.01 -0.0136,-0.013 -0.0912,-0.09 -0.18231,-0.1885 -0.26158,-0.2888 -0.0458,-0.058 -0.096,-0.1176 -0.13784,-0.1787 -0.0247,-0.036 -0.0458,-0.072 -0.0687,-0.1101 -0.0141,-0.022 -0.0277,-0.046 -0.0414,-0.068 -0.0392,-0.067 -0.0762,-0.1356 -0.11009,-0.2065 -0.0216,-0.044 -0.0357,-0.092 -0.0551,-0.1377 -0.0462,-0.1092 -0.0903,-0.2153 -0.12374,-0.3302 -0.0238,-0.081 -0.0379,-0.1633 -0.0551,-0.2478 -0.0132,-0.065 -0.0321,-0.1273 -0.0414,-0.1929 -0.005,-0.036 -0.0101,-0.074 -0.0137,-0.1101 -0.0106,-0.1034 -0.0136,-0.2099 -0.0136,-0.3164 0,-0.133 0.0114,-0.2572 0.0277,-0.3852 4.4e-4,-0.01 -4.5e-4,-0.01 0,-0.013 0.0277,0 0.0656,-0.04 0.0964,-0.041 m 1.18372,0.3301 c 0.0282,-0.013 0.037,0.051 0.0136,0.055 -0.022,0.01 -0.0352,-0.045 -0.0136,-0.055"
       inkscape:connector-curvature="0"
       style="color:#000000;fill:#0000ff;fill-opacity:1;stroke-width:1" />
  </g>
</svg>
