<?xml version="1.0" encoding="UTF-8" standalone="no"?>
<!-- Created with Inkscape (http://www.inkscape.org/) -->

<svg
   xmlns:dc="http://purl.org/dc/elements/1.1/"
   xmlns:cc="http://creativecommons.org/ns#"
   xmlns:rdf="http://www.w3.org/1999/02/22-rdf-syntax-ns#"
   xmlns:svg="http://www.w3.org/2000/svg"
   xmlns="http://www.w3.org/2000/svg"
   xmlns:sodipodi="http://sodipodi.sourceforge.net/DTD/sodipodi-0.dtd"
   xmlns:inkscape="http://www.inkscape.org/namespaces/inkscape"
   width="22"
   height="22"
   id="svg3049"
   version="1.1"
   inkscape:version="0.92.3 (2405546, 2018-03-11)"
   sodipodi:docname="run-build-http.svg"
   inkscape:export-filename="/home/uri/.kde/share/icons/NITRUX-KDE/16x16/actions/view-right-new.png"
   inkscape:export-xdpi="30"
   inkscape:export-ydpi="30">
  <defs
     id="defs3051" />
  <sodipodi:namedview
     id="base"
     pagecolor="#ffffff"
     bordercolor="#666666"
     borderopacity="1.0"
     inkscape:pageopacity="0.0"
     inkscape:pageshadow="2"
     inkscape:zoom="45.254834"
     inkscape:cx="11.226759"
     inkscape:cy="8.6473902"
     inkscape:document-units="px"
     inkscape:current-layer="layer2"
     showgrid="true"
     fit-margin-top="0"
     fit-margin-left="0"
     fit-margin-right="0"
     fit-margin-bottom="0"
     inkscape:window-width="1920"
     inkscape:window-height="1015"
     inkscape:window-x="0"
     inkscape:window-y="0"
     inkscape:window-maximized="1"
     inkscape:showpageshadow="false"
     borderlayer="true">
    <sodipodi:guide
       position="2.0000044,20.00003"
       orientation="18,0"
       id="guide4067"
       inkscape:locked="false" />
    <sodipodi:guide
       position="2.0000044,2.0000296"
       orientation="0,18"
       id="guide4069"
       inkscape:locked="false" />
    <sodipodi:guide
       position="20.000004,2.0000296"
       orientation="-18,0"
       id="guide4071"
       inkscape:locked="false" />
    <sodipodi:guide
       position="20.000004,20.00003"
       orientation="0,-18"
       id="guide4073"
       inkscape:locked="false" />
    <sodipodi:guide
       position="3.0000044,19.00003"
       orientation="16,0"
       id="guide4077"
       inkscape:locked="false" />
    <sodipodi:guide
       position="3.0000044,3.0000296"
       orientation="0,16"
       id="guide4079"
       inkscape:locked="false" />
    <sodipodi:guide
       position="19.000004,3.0000296"
       orientation="-16,0"
       id="guide4081"
       inkscape:locked="false" />
    <sodipodi:guide
       position="19.000004,19.00003"
       orientation="0,-16"
       id="guide4083"
       inkscape:locked="false" />
    <inkscape:grid
       type="xygrid"
       id="grid4085" />
  </sodipodi:namedview>
  <metadata
     id="metadata3054">
    <rdf:RDF>
      <cc:Work
         rdf:about="">
        <dc:format>image/svg+xml</dc:format>
        <dc:type
           rdf:resource="http://purl.org/dc/dcmitype/StillImage" />
        <dc:title></dc:title>
      </cc:Work>
    </rdf:RDF>
  </metadata>
  <g
     inkscape:groupmode="layer"
     id="layer1"
     inkscape:label="Capa 3"
     style="display:inline">
    <path
       inkscape:connector-curvature="0"
       style="opacity:1;fill:#4d4d4d;fill-opacity:1;stroke:none;stroke-width:2.79999995;stroke-miterlimit:4;stroke-dasharray:none;stroke-opacity:0.55026455"
       d="m 9.9013249,3.0290552 0,1.078125 C 8.71357,4.2762284 7.625274,4.7391574 6.7099187,5.4235864 L 5.3153874,4.0290552 3.9013249,5.4431177 5.2958561,6.837649 C 4.611427,7.7530042 4.1484981,8.8413003 3.9794499,10.029055 l -1.078125,0 0,2 1.078125,0 c 0.1690482,1.187755 0.6319772,2.276051 1.3164062,3.191406 l -1.3945312,1.394532 1.4140625,1.414062 1.3945313,-1.394531 c 0.9153552,0.684429 2.0036513,1.147358 3.1914062,1.316406 l 0,1.078125 2.0000001,0 0,-1.078125 -0.185871,-0.361602 c -0.325654,0.0543 -0.472593,-0.311057 -0.814129,-0.311057 -0.341536,0 -0.674346,-0.28476 -1.0000001,-0.33906 C 8.9880818,16.786929 8.147288,16.433198 7.4247624,15.91968 6.8775664,15.530773 6.3996066,15.052813 6.0106999,14.505617 5.4971818,13.783094 5.1434513,12.942298 4.9911687,12.029055 c -0.054303,-0.325654 -0.089844,-0.658464 -0.089844,-1 0,-0.341536 0.035541,-0.674346 0.089844,-1 C 5.1434513,9.1158121 5.4971818,8.2750183 6.0106999,7.5524927 6.3996066,7.0052967 6.8775664,6.5273369 7.4247624,6.1384302 8.147288,5.6249121 8.9880818,5.2711816 9.9013249,5.118899 10.226979,5.064596 10.559789,5.029055 10.901325,5.029055 c 0.341536,0 0.674346,0.035541 1,0.089844 0.913243,0.1522826 1.754038,0.5060131 2.476562,1.0195312 0.547198,0.3889067 1.025156,0.8668665 1.414063,1.4140625 0.513518,0.7225252 0.867249,1.5633192 1.019531,2.4765623 C 16.865781,10.354709 17,11 17.104446,11.150149 c 0.104445,0.150148 0.351017,0.744382 0.260853,0.588215 C 18,12 18.15625,11.902344 17.979453,11.931399 l 0.921871,0.09766 0,-2 -1.078125,0 C 17.654152,8.8413003 17.191223,7.7530043 16.506794,6.837649 L 17.901325,5.4431177 16.487263,4.0290552 15.092731,5.4235864 C 14.177376,4.7391573 13.08908,4.2762284 11.901325,4.1071802 l 0,-1.078125 z"
       id="rect4144"
       sodipodi:nodetypes="cccccccccccccccccccsssssssssssssssscccccccccccc" />
  </g>
  <g
     inkscape:groupmode="layer"
     id="layer2"
     inkscape:label="Capa 2"
     style="display:inline">
    <path
       style="opacity:1;fill:#4d4d4d;fill-opacity:1;stroke:none;stroke-width:2.79999995;stroke-miterlimit:4;stroke-dasharray:none;stroke-opacity:0.55026455"
       d="m 11.869468,7.9214234 0,0.6331069 c -0.697485,0.09927 -1.336565,0.3711156 -1.8740885,0.7730324 L 9.1764695,8.508653 8.3460902,9.3390317 9.1650005,10.157942 c -0.4019174,0.537524 -0.673763,1.176602 -0.773033,1.874087 l -0.6331069,0 0,1.174459 0.6331069,0 c 0.09927,0.697485 0.3711156,1.336564 0.773033,1.874088 l -0.8189103,0.81891 0.8303793,0.83038 0.81891,-0.818911 c 0.5375235,0.401918 1.1766035,0.673764 1.8740885,0.773033 l 0,0.633107 1.174459,0 0,-0.633107 c 0.697485,-0.09927 1.336564,-0.371115 1.874088,-0.773033 l 0.81891,0.818911 0.83038,-0.83038 -0.818911,-0.81891 c 0.401918,-0.537524 0.673764,-1.176603 0.773033,-1.874088 l 0.633107,0 0,-1.174459 -0.633107,0 c -0.09927,-0.697485 -0.371115,-1.336563 -0.773033,-1.874087 L 16.567305,9.3390317 15.736925,8.508653 14.918015,9.3275627 C 14.380491,8.9256459 13.741412,8.6538003 13.043927,8.5545303 l 0,-0.6331069 z m 0.58723,1.1744595 c 0.20056,0 0.395995,0.02087 0.587229,0.05276 0.536283,0.08943 1.030022,0.2971458 1.454311,0.5986988 0.32133,0.228377 0.602001,0.5090493 0.830379,0.8303793 0.301553,0.424288 0.509275,0.918027 0.598699,1.45431 0.03189,0.191233 0.05275,0.386669 0.05275,0.58723 0,0.200559 -0.02087,0.395995 -0.05275,0.587229 -0.08942,0.536283 -0.297146,1.030022 -0.598699,1.45431 -0.228378,0.321331 -0.50905,0.602002 -0.830379,0.83038 -0.424291,0.301552 -0.91803,0.509275 -1.454314,0.598699 -0.191232,0.03189 -0.386669,0.05275 -0.587228,0.05275 -0.20056,0 -0.395997,-0.02087 -0.587229,-0.05275 -0.536282,-0.08943 -1.030021,-0.297147 -1.45431,-0.5987 -0.32133,-0.228378 -0.6020025,-0.50905 -0.8303795,-0.830379 -0.301553,-0.424289 -0.5092739,-0.918028 -0.5986989,-1.454311 -0.03189,-0.191234 -0.05276,-0.386669 -0.05276,-0.587229 0,-0.20056 0.02087,-0.395996 0.05276,-0.58723 0.08943,-0.536283 0.2971459,-1.030021 0.5986999,-1.454309 0.228377,-0.32133 0.5090495,-0.6020023 0.8303785,-0.8303803 0.42429,-0.301553 0.918028,-0.509274 1.454311,-0.5986978 0.191234,-0.03189 0.38667,-0.05276 0.58723,-0.05276 z"
       id="rect4144-6"
       inkscape:connector-curvature="0"
       sodipodi:nodetypes="cccccccccccccccccccccccccccccccccsssssssssssssssssssss" />
    <rect
       rx="3.5"
       style="opacity:1;fill:#d5dddc;fill-opacity:1;stroke:none;stroke-opacity:1"
       id="rect4172"
       width="7"
       height="7"
       x="9"
       y="9"
       ry="3.5" />
    <path
       id="path3011"
       d="m 12.519659,9.0401 c -0.140479,0 -0.276556,0.011 -0.413072,0.028 -0.133873,0.016 -0.27039,0.038 -0.398979,0.068 -0.0414,0.01 -0.08147,0.029 -0.123745,0.041 -0.03699,0.01 -0.07354,0.017 -0.110093,0.028 -0.04624,0.014 -0.09424,0.026 -0.137837,0.041 -0.04712,0.017 -0.09115,0.036 -0.137838,0.055 -0.09072,0.036 -0.174829,0.08 -0.261582,0.1237 -0.03126,0.016 -0.06562,0.024 -0.09644,0.042 -0.101286,0.053 -0.194205,0.1157 -0.288885,0.1787 -0.03611,0.024 -0.07486,0.043 -0.110095,0.068 -0.01453,0.01 -0.02686,0.016 -0.04139,0.027 -0.04139,0.032 -0.08411,0.063 -0.123745,0.096 -0.04712,0.039 -0.09248,0.082 -0.137838,0.1238 -0.01409,0.013 -0.0273,0.028 -0.04139,0.041 -0.0049,0.01 -0.0088,0.01 -0.01365,0.013 -0.007,0.01 -0.0065,0.021 -0.01365,0.028 -0.09248,0.09 -0.193324,0.1757 -0.275234,0.2751 -0.0023,0.01 0.0023,0.011 0,0.013 -0.07971,0.097 -0.151047,0.1973 -0.220187,0.3029 -0.0093,0.014 -0.0185,0.027 -0.02774,0.041 -0.0066,0.01 -0.0207,0.017 -0.02774,0.028 -0.02642,0.043 -0.04448,0.092 -0.0687,0.1378 -0.0079,0.014 -0.01982,0.027 -0.02774,0.041 -0.03303,0.065 -0.06606,0.1276 -0.09644,0.1928 -0.0018,0.01 0.0018,0.01 0,0.013 -0.05152,0.1113 -0.09776,0.2262 -0.137837,0.3438 -0.0083,0.023 -0.01982,0.046 -0.02774,0.068 -0.0013,0.01 0.0013,0.01 0,0.013 -0.0088,0.028 -0.01938,0.055 -0.02774,0.083 -0.03214,0.1131 -0.06165,0.2262 -0.08279,0.3437 -0.01497,0.084 -0.03259,0.1748 -0.04139,0.2615 -0.01189,0.1167 -0.01365,0.2386 -0.01365,0.3579 0,0.1778 0.01585,0.3521 0.0414,0.523 0.0026,0.018 -0.0031,0.037 0,0.055 0.01938,0.1172 0.05196,0.2312 0.08279,0.3439 0.01144,0.042 0.02818,0.082 0.04139,0.1237 0.01761,0.057 0.03479,0.1096 0.05505,0.1651 0.03391,0.094 0.0687,0.1857 0.110092,0.275 0.02202,0.047 0.04492,0.093 0.0687,0.1378 0.06694,0.1286 0.138718,0.2531 0.220187,0.3716 0.007,0.01 0.02026,0.017 0.02774,0.028 0.0872,0.1237 0.173507,0.2464 0.275234,0.3579 0.01761,0.02 0.03699,0.035 0.05505,0.055 0.01761,0.019 0.03699,0.037 0.05505,0.055 0.09424,0.094 0.19861,0.1783 0.302978,0.2615 0.134755,0.1074 0.276995,0.202 0.426723,0.2888 0.0053,0.01 0.0083,0.01 0.01365,0.013 0.02334,0.013 0.04536,0.028 0.0687,0.042 0.139159,0.068 0.304739,0.143 0.413071,0.1927 0.04845,0.019 0.101727,0.025 0.151489,0.041 0.02335,0.01 0.04536,0.021 0.0687,0.028 0.05989,0.018 0.118021,0.039 0.178792,0.055 0.0185,0.01 0.03655,0.01 0.05505,0.013 0.12859,0.031 0.265105,0.053 0.398979,0.068 0.136076,0.016 0.272151,0.027 0.413071,0.027 0.149728,0 0.295492,-0.01 0.440375,-0.027 0.160736,-0.021 0.299895,-0.054 0.440374,-0.082 0.747756,-0.1919 1.392464,-0.626 1.857939,-1.2107 0.01233,-0.016 0.0295,-0.025 0.0414,-0.041 0.0039,-0.01 0.0097,-0.01 0.01365,-0.013 0.0062,-0.01 0.008,-0.02 0.01365,-0.027 0.274354,-0.3632 0.474284,-0.7841 0.591864,-1.2383 0.02466,-0.096 0.05196,-0.1902 0.06871,-0.2888 0.0022,-0.013 -0.0022,-0.028 0,-0.041 C 15.98895,13.092 15.99736,13.075 16,13.055 16.0026,13.036 16.01145,13.02 16.01366,13 H 16 c 0.01938,-0.1448 0.04139,-0.2901 0.04139,-0.4402 0,-0.243 -0.02202,-0.486 -0.0687,-0.7153 -0.0039,-0.019 -0.0097,-0.036 -0.01366,-0.055 -0.02026,-0.092 -0.05461,-0.1862 -0.08279,-0.2751 -0.0013,-0.01 0.0013,-0.01 0,-0.013 -0.0053,-0.017 -0.008,-0.024 -0.01366,-0.041 -0.01717,-0.052 -0.03567,-0.1136 -0.05505,-0.1652 -0.0053,-0.014 -0.008,-0.028 -0.01365,-0.041 -0.01894,-0.048 -0.04756,-0.091 -0.0687,-0.1379 -8.96e-4,0 8.95e-4,-0.011 0,-0.013 -0.01101,-0.024 -0.02994,-0.046 -0.0414,-0.068 -0.04315,-0.09 -0.0872,-0.176 -0.137836,-0.2614 -0.02555,-0.043 -0.0414,-0.095 -0.06871,-0.1378 -0.01057,-0.016 -0.03038,-0.025 -0.04139,-0.041 -0.0295,-0.043 -0.06474,-0.081 -0.09644,-0.1238 -0.03523,-0.044 -0.06165,-0.095 -0.09644,-0.1377 -0.0022,-0.01 0.0022,-0.011 0,-0.013 -0.07574,-0.092 -0.162939,-0.1774 -0.247931,-0.2614 -0.04096,-0.04 -0.08103,-0.085 -0.123746,-0.1238 -0.01233,-0.011 -0.02862,-0.016 -0.04139,-0.027 -0.09203,-0.08 -0.189361,-0.1496 -0.288885,-0.2199 -0.02422,-0.017 -0.04448,-0.039 -0.0687,-0.055 -0.03082,-0.021 -0.06518,-0.036 -0.09644,-0.055 -0.05945,-0.037 -0.11714,-0.077 -0.178792,-0.11 -0.05417,-0.03 -0.109213,-0.056 -0.165141,-0.083 -0.09424,-0.045 -0.190241,-0.087 -0.288885,-0.1238 -0.117139,-0.043 -0.23516,-0.079 -0.358025,-0.11 -0.107891,-0.027 -0.218865,-0.052 -0.330279,-0.068 -0.174829,-0.027 -0.354502,-0.041 -0.536817,-0.041 m 0,0.4403 c 0.131672,0 0.257619,0.012 0.385328,0.028 0.07926,0.01 0.156332,0.025 0.233838,0.041 0.0044,0 0.0093,0 0.01365,0 0.0731,0.016 0.148846,0.036 0.220186,0.055 0.04227,0.012 0.08235,0.027 0.123746,0.041 0.07574,0.025 0.147085,0.052 0.220187,0.082 0.08543,0.035 0.166901,0.067 0.247931,0.11 -0.01366,0.01 -0.02774,0.01 -0.04139,0.013 -0.0207,0.01 -0.04976,0.043 -0.05505,0.055 -0.0088,0.021 0.0022,0.051 0,0.082 0.01673,0.01 0.02641,0.039 0.05505,0.055 0.01101,0.01 0.01806,-0.01 0.02774,0 0.01673,0.01 0.03082,0.038 0.02774,0.055 -0.0049,0.024 -0.03876,0.01 -0.05505,0.027 0.0026,0.035 -0.01894,0.047 -0.02774,0.068 0.0053,0.014 0.0251,0.01 0.02774,0.028 -0.0031,0.019 -0.03479,0.022 -0.02774,0.041 0.0317,0.024 0.0665,-0.01 0.09644,-0.013 0.06562,-0.01 0.124626,0.018 0.165139,-0.013 -0.0053,-0.032 0.04448,-0.04 0.04139,-0.068 -0.0026,-0.021 -0.03963,-0.027 -0.05505,-0.041 -0.0083,-0.01 -0.01761,-0.026 -0.02774,-0.041 -0.01145,-0.018 -0.02818,-0.038 -0.04139,-0.055 -0.01717,-0.023 -0.05505,-0.052 -0.05505,-0.068 4.4e-4,-0.02 0.0229,-0.027 0.02774,-0.055 -0.0053,-0.025 -0.05152,0 -0.05505,-0.027 8.96e-4,-0.01 0.0093,-0.022 0.01365,-0.028 0.06605,0.036 0.131233,0.079 0.192884,0.1238 0.0141,0.01 0.0273,0.018 0.04139,0.028 0.04756,0.036 0.09115,0.075 0.137837,0.11 -0.0295,0.01 -0.04448,0.039 -0.0687,0.068 -0.01673,0.021 -0.0436,0.045 -0.0687,0.055 -0.01233,0.01 -0.02994,-0.01 -0.04139,0 -0.01629,0.011 -0.02246,0.042 -0.04139,0.055 -0.01365,0.01 -0.05461,0.041 -0.0687,0.041 -0.01673,5e-4 -0.04316,-0.018 -0.05505,-0.013 -0.01761,0.01 -0.0075,0.034 -0.02774,0.041 -0.03876,0.013 -0.110095,-0.031 -0.123746,0.028 0.01673,0.034 0.06738,0.022 0.09644,0.041 0.0185,0.011 0.0502,0.063 0.05505,0.082 0.0044,0.016 0.0066,0.079 0,0.096 -0.01806,0.047 -0.07002,0.043 -0.123746,0.041 -0.01497,0 -0.02774,0 -0.04139,0 -0.09116,-0.01 -0.179232,-0.037 -0.220187,0.027 0.0031,0.05 0.01101,0.08 0,0.1237 -0.008,0.032 -0.04271,0.055 -0.04139,0.082 8.96e-4,0.014 0.02422,0.036 0.02774,0.055 0.0022,0.01 -0.0049,0.032 0,0.041 0.01497,0.029 0.05593,-0.01 0.08279,0 0.02597,0.01 0.05549,0.053 0.05505,0.082 -4.4e-4,0.021 -0.01454,0.05 -0.02774,0.068 -0.02554,0.039 -0.07354,0.034 -0.110094,0.055 -0.03082,0.017 -0.03699,0.052 -0.05505,0.083 -0.01938,0.033 -0.03567,0.049 -0.02774,0.096 -0.02642,0.052 -0.05549,0.085 -0.110094,0.1101 -0.01629,0.01 -0.04051,0.017 -0.05505,0.027 -0.01189,0.01 -0.02466,0.023 -0.04139,0.041 -0.0207,0.023 -0.04404,0.037 -0.05505,0.055 -0.0083,0.013 -0.0044,0.037 -0.01365,0.055 -0.01277,0.024 -0.03876,0.044 -0.05505,0.068 -0.0075,0.011 -0.01894,0.026 -0.02774,0.042 -0.0185,0.034 -0.04448,0.067 -0.04139,0.096 0.0031,0.029 0.0392,0.03 0.04139,0.055 0.0018,0.014 -0.01454,0.026 -0.01365,0.041 4.4e-4,0.022 0.01189,0.038 0.01365,0.055 0.0044,0.043 -0.01938,0.053 -0.02774,0.083 -0.0039,0.014 0.0035,0.03 0,0.041 -0.007,0.022 -0.04096,0.043 -0.04139,0.068 -4.41e-4,0.019 0.02598,0.043 0.02774,0.068 8.96e-4,0.018 -0.01673,0.025 -0.01365,0.041 0.0062,0.032 0.07134,0.072 0.09644,0.096 0.03303,0.033 0.06826,0.061 0.08279,0.096 0.01189,0.03 0.01806,0.074 0.04139,0.096 0.01717,0.017 0.04667,0.023 0.0687,0.041 0.0207,0.016 0.04712,0.024 0.0687,0.041 0.03567,0.028 0.08059,0.087 0.137837,0.082 0.02994,-0.01 0.06253,-0.022 0.09644,-0.028 0.03479,-0.01 0.07486,-0.017 0.110094,-0.013 0.02686,0.01 0.05461,0.029 0.08279,0.028 0.0295,0 0.06297,-0.027 0.09644,-0.041 0.05813,-0.025 0.149287,-0.067 0.23384,-0.055 0.06429,0.01 0.06562,0.095 0.110091,0.1237 0.05196,0.01 0.09644,-0.023 0.137838,-0.013 0.03082,0.01 0.06562,0.058 0.0687,0.083 0.0031,0.025 -0.02379,0.053 -0.02774,0.068 -0.008,0.035 -0.0075,0.075 -0.01366,0.096 -0.0049,0.017 -0.01409,0.038 -0.01365,0.055 0,0.016 0.02554,0.063 0.04139,0.083 0.01938,0.024 0.04536,0.042 0.0687,0.068 0.03832,0.048 0.06826,0.1039 0.09644,0.1651 0.0075,0.016 -0.007,0.034 0,0.055 -0.01277,0.099 -0.04536,0.1661 -0.110094,0.2752 -0.03038,0.036 -0.06958,0.066 -0.0687,0.11 -0.0022,0.1058 0.05989,0.173 0.05505,0.2752 -0.01057,0.1374 0.01057,0.1466 0,0.2201 0.04624,0.023 0.01366,0.1025 0,0.1515 -0.01982,0.058 -0.04404,0.072 -0.05505,0.11 0.03126,0.013 0.0753,0.01 0.110095,0 0,0 0.04227,0.1766 0.04139,0.1787 -0.355383,0.351 -0.801041,0.6111 -1.293819,0.7568 -0.242207,0.058 -0.313988,0.058 -0.426723,0.082 -0.147086,0.024 -0.300777,0.042 -0.454026,0.042 -0.107011,0 -0.212701,-0.01 -0.31663,-0.013 -0.08015,-0.01 -0.155892,-0.028 -0.233838,-0.041 -0.02335,-0.01 -0.0458,-0.01 -0.0687,-0.013 -0.07178,-0.024 -0.154571,-0.039 -0.220187,-0.055 -0.07486,-0.021 -0.147526,-0.043 -0.220188,-0.068 0.0062,-0.01 0.01189,-0.01 0.01365,-0.013 0.0039,-0.018 8.97e-4,-0.028 0,-0.055 0.0066,-0.028 0.03523,-0.025 0.04139,-0.055 -0.01233,-0.021 -0.03655,-0.017 -0.05505,-0.027 -0.01806,-0.01 -0.02994,-0.033 -0.02774,-0.055 0.03082,-0.013 0.08808,0.029 0.110094,-0.013 0.011,-0.021 -0.01497,-0.062 0,-0.082 0.01012,-0.013 0.07442,-0.024 0.09644,-0.028 0.03126,-0.01 0.06518,-0.01 0.08279,-0.013 0.01938,-0.013 0.04448,-0.047 0.04139,-0.083 -0.0018,-0.017 -0.01453,-0.026 -0.02774,-0.041 -0.011,-0.013 -0.0057,-0.029 -0.01365,-0.041 -0.01365,-0.021 -0.03523,-0.025 -0.04139,-0.055 0.04227,-0.01 0.103927,0.045 0.165141,0.028 0.02906,-0.01 0.06914,-0.082 0.08279,-0.1102 0.0044,-0.01 -0.0044,-0.018 0,-0.027 0.0053,-0.011 0.02598,-0.022 0.02774,-0.028 0.0044,-0.016 -0.0036,-0.032 0,-0.041 0.01056,-0.03 0.03744,-0.033 0.05505,-0.055 0.01321,-0.017 0.02863,-0.038 0.04139,-0.055 0.01365,-0.018 0.0185,-0.038 0.02774,-0.055 0.0088,-0.053 -0.02642,-0.091 -0.01365,-0.1378 0.01409,-0.053 0.08632,-0.072 0.137837,-0.096 0.01761,-0.01 0.04052,-0.022 0.05505,-0.028 0.03523,-0.012 0.0775,-0.016 0.110094,-0.027 0.05505,-0.02 0.06914,-0.073 0.09644,-0.1237 0.01277,-0.023 0.0251,-0.052 0.02774,-0.068 0.0022,-0.016 -0.0031,-0.023 0,-0.041 0.0026,-0.018 0.0088,-0.036 0.01365,-0.055 0.0062,-0.025 0.01366,-0.068 0.01366,-0.096 0,-0.023 -0.01277,-0.035 -0.01366,-0.055 -0.0039,-0.077 0.02686,-0.096 0.05505,-0.1379 0.0141,-0.021 0.01761,-0.04 0.02774,-0.055 0.04756,-0.071 0.129911,-0.1 0.123745,-0.2066 -0.0022,-0.036 -0.01542,-0.1126 -0.04139,-0.1236 -0.01498,-0.01 -0.04712,-0.01 -0.0687,-0.013 -0.06958,-0.026 -0.120663,-0.1184 -0.192884,-0.1237 -0.01542,0 -0.02422,0.013 -0.04139,0.013 -0.02862,0 -0.06474,-0.023 -0.09644,-0.028 -0.02026,-0.01 -0.05681,0.01 -0.0687,0 -0.0185,-0.01 -0.01277,-0.045 -0.02774,-0.055 -0.01189,-0.01 -0.03699,-0.01 -0.05505,-0.013 -0.02906,-0.011 -0.04933,-0.024 -0.08279,-0.028 -0.01012,-5e-4 -0.0295,0 -0.04139,0 -0.0185,-0.01 -0.03788,-0.018 -0.05505,-0.027 -0.02114,-0.013 -0.03259,-0.023 -0.04139,-0.041 0.01938,-0.064 -0.04227,-0.074 -0.05505,-0.11 -0.0062,-0.017 0.0057,-0.039 0,-0.055 -0.0075,-0.023 -0.03126,-0.037 -0.05505,-0.055 -0.04271,-0.033 -0.07662,-0.061 -0.137837,-0.068 -0.02686,-0.01 -0.06386,0 -0.09644,0 -0.03435,-0.01 -0.0709,-0.025 -0.09644,-0.055 -0.02467,-0.028 -0.03347,-0.055 -0.05505,-0.068 -0.0207,-0.013 -0.05461,-0.013 -0.0687,-0.028 -0.0062,-0.01 -0.0075,-0.013 -0.01365,-0.027 -0.01012,-0.021 -0.02686,-0.043 -0.01365,-0.068 -0.02335,-0.012 -0.01541,0.032 -0.0414,0.027 -0.0229,-0.033 -0.04448,-0.051 -0.09644,-0.041 -0.02379,0.01 -0.04095,0.026 -0.0687,0.028 -0.0229,0 -0.03876,-0.023 -0.0687,-0.028 -0.0229,-0.01 -0.05284,0.016 -0.0687,0.013 -0.0251,-0.01 -0.03214,-0.026 -0.05505,-0.041 -0.01673,-0.011 -0.0458,-0.042 -0.05505,-0.041 -0.0295,0 -0.05549,0.063 -0.09644,0.041 -0.01982,-0.025 0.03744,-0.032 0.01365,-0.055 -0.01761,-0.018 -0.02686,0.01 -0.0414,0.013 -0.01629,0.011 -0.03699,0.021 -0.05505,0.027 -0.04052,0.015 -0.06474,0.011 -0.09644,0.028 -0.02906,0.015 -0.03832,0.039 -0.05505,0.068 -0.01365,0.024 -0.03479,0.067 -0.05505,0.068 -0.02467,0 -0.04668,-0.032 -0.0687,-0.041 -0.06738,-0.029 -0.109213,0.013 -0.165141,0.013 -0.05196,0 -0.126387,-0.076 -0.123745,-0.1237 0.0018,-0.03 0.02379,-0.073 0.02774,-0.1101 0.0026,-0.029 0.0273,-0.056 0.02774,-0.082 4.41e-4,-0.036 -0.05945,-0.065 -0.08279,-0.068 -0.05505,-0.01 -0.129911,0.027 -0.192884,0 -0.01188,-0.021 0.0207,-0.036 0.02774,-0.055 0.0039,-0.011 -0.0039,-0.015 0,-0.028 0.007,-0.019 0.03259,-0.035 0.04139,-0.055 0.0066,-0.015 0.007,-0.036 0.01365,-0.055 0.0075,-0.022 0.02598,-0.04 0.02774,-0.055 0.0022,-0.021 -0.01188,-0.042 -0.02774,-0.055 -0.04888,0.01 -0.08235,0 -0.110094,0.013 -0.06342,0.029 -0.04668,0.1171 -0.110093,0.1378 -0.02202,0.01 -0.05857,0.01 -0.08279,0.013 -0.0207,0.01 -0.04711,0.014 -0.0687,0.013 -0.02554,0 -0.06737,-0.025 -0.08279,-0.041 -0.0039,-0.01 -0.01056,-0.016 -0.01365,-0.027 8.96e-4,-0.01 -8.97e-4,-0.01 0,-0.013 0.02026,-0.098 0.04096,-0.1954 0.0687,-0.2887 0.0013,-0.01 -0.0013,-0.01 0,-0.013 0.0185,-0.061 0.04536,-0.1189 0.0687,-0.1788 0.0057,-0.01 0.0083,-0.01 0.01365,-0.013 0.03391,-0.023 0.0687,-0.052 0.110093,-0.055 0.0251,0 0.07222,0.01 0.09644,0.013 0.02202,0.01 0.03611,0.026 0.05505,0.028 0.05417,0.01 0.06562,-0.046 0.110093,-0.068 0.0458,0.01 0.0687,-0.01 0.110094,0 0.02818,0.01 0.06077,0.039 0.08279,0.041 0.0185,0 0.02335,-0.031 0.04139,-0.027 0.01762,0.01 0.05241,0.048 0.05505,0.068 0.0031,0.026 -0.02114,0.053 -0.01365,0.082 0.02774,0.028 0.08411,0.024 0.123745,0.041 0.02598,-0.021 0.0039,-0.052 0,-0.082 -8.97e-4,-0.013 0.0018,-0.029 0,-0.041 -0.0026,-0.021 -0.01365,-0.037 -0.01365,-0.055 -4.4e-4,-0.083 0.06782,-0.132 0.123746,-0.1651 0.02423,-0.014 0.04756,-0.031 0.0687,-0.041 0.02951,-0.015 0.04404,-0.027 0.0687,-0.041 0.04448,-0.025 0.08896,-0.04 0.123746,-0.068 0.01629,-0.038 -0.0018,-0.086 0,-0.1237 0.01629,-0.01 0.02422,0 0.04139,0 0.02686,-0.01 0.03964,-0.04 0.05505,-0.055 0.0088,-0.01 0.03038,-0.019 0.04139,-0.028 0.02686,-0.021 0.0317,-0.046 0.05505,-0.055 0.0083,-0.01 0.02818,-0.01 0.04139,-0.013 0.01761,-0.01 0.04051,-0.018 0.0687,-0.028 0.0185,-0.01 0.06165,-0.01 0.0687,-0.013 0.0088,-0.01 -0.0026,-0.042 0,-0.055 0.01409,-0.066 0.119782,-0.074 0.178792,-0.096 0.04139,-0.016 0.07838,-0.05 0.123746,-0.041 -0.0088,0.032 -0.04844,0.017 -0.04139,0.055 0.01012,0.053 0.0775,-0.01 0.09644,-0.013 0.03567,-0.015 0.104369,-0.023 0.151489,-0.041 0.04139,-0.015 0.107891,-0.035 0.0687,-0.082 -0.03258,0 -0.04051,0.029 -0.0687,0.041 -0.01938,0.01 -0.02466,-0.012 -0.04139,-0.013 -0.01585,0 -0.0251,0.017 -0.04139,0.013 -0.01629,-0.01 -0.03876,-0.035 -0.04139,-0.055 -0.0065,-0.049 0.04844,-0.06 0.0687,-0.096 -0.01321,-0.045 -0.0731,-0.01 -0.110094,-0.028 0.0039,-0.026 0.02422,-0.05 0.05505,-0.055 0.0251,-0.01 0.08147,0.01 0.09644,0.013 0.0088,0.01 0,0.029 0.01365,0.041 0.01497,0.013 0.03567,0.01 0.05505,0 0.007,-0.034 -0.04668,-0.019 -0.04139,-0.041 0.03964,-0.026 0.116699,-0.01 0.16514,-0.013 0.02774,-0.01 0.0577,-0.028 0.08279,-0.041 0.02379,-0.013 0.0436,-0.036 0.0687,-0.013 0.007,0.023 -0.01409,0.029 -0.02774,0.041 -0.04492,0.04 -0.08896,0.091 -0.123746,0.1377 0.02158,0.021 0.05989,0.01 0.09644,0.013 0.01409,0 0.02642,0.011 0.04139,0.013 0.01762,0.01 0.0414,-0.01 0.05505,0 0.02467,0.01 0.03082,0.041 0.05505,0.041 0.04007,0 0.03655,-0.055 0.01365,-0.082 0.007,-0.027 0.02335,-0.035 0.01365,-0.055 -0.01806,-0.035 -0.09292,0.01 -0.09644,-0.041 -0.0022,-0.03 0.03082,-0.033 0.04139,-0.055 -0.0049,-0.057 0.04668,-0.06 0.04139,-0.11 -0.0026,-0.021 -0.02641,-0.021 -0.04139,-0.041 -0.0075,-0.01 -0.0044,-0.034 -0.01365,-0.041 -0.03082,-0.026 -0.09248,-0.02 -0.09644,-0.068 -0.0018,-0.029 0.0044,-0.051 0,-0.082 -0.0039,-0.03 -0.02907,-0.118 -0.05505,-0.1238 -0.03303,-0.01 -0.05681,0.05 -0.09644,0.068 -0.02158,0.01 -0.06121,0.018 -0.08279,0.013 -0.01409,-0.01 -0.03919,-0.014 -0.04139,-0.041 -0.0026,-0.031 0.02202,-0.036 0.02774,-0.068 -0.0049,-0.02 -0.02246,-0.012 -0.0414,-0.027 -0.02158,-0.017 -0.04007,-0.05 -0.0687,-0.055 -0.01453,0 -0.04096,0.013 -0.05505,0.013 -0.02642,0 -0.04668,-0.01 -0.0687,-0.013 0.0093,-0.01 0.01806,-0.01 0.02774,-0.013 0.05373,-0.019 0.110093,-0.026 0.16514,-0.041 0.0097,-0.01 0.01806,-0.011 0.02774,-0.013 0.01365,0.014 0.02466,0.046 0.04139,0.055 0.011,0.01 0.02774,-0.01 0.04139,0 0.04315,0.013 0.07662,0.037 0.123745,0.027 0.01629,-0.028 -0.03259,-0.033 -0.01365,-0.055 0.0317,0.01 0.05813,0.018 0.08279,0.028 0.03391,-0.024 0.05637,-0.029 0.05505,-0.068 -4.4e-4,-0.021 -0.0273,-0.028 -0.04139,-0.041 0.02774,-0.01 0.05461,-0.01 0.08279,-0.013 0.0022,0.01 0.0093,0.013 0.01365,0.013 0.01673,0.01 0.07266,-0.023 0.08279,-0.028 0.0018,0 -0.0026,-0.012 0,-0.013 0.111415,-0.012 0.229436,-0.013 0.343933,-0.013 m -1.100935,0.2065 c -0.01012,0.019 -0.0207,0.035 -0.04139,0.041 0.0053,0.028 -0.03699,0.047 -0.04139,0.068 -0.0026,0.016 -8.96e-4,0.041 0,0.055 0.0088,0.1404 -0.110533,0.21 -0.24793,0.2065 -0.02686,0.025 -0.01277,0.075 -0.02774,0.11 -0.01233,0.029 -0.05285,0.057 -0.08279,0.055 -0.02202,0 -0.05505,-0.035 -0.05505,-0.055 0,-0.025 0.03567,-0.04 0.01365,-0.068 0.0031,-0.02 0.04668,-0.038 0.04139,-0.068 -0.0053,-0.033 -0.04228,-0.01 -0.08279,-0.013 -0.0229,-0.01 -0.05857,-0.017 -0.08279,-0.028 0.04448,-0.03 0.09028,-0.055 0.137837,-0.083 0.0414,-0.024 0.08147,-0.046 0.123746,-0.068 0.110974,-0.056 0.229874,-0.1074 0.343932,-0.1514 m 2.367012,0.3301 c -0.01189,0 -0.01762,0.01 -0.02774,0.013 -0.02246,0.013 -0.02379,0.035 -0.04139,0.041 -0.02379,0.01 -0.05152,0.01 -0.05505,0.027 -0.0026,0.018 0.01454,0.023 0.01365,0.041 -0.0088,0.021 -0.02334,0.029 -0.02774,0.055 0.02994,0.049 0.100846,-0.01 0.137837,-0.013 0.01673,-0.01 0.03214,0 0.04139,-0.013 0.01013,-0.016 0.0057,-0.047 0.01366,-0.068 0.0083,-0.024 0.03038,-0.019 0.02774,-0.041 -0.0026,-0.023 -0.04667,-0.045 -0.08279,-0.042 m -3.220456,0.3439 c 0.02686,0.01 0.08632,0.085 0.02774,0.11 -0.0057,0.01 -0.08235,0.016 -0.09644,0.013 -0.02026,-0.01 -0.03435,-0.038 -0.05505,-0.041 -0.04051,-0.01 -0.096,0.044 -0.123745,0 0.007,-0.026 0.03788,-0.019 0.0687,-0.027 0.05505,-0.015 0.131231,-0.067 0.178791,-0.055 m 0.110094,0.1377 c 0.01365,0 0.02466,0.026 0.04139,0.028 0.01585,0 0.0317,-0.016 0.04139,-0.013 0.02466,0.01 0.03699,0.051 0.01365,0.068 -0.01938,0 -0.02686,-0.017 -0.0414,-0.013 -0.04007,0.01 -0.05285,0.085 -0.08279,0.083 -0.02818,-0.01 -0.04227,-0.062 -0.01365,-0.083 8.96e-4,-0.018 -0.01453,-0.024 -0.01365,-0.041 0.0088,-0.011 0.0317,-0.029 0.05505,-0.028 m -0.137837,0.013 c 0.0083,5e-4 0.01056,0 0.01365,0 -0.0039,0.032 -0.01717,0.04 -0.04139,0.055 -0.04183,0.025 -0.06914,0.056 -0.08279,0.11 -0.0039,0.016 -0.04888,0.059 -0.0687,0.055 -0.04667,-0.01 0.01673,-0.097 0.02774,-0.11 0.01188,-0.014 0.0273,-0.024 0.04139,-0.041 0.01321,-0.017 0.01453,-0.047 0.02774,-0.055 0.01409,-0.01 0.05812,-0.014 0.08279,-0.013 m 4.183555,0.013 c 0.02114,0.01 0.02554,0.031 0.04139,0.041 0.01189,0.01 0.02818,0.01 0.04139,0.013 0.01541,0.01 0.02379,0.026 0.04139,0.041 0.02466,0.021 0.06165,0.039 0.09644,0.055 0.007,0.01 0.01938,0.01 0.02774,0.013 0.02422,0.032 0.0458,0.065 0.0687,0.097 0.0026,0.018 0.0053,0.043 0.01365,0.055 0.0229,0.032 0.05769,0.058 0.08279,0.096 -4.39e-4,0.036 0.01585,0.058 0.04139,0.068 0.03214,0.054 0.06561,0.1092 0.09644,0.1651 0.01277,0.025 0.01542,0.057 0.02774,0.082 -0.0093,0 -0.01894,0.01 -0.02774,0 -0.02906,-0.051 -0.180112,-0.062 -0.192884,0.013 -0.0057,0.033 0.02158,0.077 -0.02774,0.083 -0.03126,0.01 -0.06738,-0.032 -0.110093,-0.041 -0.01761,-0.01 -0.04139,0.01 -0.05505,0 -0.03214,-0.011 -0.02729,-0.05 -0.05505,-0.068 -0.01585,-0.011 -0.05724,-0.024 -0.08279,-0.028 -0.01585,0 -0.02466,0 -0.04139,0 -0.01982,-0.01 -0.05196,-0.01 -0.0687,-0.013 -0.01585,-0.01 -0.05108,-0.028 -0.05505,-0.041 -0.0062,-0.021 0.03964,-0.05 0.04139,-0.068 8.97e-4,-0.013 -0.01013,-0.021 -0.01365,-0.041 -0.0022,-0.013 0.0026,-0.033 0,-0.041 -0.0044,-0.015 -0.03126,-0.027 -0.05505,-0.028 -0.02114,0 -0.03699,0.013 -0.05505,0.013 -0.02597,5e-4 -0.07794,-0.016 -0.110094,-0.013 -0.01938,0 -0.03699,0.012 -0.05505,0.013 -0.05108,0.01 -0.08411,-0.01 -0.123744,0 -0.02906,0 -0.08323,0.015 -0.110094,0.027 -0.01366,0.01 -0.02379,0.019 -0.04139,0.028 -0.008,0.01 -0.01717,0.01 -0.02774,0.013 -0.01673,0.01 -0.03919,0.023 -0.05505,0.028 -0.0229,0.01 -0.05461,0 -0.09644,0 -0.02994,0 -0.08235,-0.01 -0.08279,-0.041 -4.4e-4,-0.053 0.09996,-0.032 0.151488,-0.041 0.01938,-0.01 0.03214,-0.028 0.05505,-0.041 0.01101,-0.01 0.01717,-0.01 0.02774,-0.013 0.01761,-0.012 0.0524,-0.041 0.05505,-0.055 0.0026,-0.013 -0.01541,-0.032 -0.01365,-0.041 0.0022,-0.012 0.0251,-0.025 0.04139,-0.041 0.02465,-0.024 0.03832,-0.053 0.0687,-0.068 0.0207,-0.011 0.05945,-0.01 0.0687,-0.028 0.0022,-0.019 -4.41e-4,-0.023 0,-0.041 0.01277,-0.012 0.01673,-0.025 0.02774,-0.028 0.0317,-0.01 0.05945,0.016 0.09644,0.013 0.01585,0 0.03787,-0.01 0.05505,-0.013 0.01454,-0.01 0.0273,-0.02 0.04139,-0.027 0.01541,-0.01 0.02246,-0.026 0.04139,-0.028 0.04624,-0.01 0.0753,0.054 0.09644,0.082 0.01761,0.023 0.06737,0.052 0.09644,0.068 0.01629,0.01 0.03699,0.02 0.05505,0.027 0.03832,0.017 0.108772,0.072 0.110092,0.1101 8.97e-4,0.019 -0.01673,0.024 -0.01365,0.041 0.02906,0.01 0.05417,-0.026 0.05505,-0.055 4.41e-4,-0.018 -0.01717,-0.023 -0.01365,-0.041 0.01365,-0.029 0.06518,-0.01 0.08279,-0.013 -0.0031,-0.033 -0.05461,-0.038 -0.08279,-0.055 -0.01497,-0.01 -0.02554,-0.021 -0.04139,-0.027 -0.02291,-0.01 -0.05108,-0.014 -0.0687,-0.028 -0.01673,-0.013 -0.0251,-0.035 -0.0414,-0.055 -0.02378,-0.028 -0.06958,-0.032 -0.05505,-0.096 0.007,-0.01 0.01629,-0.031 0.02774,-0.028 m -3.881018,0.096 h 0.04139 c 0.01497,4e-4 0.03523,-0.01 0.04139,0 -0.0097,0.039 -0.09336,0.028 -0.123746,0.013 0.0018,-0.015 0.02202,-0.012 0.04139,-0.013 m -0.137837,0.068 c 0.01012,0 0.01717,-0.01 0.02774,0 -0.0273,0.023 -0.06342,0.04 -0.110093,0.055 -0.02246,0.01 -0.05108,0.011 -0.05505,-0.013 -0.0049,-0.031 0.0207,-0.024 0.04139,-0.028 0.02554,-0.01 0.06605,-0.013 0.09644,-0.013 m 3.82597,0 c -0.01894,0.01 -0.02906,0.05 0,0.055 0.01366,-0.01 0.01717,-0.03 0.01366,-0.055 -0.0075,-0.01 -0.0075,0 -0.01366,0 m -0.01365,0.083 c -0.0093,0.01 -0.01761,0.01 -0.02774,0.013 4.4e-4,0.033 0.0066,0.053 0,0.082 0.01894,0.035 0.05901,0.011 0.0687,-0.013 0.01145,-0.061 -0.01321,-0.09 -0.04139,-0.082 m 0.192884,0.165 c 0.02158,0.036 0.06209,0.061 0.110093,0.069 0.01761,-0.013 0.01938,-0.047 0.02774,-0.069 -0.0207,5e-4 -0.04271,0 -0.0687,0 -0.02598,0 -0.05373,-0.012 -0.0687,0 m -5.147095,1.1834 c 0.07222,-0.01 0.09336,0.095 0.151489,0.1238 0.01453,0.01 0.03611,0.01 0.05505,0.013 0.01541,0.01 0.02686,0.01 0.04139,0.013 0.03126,0.01 0.07134,0.01 0.09644,0.013 0.03744,0.017 0.0643,0.091 0.09644,0.11 0.0018,0.019 -0.0057,0.041 0,0.055 0.01541,0.021 0.0436,0.028 0.0687,0.041 0.02994,0.017 0.04052,0.056 0.0687,0.068 0.0097,0.01 0.02598,-0.01 0.0414,0 0.03876,0.012 0.04932,0.065 0.08279,0.055 0.02202,-0.01 0.02422,-0.035 0.02774,-0.055 0.01453,-0.016 0.03258,-0.041 0.05505,-0.041 0.03655,0 0.04183,0.033 0.05505,0.068 0.0075,0.021 0.02246,0.048 0.02774,0.068 0.0093,0.036 0.0075,0.1431 0,0.165 -0.0093,0.027 -0.04668,0.039 -0.0687,0.068 -0.01056,0.013 -0.01938,0.032 -0.02774,0.041 -0.01409,0.018 -0.03038,0.025 -0.04139,0.041 -0.0062,0.01 -0.008,0.029 -0.01365,0.042 -0.01761,0.037 -0.04228,0.065 -0.02774,0.1102 0.0062,0.019 0.0273,0.034 0.02774,0.055 0,0.025 -0.05064,0.041 -0.05505,0.068 -0.0031,0.02 0.02114,0.055 0.02774,0.082 0.0049,0.021 0.04271,0.041 0.05505,0.055 0.0207,0.023 0.03611,0.053 0.05505,0.083 0.03743,0.058 0.05989,0.1233 0.09644,0.1787 0.01894,0.029 0.05593,0.052 0.0687,0.083 0.0066,0.016 -0.0062,0.041 0,0.055 0.02114,0.048 0.11714,0.1004 0.165141,0.1238 0.02246,0.011 0.04845,0 0.0687,0.013 0.03126,0.017 0.09424,0.069 0.110093,0.096 0.01409,0.024 0.0207,0.085 0.02774,0.1237 0.0093,0.052 -0.0022,0.096 0,0.1515 0.0018,0.031 0.01321,0.052 0.01365,0.082 0,0.01 4.41e-4,0.031 0,0.041 -8.96e-4,0.037 0.0031,0.073 0,0.1101 -0.0018,0.021 -0.0013,0.038 0,0.055 0.0018,0.018 0.01232,0.025 0.01365,0.041 8.96e-4,0.017 -0.01541,0.042 -0.01365,0.055 0.0039,0.037 0.03391,0.063 0.04139,0.096 0.0057,0.027 0.01717,0.092 0.01365,0.1237 -0.0022,0.017 -0.011,0.037 -0.01365,0.055 -0.0018,0.014 0.0022,0.027 0,0.041 -0.0026,0.021 -0.01497,0.036 -0.01365,0.055 0.0026,0.039 0.03523,0.07 0.0414,0.11 0.0022,0.013 -4.41e-4,0.028 0,0.041 4.41e-4,0.012 0.01012,0.017 0.01365,0.027 -0.115818,-0.065 -0.22415,-0.1399 -0.330279,-0.22 -0.100847,-0.076 -0.19861,-0.1603 -0.288886,-0.2479 -0.0044,-0.01 -0.0093,-0.01 -0.01365,-0.013 -0.09115,-0.09 -0.182314,-0.1885 -0.261582,-0.2888 -0.0458,-0.058 -0.096,-0.1176 -0.137838,-0.1787 -0.02467,-0.036 -0.0458,-0.072 -0.0687,-0.1101 -0.01409,-0.022 -0.02774,-0.046 -0.04139,-0.068 -0.0392,-0.067 -0.07618,-0.1356 -0.110092,-0.2065 -0.02158,-0.044 -0.03567,-0.092 -0.05505,-0.1377 -0.04624,-0.1092 -0.09028,-0.2153 -0.123746,-0.3302 -0.02379,-0.081 -0.03788,-0.1633 -0.05505,-0.2478 -0.01321,-0.065 -0.03214,-0.1273 -0.04139,-0.1929 -0.0049,-0.036 -0.01012,-0.074 -0.01365,-0.1101 -0.01056,-0.1034 -0.01365,-0.2099 -0.01365,-0.3164 0,-0.133 0.01144,-0.2572 0.02774,-0.3852 4.4e-4,-0.01 -4.4e-4,-0.01 0,-0.013 0.02774,0 0.06562,-0.04 0.09644,-0.041 m 1.183726,0.3301 c 0.02818,-0.013 0.03699,0.051 0.01365,0.055 -0.02202,0.01 -0.03523,-0.045 -0.01365,-0.055"
       inkscape:connector-curvature="0"
       style="color:#000000;fill:#0000ff;fill-opacity:1;stroke-width:1" />
  </g>
</svg>
