<?xml version="1.0" encoding="UTF-8" standalone="no"?>
<!-- Created with Inkscape (http://www.inkscape.org/) -->

<svg
   xmlns:dc="http://purl.org/dc/elements/1.1/"
   xmlns:cc="http://creativecommons.org/ns#"
   xmlns:rdf="http://www.w3.org/1999/02/22-rdf-syntax-ns#"
   xmlns:svg="http://www.w3.org/2000/svg"
   xmlns="http://www.w3.org/2000/svg"
   xmlns:sodipodi="http://sodipodi.sourceforge.net/DTD/sodipodi-0.dtd"
   xmlns:inkscape="http://www.inkscape.org/namespaces/inkscape"
   width="16"
   height="16"
   id="svg3049"
   version="1.1"
   inkscape:version="0.91 r13725"
   sodipodi:docname="db-blue.svg"
   inkscape:export-filename="/home/uri/.kde/share/icons/NITRUX-KDE/16x16/actions/view-right-new.png"
   inkscape:export-xdpi="30"
   inkscape:export-ydpi="30">
  <defs
     id="defs3051" />
  <sodipodi:namedview
     id="base"
     pagecolor="#ffffff"
     bordercolor="#666666"
     borderopacity="1.0"
     inkscape:pageopacity="0.0"
     inkscape:pageshadow="2"
     inkscape:zoom="34.5228"
     inkscape:cx="14.744218"
     inkscape:cy="-4.805707"
     inkscape:document-units="px"
     inkscape:current-layer="layer1"
     showgrid="true"
     fit-margin-top="0"
     fit-margin-left="0"
     fit-margin-right="0"
     fit-margin-bottom="0"
     inkscape:window-width="1920"
     inkscape:window-height="1051"
     inkscape:window-x="1366"
     inkscape:window-y="0"
     inkscape:window-maximized="1"
     inkscape:showpageshadow="false"
     borderlayer="true"
     inkscape:snap-bbox="true"
     inkscape:snap-global="true">
    <inkscape:grid
       type="xygrid"
       id="grid4085" />
    <sodipodi:guide
       position="2.0000044,14.00003"
       orientation="12,0"
       id="guide4075" />
    <sodipodi:guide
       position="2.0000044,2.0000296"
       orientation="0,12"
       id="guide4077" />
    <sodipodi:guide
       position="14.000004,2.0000296"
       orientation="-12,0"
       id="guide4079" />
    <sodipodi:guide
       position="14.000004,14.00003"
       orientation="0,-12"
       id="guide4081" />
  </sodipodi:namedview>
  <metadata
     id="metadata3054">
    <rdf:RDF>
      <cc:Work
         rdf:about="">
        <dc:format>image/svg+xml</dc:format>
        <dc:type
           rdf:resource="http://purl.org/dc/dcmitype/StillImage" />
        <dc:title />
      </cc:Work>
    </rdf:RDF>
  </metadata>
  <g
     inkscape:label="Capa 1"
     inkscape:groupmode="layer"
     id="layer1"
     transform="translate(-421.71429,-531.79074)">
    <path
       inkscape:connector-curvature="0"
       style="fill:#0044aa;fill-opacity:1;stroke:none"
       d="m 429.71429,533.79071 a 6,2 0 0 0 -6,2 l 0,8 a 6,2 0 0 0 6,2 6,2 0 0 0 6,-2 l 0,-8 a 6,2 0 0 0 -6,-2 z m 0,1 a 5,1 0 0 1 5,1 5,1 0 0 1 -5,1 5,1 0 0 1 -5,-1 5,1 0 0 1 5,-1 z m -5,2.10156 a 6,2 0 0 0 5,0.89844 6,2 0 0 0 5,-0.89648 l 0,2.89648 a 5,1 0 0 1 -5,1 5,1 0 0 1 -5,-1 l 0,-2.89844 z m 0,4 a 6,2 0 0 0 5,0.89844 6,2 0 0 0 5,-0.89648 l 0,2.89648 a 5,1 0 0 1 -5,1 5,1 0 0 1 -5,-1 l 0,-2.89844 z"
       id="path4140" />
    <path
       style="opacity:1;fill:#0044aa;fill-opacity:1;stroke:none"
       d="M 12.907501,8.9407135 C 11.796984,9.4253543 10.592322,9.6401585 9.4087815,9.7432946 8.3008556,9.7776981 7.1805079,9.8102649 6.0817698,9.6952104 5.0739071,9.5629344 4.0427334,9.3623887 3.0958328,8.9407135 c -0.2994417,-0.03967 -0.2999642,0.2971823 -0.28504,0.5030134 -0.00237,0.8961651 -0.022253,1.7982091 0.00714,2.6905831 0.1593836,0.316869 0.5402803,0.467838 0.86645,0.573549 1.5210674,0.433509 3.1151267,0.491261 4.687087,0.467419 1.3816553,-0.0026 2.7882877,-0.09796 4.1087837,-0.530887 0.318766,-0.109956 0.721296,-0.312707 0.702322,-0.708459 0.02746,-0.935588 0.02196,-1.873039 -8e-5,-2.8086374 -0.02143,-0.1281427 -0.151817,-0.2047013 -0.274991,-0.1865811 z"
       id="path4169"
       inkscape:connector-curvature="0"
       transform="translate(421.71429,531.79074)" />
  </g>
</svg>
