<?xml version="1.0" encoding="UTF-8" standalone="no"?>
<!-- Created with Inkscape (http://www.inkscape.org/) -->

<svg
   xmlns:dc="http://purl.org/dc/elements/1.1/"
   xmlns:cc="http://creativecommons.org/ns#"
   xmlns:rdf="http://www.w3.org/1999/02/22-rdf-syntax-ns#"
   xmlns:svg="http://www.w3.org/2000/svg"
   xmlns="http://www.w3.org/2000/svg"
   xmlns:sodipodi="http://sodipodi.sourceforge.net/DTD/sodipodi-0.dtd"
   xmlns:inkscape="http://www.inkscape.org/namespaces/inkscape"
   width="16"
   height="16"
   id="svg3049"
   version="1.1"
   inkscape:version="0.91 r13725"
   sodipodi:docname="db-red.svg"
   inkscape:export-filename="/home/uri/.kde/share/icons/NITRUX-KDE/16x16/actions/view-right-new.png"
   inkscape:export-xdpi="30"
   inkscape:export-ydpi="30">
  <defs
     id="defs3051" />
  <sodipodi:namedview
     id="base"
     pagecolor="#ffffff"
     bordercolor="#666666"
     borderopacity="1.0"
     inkscape:pageopacity="0.0"
     inkscape:pageshadow="2"
     inkscape:zoom="48.822612"
     inkscape:cx="-0.65267458"
     inkscape:cy="7.7502634"
     inkscape:document-units="px"
     inkscape:current-layer="layer1"
     showgrid="true"
     fit-margin-top="0"
     fit-margin-left="0"
     fit-margin-right="0"
     fit-margin-bottom="0"
     inkscape:window-width="1920"
     inkscape:window-height="1051"
     inkscape:window-x="1366"
     inkscape:window-y="0"
     inkscape:window-maximized="1"
     inkscape:showpageshadow="false"
     borderlayer="true"
     inkscape:snap-bbox="true"
     inkscape:snap-global="true">
    <inkscape:grid
       type="xygrid"
       id="grid4085" />
    <sodipodi:guide
       position="2.0000044,14.00003"
       orientation="12,0"
       id="guide4075" />
    <sodipodi:guide
       position="2.0000044,2.0000296"
       orientation="0,12"
       id="guide4077" />
    <sodipodi:guide
       position="14.000004,2.0000296"
       orientation="-12,0"
       id="guide4079" />
    <sodipodi:guide
       position="14.000004,14.00003"
       orientation="0,-12"
       id="guide4081" />
  </sodipodi:namedview>
  <metadata
     id="metadata3054">
    <rdf:RDF>
      <cc:Work
         rdf:about="">
        <dc:format>image/svg+xml</dc:format>
        <dc:type
           rdf:resource="http://purl.org/dc/dcmitype/StillImage" />
        <dc:title />
      </cc:Work>
    </rdf:RDF>
  </metadata>
  <g
     inkscape:label="Capa 1"
     inkscape:groupmode="layer"
     id="layer1"
     transform="translate(-421.71429,-531.79074)">
    <path
       inkscape:connector-curvature="0"
       style="fill:#d40000;fill-opacity:1;stroke:none"
       d="m 429.71429,533.79071 a 6,2 0 0 0 -6,2 l 0,8 a 6,2 0 0 0 6,2 6,2 0 0 0 6,-2 l 0,-8 a 6,2 0 0 0 -6,-2 z m 0,1 a 5,1 0 0 1 5,1 5,1 0 0 1 -5,1 5,1 0 0 1 -5,-1 5,1 0 0 1 5,-1 z m -5,2.10156 a 6,2 0 0 0 5,0.89844 6,2 0 0 0 5,-0.89648 l 0,2.89648 a 5,1 0 0 1 -5,1 5,1 0 0 1 -5,-1 l 0,-2.89844 z m 0,4 a 6,2 0 0 0 5,0.89844 6,2 0 0 0 5,-0.89648 l 0,2.89648 a 5,1 0 0 1 -5,1 5,1 0 0 1 -5,-1 l 0,-2.89844 z"
       id="path4140" />
    <path
       style="opacity:0.98999999;fill:#d40000;fill-opacity:1;stroke:none"
       d="m 2.9292258,9.0403939 c -0.068481,0.1719495 -0.014121,0.3695534 -0.031458,0.5521423 0.00825,0.7994828 -0.017354,1.5998668 0.015169,2.3987928 6.264e-4,0.146828 0.064744,0.297534 0.2057506,0.359879 0.5007852,0.312271 1.0956015,0.417446 1.6671483,0.524019 1.534359,0.242552 3.0967467,0.27926 4.6458844,0.192381 0.9877681,-0.07012 1.9873311,-0.16303 2.9340111,-0.469732 0.250778,-0.09593 0.536043,-0.196145 0.689878,-0.430089 0.08587,-0.274237 0.04159,-0.570249 0.05681,-0.853416 -0.0037,-0.735953 0.0087,-1.4747371 -0.0063,-2.2088952 C 13.064922,8.9375279 12.875359,9.0381372 12.775594,9.0893284 11.763145,9.5296879 10.664207,9.700754 9.5793429,9.8177867 8.7859804,9.8936892 7.9876087,9.8825599 7.1927316,9.8695969 6.0592207,9.8105888 4.9237178,9.6676661 3.8352081,9.3196654 3.5600075,9.2362049 3.2988682,9.1158936 3.0317564,9.0085693 2.9914118,8.9914319 2.9636726,9.025483 2.9292258,9.0403939 Z"
       id="path4139"
       inkscape:connector-curvature="0"
       transform="translate(421.71429,531.79074)" />
  </g>
</svg>
