<?xml version="1.0" encoding="UTF-8" standalone="no"?>
<!-- Created with Inkscape (http://www.inkscape.org/) -->

<svg
   xmlns:osb="http://www.openswatchbook.org/uri/2009/osb"
   xmlns:dc="http://purl.org/dc/elements/1.1/"
   xmlns:cc="http://creativecommons.org/ns#"
   xmlns:rdf="http://www.w3.org/1999/02/22-rdf-syntax-ns#"
   xmlns:svg="http://www.w3.org/2000/svg"
   xmlns="http://www.w3.org/2000/svg"
   xmlns:sodipodi="http://sodipodi.sourceforge.net/DTD/sodipodi-0.dtd"
   xmlns:inkscape="http://www.inkscape.org/namespaces/inkscape"
   width="16"
   height="16"
   id="svg3049"
   version="1.1"
   inkscape:version="0.91 r13725"
   sodipodi:docname="sc_formattedfield_web.svg"
   inkscape:export-filename="/home/uri/.kde/share/icons/NITRUX-KDE/16x16/actions/view-right-new.png"
   inkscape:export-xdpi="30"
   inkscape:export-ydpi="30">
  <defs
     id="defs3051">
    <linearGradient
       id="linearGradient4157"
       osb:paint="solid">
      <stop
         style="stop-color:#004af7;stop-opacity:1;"
         offset="0"
         id="stop4159" />
    </linearGradient>
  </defs>
  <sodipodi:namedview
     id="base"
     pagecolor="#ffffff"
     bordercolor="#666666"
     borderopacity="1.0"
     inkscape:pageopacity="0.0"
     inkscape:pageshadow="2"
     inkscape:zoom="45.254834"
     inkscape:cx="6.5539834"
     inkscape:cy="8.2432369"
     inkscape:document-units="px"
     inkscape:current-layer="layer1"
     showgrid="true"
     fit-margin-top="0"
     fit-margin-left="0"
     fit-margin-right="0"
     fit-margin-bottom="0"
     inkscape:window-width="1920"
     inkscape:window-height="1051"
     inkscape:window-x="1366"
     inkscape:window-y="0"
     inkscape:window-maximized="1"
     inkscape:showpageshadow="false"
     borderlayer="true"
     inkscape:snap-bbox="true"
     inkscape:snap-global="true">
    <inkscape:grid
       type="xygrid"
       id="grid4085" />
    <sodipodi:guide
       position="2.0000044,14.00003"
       orientation="12,0"
       id="guide4075" />
    <sodipodi:guide
       position="2.0000044,2.0000296"
       orientation="0,12"
       id="guide4077" />
    <sodipodi:guide
       position="14,9"
       orientation="-12,0"
       id="guide4079" />
    <sodipodi:guide
       position="14.000004,14.00003"
       orientation="0,-12"
       id="guide4081" />
  </sodipodi:namedview>
  <metadata
     id="metadata3054">
    <rdf:RDF>
      <cc:Work
         rdf:about="">
        <dc:format>image/svg+xml</dc:format>
        <dc:type
           rdf:resource="http://purl.org/dc/dcmitype/StillImage" />
        <dc:title></dc:title>
      </cc:Work>
    </rdf:RDF>
  </metadata>
  <g
     inkscape:label="Capa 1"
     inkscape:groupmode="layer"
     id="layer1"
     transform="translate(-421.71429,-531.79074)">
    <rect
       style="opacity:0.98999999;fill:#f9f9f9;fill-opacity:1;stroke:none"
       id="rect4139"
       width="16"
       height="16"
       x="421.71429"
       y="531.79071"
       ry="1.0000296" />
    <path
       style="font-size:13px;font-style:normal;font-variant:normal;font-weight:normal;font-stretch:normal;line-height:125%;letter-spacing:0px;word-spacing:0px;fill:#4d4d4d;fill-opacity:1;stroke:none;font-family:Oxygen;-inkscape-font-specification:Oxygen"
       d="M 7.5 2 L 7.5 3.125 C 6.657105 3.2031674 5.9928939 3.4158583 5.5 3.8125 C 4.95761 4.2447 4.6875 4.88402 4.6875 5.71875 C 4.6875 6.88402 5.38454 7.63984 6.8125 8 L 7.5 8.1875 L 7.5 11.875 C 6.6128298 11.795706 5.7812569 11.601634 5 11.21875 L 4.65625 12.125 C 4.97403 12.31991 5.40785 12.5037 5.9375 12.65625 C 6.4023232 12.785363 6.9259807 12.84223 7.5 12.875 L 7.5 14 L 7.75 14 L 8.34375 14 L 8.5 14 L 8.5 12.875 C 9.349811 12.806571 10.03337 12.547817 10.53125 12.09375 C 11.06515 11.61071 11.34374 10.91102 11.34375 10 C 11.34374 9.26271 11.14405 8.7108 10.75 8.3125 C 10.35592 7.90995 9.7627 7.61971 9 7.4375 L 8.5 7.3125 L 8.5 4.0625 C 8.8855531 4.0914438 9.28709 4.1455968 9.65625 4.25 C 10.07998 4.36442 10.39776 4.51219 10.65625 4.65625 L 10.96875 3.75 C 10.328483 3.3513511 9.507613 3.1129214 8.5 3.0625 L 8.5 2 L 8.34375 2 L 7.75 2 L 7.5 2 z M 7.28125 4.09375 C 7.3467078 4.0827676 7.4301976 4.1016886 7.5 4.09375 L 7.5 7.0625 L 7.21875 7 C 6.74841 6.8856 6.39353 6.71611 6.15625 6.5 C 5.9232 6.27967 5.81249 5.98518 5.8125 5.625 C 5.8124912 4.76855 6.2950199 4.2592177 7.28125 4.09375 z M 8.5 8.40625 L 8.6875 8.46875 C 9.26376 8.61282 9.65889 8.80827 9.875 9.0625 C 10.09534 9.31251 10.18749 9.65573 10.1875 10.0625 C 10.18749 11.19556 9.6245633 11.797264 8.5 11.90625 L 8.5 8.40625 z "
       transform="translate(421.71429,531.79074)"
       id="path2993" />
    <path
       id="path3011"
       d="m 433.02563,540.50264 c -0.13792,0 -0.27151,0.0118 -0.40552,0.0273 -0.13143,0.0156 -0.26545,0.0376 -0.39169,0.0673 -0.0406,0.009 -0.08,0.0289 -0.12147,0.0406 -0.0363,0.009 -0.0723,0.0161 -0.10807,0.0273 -0.0454,0.0143 -0.0925,0.0255 -0.1353,0.0406 -0.0463,0.0164 -0.0895,0.0358 -0.13533,0.0541 -0.089,0.0358 -0.17163,0.0788 -0.2568,0.12144 -0.0307,0.0156 -0.0645,0.0242 -0.0947,0.0406 -0.0994,0.0523 -0.19064,0.11374 -0.28359,0.17546 -0.0354,0.0239 -0.0736,0.0424 -0.10807,0.0673 -0.0143,0.0106 -0.0265,0.0164 -0.0406,0.0272 -0.0406,0.0308 -0.0826,0.0613 -0.12149,0.0947 -0.0463,0.0385 -0.0907,0.0808 -0.13531,0.12145 -0.0138,0.013 -0.0268,0.0276 -0.0406,0.0406 -0.005,0.005 -0.008,0.008 -0.0135,0.0135 -0.006,0.006 -0.006,0.0203 -0.0135,0.0273 -0.0907,0.0882 -0.18979,0.17244 -0.27021,0.27011 -0.002,0.005 0.002,0.0106 0,0.0135 -0.0783,0.0951 -0.14829,0.19361 -0.21617,0.29734 -0.008,0.0138 -0.0182,0.0263 -0.0272,0.0406 -0.006,0.0106 -0.0203,0.0161 -0.0272,0.0273 -0.026,0.0423 -0.0436,0.0903 -0.0674,0.13529 -0.007,0.0143 -0.0195,0.0265 -0.0273,0.0406 -0.0324,0.0632 -0.0648,0.12531 -0.0946,0.1893 -0.002,0.005 0.002,0.009 0,0.0135 -0.0505,0.10925 -0.0959,0.22208 -0.13531,0.33747 -0.008,0.0229 -0.0195,0.0445 -0.0273,0.0674 -10e-4,0.005 0.001,0.009 0,0.0135 -0.008,0.0268 -0.019,0.0541 -0.0272,0.0814 -0.0315,0.11102 -0.0606,0.22211 -0.0813,0.3375 -0.0148,0.0829 -0.032,0.17158 -0.0406,0.25675 -0.0118,0.11445 -0.0135,0.23422 -0.0135,0.35131 0,0.1746 0.0156,0.34572 0.0406,0.51344 0.002,0.0177 -0.004,0.0367 0,0.0541 0.019,0.11491 0.051,0.2269 0.0813,0.33756 0.0118,0.0415 0.0278,0.0803 0.0406,0.12144 0.0174,0.0557 0.0341,0.10772 0.054,0.16206 0.0333,0.0917 0.0674,0.18238 0.10807,0.27006 0.0216,0.0458 0.044,0.0907 0.0674,0.13529 0.0658,0.12621 0.13618,0.24848 0.21616,0.36475 0.007,0.0106 0.02,0.0169 0.0272,0.0273 0.0855,0.12146 0.17033,0.24201 0.27021,0.35135 0.0174,0.019 0.0363,0.0354 0.054,0.054 0.0174,0.0182 0.0362,0.0363 0.0541,0.0541 0.0925,0.0925 0.19498,0.17502 0.29744,0.25675 0.13229,0.10535 0.27192,0.19833 0.41892,0.28347 0.006,0.005 0.008,0.0106 0.0135,0.0135 0.0229,0.013 0.0445,0.028 0.0674,0.0406 0.1366,0.0674 0.29917,0.14048 0.40552,0.18929 0.0475,0.0182 0.0998,0.0246 0.14872,0.0406 0.0229,0.007 0.0445,0.02 0.0674,0.0273 0.0588,0.0177 0.11586,0.0389 0.17552,0.0541 0.0182,0.005 0.0358,0.008 0.0541,0.0135 0.12623,0.0298 0.26026,0.0523 0.39167,0.0673 0.13359,0.0156 0.26717,0.0273 0.40552,0.0273 0.147,0 0.29009,-0.008 0.43232,-0.0273 0.1578,-0.0208 0.2944,-0.0536 0.43231,-0.0813 0.73409,-0.18843 1.36701,-0.61453 1.82397,-1.18847 0.0122,-0.0151 0.0289,-0.0252 0.0406,-0.0406 0.005,-0.006 0.009,-0.008 0.0135,-0.0135 0.007,-0.007 0.007,-0.019 0.0135,-0.0272 0.26933,-0.35654 0.4656,-0.76968 0.58104,-1.21571 0.0242,-0.0938 0.051,-0.1867 0.0674,-0.28351 0.002,-0.013 -0.002,-0.0272 0,-0.0406 0.002,-0.0174 0.0106,-0.0341 0.0135,-0.054 0.002,-0.0187 0.0118,-0.0354 0.0135,-0.0541 l -0.0135,0 c 0.019,-0.14222 0.0406,-0.28482 0.0406,-0.4322 0,-0.23854 -0.0216,-0.47709 -0.0674,-0.70226 -0.005,-0.0187 -0.009,-0.0354 -0.0135,-0.0541 -0.02,-0.0899 -0.0536,-0.18284 -0.0814,-0.27015 -10e-4,-0.005 0.001,-0.009 0,-0.0135 -0.006,-0.0164 -0.007,-0.0242 -0.0135,-0.0406 -0.0169,-0.0515 -0.035,-0.11149 -0.0541,-0.16205 -0.006,-0.0138 -0.007,-0.0276 -0.0135,-0.0406 -0.0187,-0.0471 -0.0466,-0.0891 -0.0674,-0.13525 -8.6e-4,0 8.6e-4,-0.0118 0,-0.0135 -0.0106,-0.0234 -0.0294,-0.0445 -0.0406,-0.0673 -0.0423,-0.0878 -0.0855,-0.17287 -0.1353,-0.2567 -0.0252,-0.0424 -0.0406,-0.0938 -0.0674,-0.1353 -0.0106,-0.0156 -0.0299,-0.0251 -0.0406,-0.0406 -0.0289,-0.0428 -0.0635,-0.0801 -0.0946,-0.12145 -0.0346,-0.0432 -0.0606,-0.0933 -0.0947,-0.13529 -0.002,-0.005 0.002,-0.0106 0,-0.0135 -0.0743,-0.0904 -0.15995,-0.17416 -0.24339,-0.2567 -0.0402,-0.0397 -0.0795,-0.0839 -0.12148,-0.12145 -0.0122,-0.0106 -0.0281,-0.0164 -0.0406,-0.0272 -0.0904,-0.0787 -0.18588,-0.14693 -0.28359,-0.21602 -0.0239,-0.0164 -0.0437,-0.038 -0.0674,-0.0541 -0.0302,-0.02 -0.064,-0.035 -0.0946,-0.0541 -0.0584,-0.0362 -0.11504,-0.0752 -0.17553,-0.10806 -0.0531,-0.0291 -0.10724,-0.0549 -0.16212,-0.0813 -0.0925,-0.044 -0.18676,-0.0855 -0.2836,-0.12145 -0.11504,-0.0428 -0.23085,-0.0777 -0.35146,-0.10806 -0.10595,-0.0267 -0.21487,-0.051 -0.32425,-0.0673 -0.17163,-0.0265 -0.34803,-0.0406 -0.527,-0.0406 m 0,0.43219 c 0.12926,0 0.25291,0.0118 0.37828,0.0273 0.0778,0.009 0.15348,0.025 0.22955,0.0406 0.005,0 0.008,0 0.0135,0 0.0718,0.0151 0.14612,0.0341 0.21615,0.0541 0.0414,0.0118 0.0808,0.0272 0.1215,0.0406 0.0743,0.0247 0.14438,0.0505 0.21615,0.0812 0.0839,0.0346 0.16385,0.066 0.2434,0.10795 -0.0135,0.005 -0.0272,0.008 -0.0406,0.0135 -0.0203,0.007 -0.0489,0.0415 -0.0541,0.0541 -0.008,0.0208 0.002,0.0497 0,0.0814 0.0164,0.007 0.026,0.0385 0.0541,0.0541 0.0106,0.007 0.0177,-0.005 0.0272,0 0.0164,0.008 0.0304,0.0376 0.0272,0.0541 -0.005,0.0239 -0.038,0.009 -0.0541,0.0272 0.002,0.0337 -0.0187,0.0454 -0.0273,0.0673 0.006,0.0143 0.0247,0.0106 0.0273,0.0272 -0.004,0.0187 -0.0341,0.0213 -0.0273,0.0406 0.0311,0.0242 0.0653,-0.009 0.0947,-0.0135 0.0645,-0.008 0.12235,0.0177 0.16211,-0.0135 -0.006,-0.0307 0.0436,-0.0397 0.0406,-0.0673 -0.002,-0.0208 -0.0388,-0.0265 -0.0541,-0.0406 -0.008,-0.007 -0.0174,-0.0255 -0.0273,-0.0406 -0.0118,-0.0174 -0.0276,-0.0376 -0.0406,-0.0541 -0.0169,-0.0226 -0.054,-0.0505 -0.054,-0.0673 4.2e-4,-0.0195 0.0226,-0.0272 0.0273,-0.0541 -0.006,-0.0246 -0.0505,0 -0.054,-0.0273 8.7e-4,-0.008 0.008,-0.0221 0.0135,-0.0272 0.0648,0.0354 0.12882,0.0774 0.18935,0.12146 0.0138,0.008 0.0267,0.0177 0.0406,0.0272 0.0467,0.035 0.0894,0.0736 0.13532,0.10807 -0.0289,0.006 -0.0437,0.0389 -0.0674,0.0674 -0.0164,0.02 -0.0428,0.0437 -0.0674,0.0541 -0.0122,0.006 -0.0294,-0.006 -0.0406,0 -0.0161,0.0106 -0.0221,0.0415 -0.0406,0.0541 -0.0135,0.008 -0.0536,0.0406 -0.0674,0.0406 -0.0164,4.4e-4 -0.0423,-0.0174 -0.0541,-0.0135 -0.0174,0.006 -0.007,0.0333 -0.0272,0.0406 -0.038,0.0135 -0.10807,-0.0299 -0.12149,0.0272 0.0164,0.0328 0.0661,0.0221 0.0946,0.0406 0.0182,0.0118 0.0493,0.0619 0.0541,0.0813 0.005,0.0164 0.006,0.0775 0,0.0946 -0.0177,0.0458 -0.0687,0.0419 -0.12148,0.0406 -0.0148,-4.4e-4 -0.0273,0 -0.0406,0 -0.0894,-0.006 -0.17597,-0.0367 -0.21617,0.0272 0.004,0.0489 0.0106,0.079 0,0.12143 -0.007,0.0311 -0.0419,0.054 -0.0406,0.0814 8.6e-4,0.0138 0.0239,0.0354 0.0272,0.0541 0.002,0.009 -0.005,0.0315 0,0.0406 0.0148,0.0285 0.0549,-0.005 0.0813,0 0.0255,0.005 0.0544,0.0523 0.0541,0.0813 -4.3e-4,0.02 -0.0143,0.0484 -0.0272,0.0674 -0.025,0.0385 -0.0723,0.0332 -0.10807,0.054 -0.0302,0.0169 -0.0363,0.0515 -0.0541,0.0813 -0.019,0.0319 -0.035,0.048 -0.0272,0.0946 -0.026,0.051 -0.0544,0.0839 -0.10806,0.10807 -0.0161,0.007 -0.0398,0.0169 -0.0541,0.0272 -0.0118,0.008 -0.0242,0.0221 -0.0406,0.0406 -0.0203,0.0226 -0.0432,0.0367 -0.0541,0.054 -0.008,0.0135 -0.005,0.0363 -0.0135,0.0541 -0.0125,0.0242 -0.038,0.0432 -0.0541,0.0673 -0.007,0.0118 -0.0187,0.0255 -0.0272,0.0406 -0.0182,0.0333 -0.0437,0.0652 -0.0406,0.0947 0.004,0.0285 0.0384,0.0294 0.0406,0.0541 0.002,0.0138 -0.0143,0.0255 -0.0135,0.0406 4.4e-4,0.0221 0.0118,0.0371 0.0135,0.0541 0.005,0.0427 -0.019,0.0518 -0.0272,0.0814 -0.005,0.0138 0.004,0.0294 0,0.0406 -0.007,0.0216 -0.0402,0.0423 -0.0406,0.0674 -4.4e-4,0.0182 0.0255,0.0419 0.0272,0.0673 8.7e-4,0.0174 -0.0164,0.0247 -0.0135,0.0406 0.006,0.0315 0.07,0.07 0.0946,0.0947 0.0324,0.0324 0.0671,0.0601 0.0813,0.0946 0.0118,0.0289 0.0177,0.0725 0.0406,0.0946 0.0169,0.0161 0.0458,0.0234 0.0674,0.0406 0.0203,0.0156 0.0462,0.0237 0.0674,0.0406 0.035,0.0278 0.0791,0.0852 0.1353,0.0813 0.0295,-0.005 0.0614,-0.0216 0.0947,-0.0272 0.0341,-0.006 0.0736,-0.0169 0.10807,-0.0135 0.0264,0.005 0.0536,0.0285 0.0812,0.0272 0.0289,0 0.0618,-0.0263 0.0946,-0.0406 0.057,-0.0247 0.14654,-0.0661 0.22955,-0.0541 0.0632,0.008 0.0645,0.0938 0.10806,0.12146 0.051,0.005 0.0946,-0.0234 0.13532,-0.0135 0.0302,0.007 0.0645,0.057 0.0674,0.0813 0.004,0.025 -0.0234,0.0523 -0.0272,0.0673 -0.007,0.0337 -0.007,0.0731 -0.0135,0.0947 -0.005,0.0164 -0.0138,0.0372 -0.0135,0.054 0,0.0151 0.0252,0.0614 0.0406,0.0813 0.019,0.0242 0.0445,0.0415 0.0674,0.0673 0.0376,0.0471 0.0671,0.10204 0.0946,0.1621 0.007,0.0161 -0.006,0.0333 0,0.0541 -0.0125,0.0969 -0.0445,0.16297 -0.10806,0.27011 -0.0299,0.0346 -0.0684,0.0648 -0.0674,0.10807 -0.002,0.10381 0.0588,0.16984 0.0541,0.2701 -0.0106,0.13481 0.0106,0.1439 0,0.21606 0.0453,0.0229 0.0135,0.10074 0,0.1487 -0.0195,0.057 -0.0432,0.0699 -0.0541,0.10806 0.0307,0.0135 0.0739,0.008 0.10807,0 0,0 0.0414,0.17329 0.0406,0.17546 -0.34888,0.34447 -0.78639,0.59987 -1.27014,0.7429 -0.23779,0.0575 -0.30825,0.0575 -0.41894,0.0813 -0.14438,0.0239 -0.29526,0.0406 -0.44572,0.0406 -0.105,0 -0.2088,-0.005 -0.31083,-0.0135 -0.0787,-0.007 -0.15304,-0.0268 -0.22956,-0.0406 -0.0229,-0.005 -0.045,-0.008 -0.0674,-0.0135 -0.0705,-0.0239 -0.15175,-0.038 -0.21616,-0.0541 -0.0736,-0.0208 -0.14483,-0.0415 -0.21616,-0.0674 0.006,-0.006 0.0118,-0.005 0.0135,-0.0135 0.005,-0.0174 8.7e-4,-0.0268 0,-0.054 0.006,-0.0281 0.0345,-0.025 0.0406,-0.0541 -0.0122,-0.0208 -0.0358,-0.0164 -0.0541,-0.0273 -0.0177,-0.0106 -0.0294,-0.032 -0.0273,-0.0541 0.0302,-0.0125 0.0864,0.0285 0.10807,-0.0135 0.0106,-0.02 -0.0148,-0.0609 0,-0.0813 0.009,-0.0135 0.0731,-0.0239 0.0946,-0.0273 0.0306,-0.006 0.064,-0.005 0.0813,-0.0135 0.019,-0.0125 0.0436,-0.0453 0.0406,-0.0814 -0.002,-0.0169 -0.0143,-0.0255 -0.0272,-0.0406 -0.0106,-0.0125 -0.006,-0.0285 -0.0135,-0.0406 -0.0135,-0.0203 -0.0346,-0.0252 -0.0406,-0.054 0.0414,-0.008 0.10204,0.044 0.16212,0.0273 0.0285,-0.008 0.0679,-0.0814 0.0813,-0.10807 0.005,-0.008 -0.005,-0.0174 0,-0.0273 0.006,-0.0118 0.0255,-0.0213 0.0272,-0.0272 0.005,-0.0156 -0.004,-0.0306 0,-0.0406 0.0106,-0.0293 0.0367,-0.0324 0.0541,-0.0541 0.013,-0.0164 0.028,-0.0376 0.0406,-0.054 0.0135,-0.0177 0.0182,-0.0385 0.0273,-0.0541 0.008,-0.0528 -0.026,-0.089 -0.0135,-0.13525 0.0138,-0.0518 0.0847,-0.0713 0.13532,-0.0947 0.0174,-0.008 0.0397,-0.0216 0.0541,-0.0273 0.0345,-0.0122 0.0762,-0.0156 0.10807,-0.0273 0.0541,-0.02 0.0679,-0.0722 0.0946,-0.12145 0.0125,-0.0234 0.0247,-0.051 0.0272,-0.0673 0.002,-0.0151 -0.004,-0.0229 0,-0.0406 0.002,-0.0174 0.008,-0.035 0.0135,-0.054 0.006,-0.025 0.0135,-0.0665 0.0135,-0.0947 0,-0.0229 -0.0125,-0.0337 -0.0135,-0.054 -0.005,-0.0749 0.0265,-0.0942 0.0541,-0.13529 0.0138,-0.0203 0.0174,-0.0393 0.0272,-0.0541 0.0466,-0.0696 0.12754,-0.0977 0.12148,-0.2027 -0.002,-0.0346 -0.0151,-0.11054 -0.0406,-0.1214 -0.0148,-0.007 -0.0462,-0.005 -0.0674,-0.0135 -0.0684,-0.0255 -0.11846,-0.11634 -0.18937,-0.12146 -0.0151,0 -0.0239,0.0135 -0.0406,0.0135 -0.0281,0 -0.0635,-0.0229 -0.0947,-0.0272 -0.02,-0.005 -0.0557,0.006 -0.0674,0 -0.0182,-0.008 -0.0125,-0.0441 -0.0272,-0.0541 -0.0118,-0.007 -0.0363,-0.006 -0.0541,-0.0135 -0.0285,-0.0106 -0.0484,-0.0242 -0.0813,-0.0272 -0.009,-4.4e-4 -0.0289,0 -0.0406,0 -0.0182,-0.005 -0.0372,-0.0174 -0.0541,-0.0273 -0.0208,-0.0125 -0.0319,-0.0226 -0.0406,-0.0406 0.019,-0.0622 -0.0415,-0.0722 -0.0541,-0.10806 -0.006,-0.0169 0.006,-0.0389 0,-0.0541 -0.007,-0.0216 -0.0307,-0.0362 -0.0541,-0.0541 -0.0419,-0.032 -0.0752,-0.0601 -0.13531,-0.0673 -0.0265,-0.005 -0.0627,0 -0.0947,0 -0.0337,-0.005 -0.0697,-0.0252 -0.0946,-0.0541 -0.0242,-0.028 -0.0328,-0.0541 -0.0541,-0.0673 -0.0203,-0.013 -0.0536,-0.0135 -0.0674,-0.0273 -0.006,-0.006 -0.007,-0.0135 -0.0135,-0.0272 -0.009,-0.0208 -0.0265,-0.0423 -0.0135,-0.0674 -0.0229,-0.0118 -0.0151,0.0311 -0.0406,0.0272 -0.0226,-0.032 -0.0437,-0.0497 -0.0947,-0.0406 -0.0234,0.005 -0.0402,0.0259 -0.0674,0.0272 -0.0226,0 -0.038,-0.0229 -0.0674,-0.0272 -0.0226,-0.005 -0.0519,0.0156 -0.0674,0.0135 -0.0247,-0.005 -0.0316,-0.0255 -0.0541,-0.0406 -0.0164,-0.0106 -0.0449,-0.0411 -0.054,-0.0406 -0.0289,0 -0.0544,0.0619 -0.0947,0.0406 -0.0195,-0.0247 0.0367,-0.0308 0.0135,-0.0541 -0.0174,-0.0177 -0.0265,0.005 -0.0406,0.0135 -0.0161,0.0106 -0.0363,0.0203 -0.0541,0.0272 -0.0398,0.0148 -0.0635,0.0106 -0.0947,0.0273 -0.0285,0.0148 -0.0376,0.038 -0.054,0.0674 -0.0135,0.0241 -0.0341,0.066 -0.0541,0.0673 -0.0242,0 -0.0458,-0.0311 -0.0674,-0.0406 -0.0661,-0.0285 -0.10724,0.013 -0.16211,0.0135 -0.051,0 -0.12409,-0.0738 -0.12149,-0.1214 0.002,-0.0289 0.0233,-0.0718 0.0272,-0.10807 0.002,-0.0285 0.0267,-0.0549 0.0272,-0.0813 4.4e-4,-0.035 -0.0583,-0.0635 -0.0814,-0.0674 -0.0541,-0.009 -0.12754,0.0265 -0.18935,0 -0.0118,-0.0195 0.0203,-0.035 0.0272,-0.054 0.005,-0.0106 -0.005,-0.0148 0,-0.0273 0.007,-0.0182 0.032,-0.0346 0.0406,-0.0541 0.006,-0.0148 0.006,-0.0354 0.0135,-0.0541 0.007,-0.0213 0.0255,-0.0393 0.0272,-0.054 0.002,-0.0195 -0.0118,-0.0411 -0.0272,-0.0541 -0.048,0.005 -0.0809,0 -0.10806,0.0135 -0.0622,0.0285 -0.0458,0.11503 -0.10807,0.1353 -0.0216,0.006 -0.0575,0.008 -0.0813,0.0135 -0.0203,0.005 -0.0463,0.0138 -0.0674,0.0135 -0.025,-4.4e-4 -0.0661,-0.0247 -0.0813,-0.0406 -0.005,-0.005 -0.0106,-0.0156 -0.0135,-0.0272 8.8e-4,-0.005 -8.6e-4,-0.008 0,-0.0135 0.02,-0.0964 0.0402,-0.19189 0.0674,-0.28351 10e-4,-0.005 -0.001,-0.009 0,-0.0135 0.0182,-0.0601 0.0445,-0.11668 0.0674,-0.17545 0.006,-0.005 0.008,-0.009 0.0135,-0.0135 0.0333,-0.0229 0.0674,-0.0515 0.10806,-0.0541 0.0247,0 0.071,0.008 0.0946,0.0135 0.0216,0.005 0.0354,0.0255 0.0541,0.0273 0.0532,0.005 0.0645,-0.0445 0.10807,-0.0673 0.045,0.007 0.0674,-0.005 0.10806,0 0.0278,0.005 0.0596,0.0389 0.0814,0.0406 0.0182,0 0.0229,-0.0299 0.0406,-0.0273 0.0174,0.005 0.0514,0.0466 0.054,0.0673 0.004,0.026 -0.0208,0.0528 -0.0135,0.0813 0.0272,0.0276 0.0826,0.0241 0.12148,0.0406 0.0255,-0.0208 0.005,-0.051 0,-0.0813 -8.6e-4,-0.0135 0.002,-0.0285 0,-0.0406 -0.002,-0.0208 -0.0135,-0.0363 -0.0135,-0.0541 -4.4e-4,-0.0821 0.0666,-0.12967 0.12148,-0.1621 0.0239,-0.0143 0.0466,-0.0298 0.0674,-0.0406 0.0289,-0.0148 0.0432,-0.0273 0.0674,-0.0406 0.0437,-0.0247 0.0873,-0.0398 0.12148,-0.0673 0.0161,-0.0371 -0.002,-0.0847 0,-0.12146 0.0161,-0.009 0.0239,0 0.0406,0 0.0263,-0.006 0.0389,-0.0393 0.054,-0.0541 0.008,-0.008 0.0298,-0.0187 0.0406,-0.0273 0.0265,-0.0208 0.0312,-0.0449 0.0541,-0.054 0.008,-0.005 0.0278,-0.007 0.0406,-0.0135 0.0174,-0.005 0.0398,-0.0174 0.0674,-0.0272 0.0182,-0.006 0.0606,-0.006 0.0674,-0.0135 0.008,-0.008 -0.002,-0.0411 0,-0.0541 0.0138,-0.0653 0.11764,-0.0726 0.17552,-0.0946 0.0406,-0.0156 0.077,-0.0493 0.12148,-0.0406 -0.008,0.0312 -0.0476,0.0164 -0.0406,0.0541 0.009,0.0523 0.0762,-0.006 0.0946,-0.0135 0.035,-0.0148 0.10251,-0.0239 0.14872,-0.0406 0.0406,-0.0148 0.10594,-0.0346 0.0674,-0.0813 -0.032,0 -0.0398,0.0286 -0.0674,0.0406 -0.019,0.005 -0.0242,-0.0118 -0.0406,-0.0135 -0.0156,0 -0.0247,0.0164 -0.0406,0.0135 -0.0161,-0.005 -0.038,-0.0354 -0.0406,-0.0541 -0.006,-0.048 0.0476,-0.0588 0.0674,-0.0947 -0.013,-0.0436 -0.0718,-0.0106 -0.10807,-0.0273 0.005,-0.026 0.0239,-0.0493 0.0541,-0.0541 0.0247,-0.005 0.0799,0.005 0.0946,0.0135 0.008,0.007 0,0.0285 0.0135,0.0406 0.0148,0.0135 0.035,0.005 0.0541,0 0.007,-0.0328 -0.0458,-0.0187 -0.0406,-0.0406 0.0389,-0.0255 0.11456,-0.006 0.16213,-0.0135 0.0272,-0.005 0.0567,-0.0268 0.0813,-0.0406 0.0234,-0.013 0.0428,-0.035 0.0674,-0.0135 0.007,0.0234 -0.0138,0.0286 -0.0273,0.0406 -0.0441,0.0393 -0.0873,0.0894 -0.12149,0.13525 0.0213,0.0208 0.0588,0.009 0.0947,0.0135 0.0138,0 0.026,0.0106 0.0406,0.0135 0.0174,0.005 0.0406,-0.006 0.0541,0 0.0242,0.006 0.0302,0.0406 0.0541,0.0406 0.0393,0 0.0358,-0.0541 0.0135,-0.0812 0.006,-0.0273 0.0229,-0.0346 0.0135,-0.0541 -0.0177,-0.0354 -0.0912,0.006 -0.0947,-0.0406 -0.002,-0.0289 0.0304,-0.0324 0.0406,-0.0541 -0.005,-0.0557 0.0458,-0.0583 0.0406,-0.10807 -0.002,-0.0208 -0.026,-0.0213 -0.0406,-0.0406 -0.007,-0.009 -0.005,-0.0328 -0.0135,-0.0406 -0.0304,-0.0255 -0.0907,-0.019 -0.0946,-0.0673 -0.002,-0.0285 0.005,-0.0497 0,-0.0813 -0.005,-0.0289 -0.0286,-0.11586 -0.0541,-0.12146 -0.0324,-0.006 -0.0557,0.0492 -0.0947,0.0673 -0.0213,0.009 -0.0601,0.0174 -0.0813,0.0135 -0.0138,-0.005 -0.0384,-0.0138 -0.0406,-0.0406 -0.002,-0.0302 0.0216,-0.0354 0.0272,-0.0673 -0.005,-0.019 -0.0221,-0.0125 -0.0406,-0.0273 -0.0213,-0.0161 -0.0393,-0.0502 -0.0674,-0.054 -0.0143,0 -0.0401,0.0125 -0.0541,0.0135 -0.026,0 -0.0458,-0.006 -0.0674,-0.0135 0.008,-0.005 0.0177,-0.0106 0.0272,-0.0135 0.0527,-0.0182 0.10806,-0.0255 0.16211,-0.0406 0.009,-0.005 0.0177,-0.0106 0.0273,-0.0135 0.0135,0.0143 0.0242,0.0445 0.0406,0.0541 0.0106,0.007 0.0273,-0.005 0.0406,0 0.0424,0.013 0.0752,0.0367 0.12148,0.0272 0.0161,-0.028 -0.0319,-0.0319 -0.0135,-0.054 0.0312,0.005 0.057,0.0174 0.0813,0.0273 0.0332,-0.0242 0.0554,-0.0285 0.0541,-0.0673 -4.4e-4,-0.02 -0.0267,-0.0273 -0.0406,-0.0406 0.0272,-0.005 0.0536,-0.009 0.0813,-0.0135 0.002,0.007 0.008,0.013 0.0135,0.0135 0.0164,0.005 0.0713,-0.0221 0.0813,-0.0272 0.002,0 -0.002,-0.0118 0,-0.0135 0.10936,-0.0118 0.22524,-0.0135 0.33764,-0.0135 m -1.0808,0.20271 c -0.009,0.0187 -0.0203,0.0341 -0.0406,0.0406 0.006,0.0281 -0.0363,0.0453 -0.0406,0.0673 -0.002,0.0151 -8.7e-4,0.0406 0,0.054 0.008,0.13789 -0.10854,0.20616 -0.2434,0.20271 -0.0265,0.0252 -0.0125,0.0735 -0.0272,0.10807 -0.0122,0.029 -0.0519,0.0567 -0.0813,0.0541 -0.0216,0 -0.0541,-0.0341 -0.0541,-0.0541 0,-0.0247 0.035,-0.0393 0.0135,-0.0674 0.004,-0.019 0.0458,-0.0371 0.0406,-0.0673 -0.006,-0.032 -0.0414,-0.008 -0.0814,-0.0135 -0.0226,-0.005 -0.0575,-0.0161 -0.0813,-0.0272 0.0436,-0.0289 0.0886,-0.0544 0.1353,-0.0814 0.0406,-0.0242 0.08,-0.0454 0.12149,-0.0673 0.10889,-0.0549 0.22568,-0.10535 0.33765,-0.1486 m 2.32372,0.32406 c -0.0118,0 -0.0174,0.007 -0.0273,0.0135 -0.0221,0.0135 -0.0234,0.0341 -0.0406,0.0406 -0.0234,0.008 -0.0505,0.005 -0.0541,0.0272 -0.002,0.0177 0.0143,0.0239 0.0135,0.0406 -0.008,0.0213 -0.0229,0.0285 -0.0273,0.0541 0.0294,0.0476 0.099,-0.005 0.13532,-0.0135 0.0164,-0.005 0.0315,0 0.0406,-0.0135 0.009,-0.0151 0.006,-0.0453 0.0135,-0.0674 0.008,-0.0242 0.0299,-0.0187 0.0272,-0.0406 -0.002,-0.0216 -0.0458,-0.044 -0.0813,-0.0406 m -3.16156,0.33757 c 0.0265,0.006 0.0847,0.0834 0.0272,0.10806 -0.006,0.005 -0.0808,0.0156 -0.0946,0.0135 -0.02,-0.005 -0.0337,-0.0371 -0.0541,-0.0406 -0.0397,-0.007 -0.0942,0.0437 -0.12148,0 0.006,-0.0255 0.0372,-0.0187 0.0674,-0.0272 0.0541,-0.0148 0.12884,-0.066 0.17552,-0.0541 m 0.10807,0.13525 c 0.0135,0 0.0242,0.0255 0.0406,0.0272 0.0156,0 0.0312,-0.0156 0.0406,-0.0135 0.0242,0.006 0.0363,0.0497 0.0135,0.0674 -0.019,0 -0.0263,-0.0161 -0.0406,-0.0135 -0.0393,0.006 -0.0519,0.0834 -0.0812,0.0813 -0.0278,-0.005 -0.0415,-0.0608 -0.0135,-0.0813 8.6e-4,-0.0174 -0.0143,-0.0234 -0.0135,-0.0406 0.008,-0.0106 0.0311,-0.0285 0.0541,-0.0272 m -0.13533,0.0135 c 0.008,4.4e-4 0.0106,0 0.0135,0 -0.005,0.0306 -0.0169,0.0393 -0.0406,0.0541 -0.041,0.0246 -0.0679,0.0554 -0.0813,0.10807 -0.005,0.0156 -0.048,0.0579 -0.0674,0.054 -0.0458,-0.009 0.0164,-0.0951 0.0272,-0.10807 0.0118,-0.0143 0.0267,-0.0241 0.0406,-0.0406 0.013,-0.0161 0.0143,-0.0454 0.0272,-0.0541 0.0138,-0.009 0.0571,-0.0143 0.0813,-0.0135 m 4.10704,0.0135 c 0.0208,0.006 0.025,0.0298 0.0406,0.0406 0.0118,0.007 0.0278,0.006 0.0406,0.0135 0.0151,0.009 0.0234,0.026 0.0406,0.0406 0.0242,0.0203 0.0606,0.038 0.0947,0.0541 0.006,0.005 0.019,0.009 0.0272,0.0135 0.0238,0.0307 0.045,0.0627 0.0674,0.0946 0.002,0.0174 0.006,0.0427 0.0135,0.0541 0.0226,0.0306 0.0567,0.0571 0.0814,0.0946 -4.3e-4,0.0358 0.0156,0.0575 0.0406,0.0673 0.0315,0.0536 0.0645,0.10724 0.0947,0.16205 0.0125,0.025 0.0151,0.0557 0.0272,0.0813 -0.008,0 -0.0187,0.005 -0.0272,0 -0.0286,-0.0502 -0.17683,-0.0601 -0.18937,0.0135 -0.006,0.0324 0.0213,0.0756 -0.0273,0.0813 -0.0307,0.005 -0.0661,-0.0317 -0.10807,-0.0406 -0.0174,-0.005 -0.0406,0.007 -0.0541,0 -0.0317,-0.0106 -0.0267,-0.0484 -0.054,-0.0673 -0.0156,-0.0106 -0.0562,-0.0242 -0.0813,-0.0273 -0.0156,0 -0.0242,0 -0.0406,0 -0.0195,-0.005 -0.051,-0.005 -0.0674,-0.0135 -0.0156,-0.009 -0.0502,-0.0268 -0.0541,-0.0406 -0.006,-0.0213 0.0389,-0.0493 0.0406,-0.0673 8.6e-4,-0.0135 -0.009,-0.0195 -0.0135,-0.0406 -0.002,-0.0125 0.002,-0.032 0,-0.0406 -0.005,-0.0148 -0.0307,-0.0268 -0.0541,-0.0273 -0.0208,0 -0.0363,0.013 -0.0541,0.0135 -0.0255,4.2e-4 -0.0765,-0.0161 -0.10807,-0.0135 -0.019,0 -0.0363,0.0122 -0.0541,0.0135 -0.0501,0.005 -0.0826,-0.005 -0.12149,0 -0.0285,0 -0.0816,0.0148 -0.10806,0.0273 -0.0135,0.007 -0.0234,0.0187 -0.0406,0.0272 -0.007,0.005 -0.0169,0.008 -0.0272,0.0135 -0.0164,0.007 -0.0385,0.0229 -0.0541,0.0273 -0.0226,0.006 -0.0536,0 -0.0946,0 -0.0294,0 -0.0808,-0.006 -0.0813,-0.0406 -4.2e-4,-0.0531 0.0981,-0.0311 0.14871,-0.0406 0.019,-0.005 0.0316,-0.0273 0.0541,-0.0406 0.0106,-0.006 0.0169,-0.006 0.0273,-0.0135 0.0174,-0.0122 0.0514,-0.0402 0.0541,-0.0541 0.002,-0.013 -0.0151,-0.0311 -0.0135,-0.0406 0.002,-0.0122 0.0247,-0.0252 0.0406,-0.0406 0.0242,-0.0239 0.0376,-0.0519 0.0674,-0.0673 0.0203,-0.0106 0.0583,-0.0106 0.0674,-0.0272 0.002,-0.0187 -4.4e-4,-0.0239 0,-0.0406 0.0125,-0.0118 0.0164,-0.0252 0.0273,-0.0272 0.0311,-0.006 0.0583,0.0151 0.0947,0.0135 0.0156,0 0.0372,-0.005 0.0541,-0.0135 0.0143,-0.009 0.0268,-0.0195 0.0406,-0.0273 0.0151,-0.007 0.0221,-0.0255 0.0406,-0.0273 0.0454,-0.005 0.0739,0.0536 0.0946,0.0813 0.0174,0.0229 0.0661,0.0515 0.0947,0.0673 0.0161,0.008 0.0362,0.0195 0.054,0.0272 0.0376,0.0169 0.10677,0.0712 0.10807,0.10807 8.6e-4,0.0182 -0.0164,0.0234 -0.0135,0.0406 0.0285,0.005 0.0532,-0.0255 0.0541,-0.054 4.2e-4,-0.0177 -0.0169,-0.0216 -0.0135,-0.0406 0.0135,-0.0286 0.064,-0.005 0.0813,-0.0135 -0.004,-0.0324 -0.0536,-0.0372 -0.0813,-0.0541 -0.0148,-0.008 -0.0252,-0.0208 -0.0406,-0.0272 -0.0226,-0.008 -0.0502,-0.0138 -0.0674,-0.0273 -0.0164,-0.0125 -0.0247,-0.0346 -0.0406,-0.0541 -0.0234,-0.0278 -0.0684,-0.0317 -0.054,-0.0946 0.006,-0.009 0.0161,-0.0298 0.0272,-0.0273 m -3.81004,0.0946 0.0406,0 c 0.0148,4.4e-4 0.0346,-0.007 0.0406,0 -0.009,0.038 -0.0917,0.0273 -0.12148,0.0135 0.002,-0.0143 0.0216,-0.0118 0.0406,-0.0135 m -0.13532,0.0674 c 0.009,0 0.0169,-0.005 0.0273,0 -0.0268,0.0226 -0.0622,0.0398 -0.10807,0.0541 -0.0221,0.006 -0.0502,0.0106 -0.0541,-0.0135 -0.005,-0.0298 0.0203,-0.0242 0.0406,-0.0273 0.0252,-0.005 0.0648,-0.0125 0.0946,-0.0135 m 3.756,0 c -0.0187,0.006 -0.0285,0.0489 0,0.0541 0.0135,-0.007 0.0169,-0.0295 0.0135,-0.0541 -0.007,-0.007 -0.007,0 -0.0135,0 m -0.0135,0.0813 c -0.008,0.005 -0.0174,0.005 -0.0273,0.0135 4.3e-4,0.0324 0.006,0.0531 0,0.0813 0.0187,0.0354 0.058,0.0118 0.0674,-0.0135 0.0118,-0.0601 -0.013,-0.0886 -0.0406,-0.0813 m 0.18936,0.16207 c 0.0213,0.0346 0.0609,0.0593 0.10806,0.0673 0.0174,-0.013 0.019,-0.0454 0.0272,-0.0673 -0.0203,4.2e-4 -0.0419,0 -0.0674,0 -0.0255,0 -0.0528,-0.0122 -0.0674,0 m -5.05295,1.16165 c 0.071,-0.005 0.0917,0.0933 0.14871,0.12146 0.0143,0.007 0.0354,0.009 0.0541,0.0135 0.0151,0.005 0.0265,0.008 0.0406,0.0135 0.0306,0.0106 0.07,0.005 0.0946,0.0135 0.0367,0.0164 0.0632,0.0894 0.0947,0.10806 0.002,0.0187 -0.006,0.0402 0,0.0541 0.0151,0.0203 0.0428,0.0277 0.0674,0.0406 0.0295,0.0161 0.0398,0.0549 0.0674,0.0673 0.009,0.005 0.0255,-0.005 0.0406,0 0.038,0.0118 0.0484,0.0634 0.0813,0.054 0.0216,-0.006 0.0239,-0.0337 0.0272,-0.054 0.0143,-0.0156 0.032,-0.0401 0.0541,-0.0406 0.0358,0 0.041,0.0324 0.054,0.0673 0.007,0.02 0.0221,0.0466 0.0272,0.0673 0.008,0.0358 0.007,0.14047 0,0.16204 -0.008,0.0264 -0.0458,0.0385 -0.0674,0.0674 -0.0106,0.0135 -0.019,0.0306 -0.0272,0.0406 -0.0138,0.0174 -0.0299,0.0247 -0.0406,0.0406 -0.006,0.008 -0.007,0.0285 -0.0135,0.0406 -0.0174,0.0367 -0.0415,0.064 -0.0272,0.10807 0.006,0.0182 0.0267,0.0328 0.0272,0.054 0,0.0252 -0.0497,0.0402 -0.0541,0.0673 -0.004,0.0203 0.0208,0.0544 0.0273,0.0813 0.005,0.0203 0.0419,0.0406 0.0541,0.0541 0.0203,0.0229 0.0354,0.0523 0.054,0.0813 0.0367,0.0562 0.0588,0.12104 0.0947,0.17546 0.0187,0.0285 0.0549,0.0515 0.0674,0.0813 0.007,0.0151 -0.007,0.0406 0,0.054 0.0208,0.0466 0.11504,0.0986 0.16213,0.12146 0.0221,0.0106 0.0475,0 0.0674,0.0135 0.0306,0.0169 0.0925,0.0678 0.10806,0.0947 0.0138,0.0242 0.0203,0.0834 0.0272,0.1214 0.008,0.0506 -0.002,0.0938 0,0.14869 0.002,0.0299 0.013,0.0515 0.0135,0.0813 0,0.0106 4.3e-4,0.0303 0,0.0406 -8.7e-4,0.0358 0.004,0.0717 0,0.10795 -0.002,0.02 -10e-4,0.0376 0,0.0541 0.002,0.0177 0.0122,0.0246 0.0135,0.0406 8.6e-4,0.0169 -0.0151,0.041 -0.0135,0.0541 0.005,0.0363 0.0332,0.0613 0.0406,0.0946 0.006,0.0264 0.0169,0.0899 0.0135,0.12146 -0.002,0.0169 -0.0106,0.0358 -0.0135,0.0541 -0.002,0.0143 0.002,0.0268 0,0.0406 -0.002,0.0203 -0.0148,0.035 -0.0135,0.0541 0.002,0.0389 0.0345,0.0692 0.0406,0.10807 0.002,0.013 -4.4e-4,0.0281 0,0.0406 4.2e-4,0.0118 0.009,0.0164 0.0135,0.0272 -0.11374,-0.0647 -0.22004,-0.1374 -0.32425,-0.21606 -0.099,-0.0749 -0.19497,-0.15734 -0.28359,-0.24335 -0.005,-0.005 -0.008,-0.008 -0.0135,-0.0135 -0.0894,-0.0881 -0.17898,-0.18497 -0.2568,-0.28351 -0.0449,-0.057 -0.0942,-0.11539 -0.13531,-0.17545 -0.0242,-0.0358 -0.0449,-0.0709 -0.0674,-0.10807 -0.0138,-0.0221 -0.0273,-0.0449 -0.0406,-0.0673 -0.0385,-0.0661 -0.0749,-0.13308 -0.10807,-0.20266 -0.0213,-0.0437 -0.035,-0.0899 -0.054,-0.13529 -0.0454,-0.10724 -0.0886,-0.21134 -0.12148,-0.32415 -0.0234,-0.08 -0.0372,-0.16033 -0.0541,-0.2433 -0.013,-0.0632 -0.0315,-0.12491 -0.0406,-0.18929 -0.005,-0.035 -0.009,-0.0726 -0.0135,-0.10807 -0.0106,-0.10157 -0.0135,-0.20617 -0.0135,-0.3107 0,-0.13054 0.0118,-0.25238 0.0273,-0.37815 4.2e-4,-0.005 -4.3e-4,-0.008 0,-0.0135 0.0272,0 0.0645,-0.0398 0.0947,-0.0406 m 1.16207,0.32416 c 0.0278,-0.0125 0.0363,0.0505 0.0135,0.0541 -0.0216,0.005 -0.0346,-0.044 -0.0135,-0.0541"
       inkscape:connector-curvature="0"
       style="color:#000000;fill:#0563f5;fill-opacity:1" />
  </g>
</svg>
