<?xml version="1.0" encoding="UTF-8" standalone="no"?>
<svg
   xmlns:dc="http://purl.org/dc/elements/1.1/"
   xmlns:cc="http://creativecommons.org/ns#"
   xmlns:rdf="http://www.w3.org/1999/02/22-rdf-syntax-ns#"
   xmlns:svg="http://www.w3.org/2000/svg"
   xmlns="http://www.w3.org/2000/svg"
   xmlns:sodipodi="http://sodipodi.sourceforge.net/DTD/sodipodi-0.dtd"
   xmlns:inkscape="http://www.inkscape.org/namespaces/inkscape"
   width="1687mm"
   height="1687mm"
   viewBox="0 0 5977.5592 5977.5588"
   version="1.1"
   xml:space="preserve"
   style="clip-rule:evenodd;fill-rule:evenodd"
   id="svg2"
   inkscape:version="0.91 r13725"
   sodipodi:docname="Twilight-dawn_subcategories.svg"><metadata
     id="metadata306"><rdf:RDF><cc:Work
         rdf:about=""><dc:format>image/svg+xml</dc:format><dc:type
           rdf:resource="http://purl.org/dc/dcmitype/StillImage" /><dc:title /></cc:Work></rdf:RDF></metadata><defs
     id="defs304" /><sodipodi:namedview
     pagecolor="#ffffff"
     bordercolor="#666666"
     borderopacity="1"
     objecttolerance="10"
     gridtolerance="10"
     guidetolerance="10"
     inkscape:pageopacity="0"
     inkscape:pageshadow="2"
     inkscape:window-width="1920"
     inkscape:window-height="1051"
     id="namedview302"
     showgrid="false"
     units="mm"
     showborder="true"
     borderlayer="true"
     inkscape:document-units="mm"
     inkscape:zoom="0.056568542"
     inkscape:cx="-887.80009"
     inkscape:cy="4786.6138"
     inkscape:window-x="1360"
     inkscape:window-y="0"
     inkscape:window-maximized="1"
     inkscape:current-layer="g4" /><g
     transform="matrix(4.16667,0,0,4.16667,-33.949153,1156.779)"
     id="g4"><g
       transform="matrix(-0.46328,0,0,0.46328,-3161.968,595.348)"
       id="path8788"><path
         inkscape:connector-curvature="0"
         id="path8"
         style="fill:#dbe9ff;fill-rule:nonzero"
         d="m -8883.07,-807.98 c -27.62,-1745.47 1330.45,-3200.08 3073.7,-3292.21 l 171.29,3240.862 -3244.99,51.348 z" /></g><g
       transform="matrix(-0.46328,0,0,0.46328,-3161.968,595.348)"
       id="path18829"><path
         inkscape:connector-curvature="0"
         id="path11"
         style="fill:none;stroke:#b9bc9a;stroke-width:3px"
         d="m -2393.56,-859.328 c 0,1791.9 -1452.62,3244.518 -3244.52,3244.518 -1791.9,0 -3244.53,-1452.618 -3244.53,-3244.518 0,-1791.902 1452.63,-3244.522 3244.53,-3244.522 1791.9,0 3244.52,1452.62 3244.52,3244.522 l 0,0 z" /></g><g
       transform="matrix(-0.46328,0,0,0.46328,-3161.968,595.348)"
       id="path5266"><path
         inkscape:connector-curvature="0"
         id="path14"
         style="fill:#87a4d3;fill-rule:nonzero"
         d="m -8853.11,-416.464 c -20.33,-147.539 -30.47,-296.302 -30.36,-445.234 l 3245.39,2.37 -3215.03,442.864 z" /></g><g
       transform="matrix(-0.46328,0,0,0.46328,-3161.968,595.348)"
       id="path8784"><path
         inkscape:connector-curvature="0"
         id="path17"
         style="fill:#4773bb;fill-rule:nonzero"
         d="m -8799.49,-125.803 c -30.25,-130.364 -52.4,-262.474 -66.34,-395.574 l 3227.75,-337.951 -3161.41,733.525 z" /></g><g
       transform="matrix(-0.46328,0,0,0.46328,-3161.968,595.348)"
       id="path8786"><path
         inkscape:connector-curvature="0"
         id="path20"
         style="fill:#263e66;fill-rule:nonzero"
         d="m -8708.19,192.801 c -42.46,-123.889 -77.38,-250.234 -104.57,-378.343 l 3174.68,-673.786 -3070.11,1052.129 z" /></g><g
       transform="matrix(-0.46328,0,0,0.46328,-3161.968,595.348)"
       id="path18815"><path
         inkscape:connector-curvature="0"
         id="path23"
         style="fill:#1f252d;fill-rule:nonzero"
         d="m -5457.69,2380.93 c -1471.06,81.9 -2812.7,-837.44 -3267.32,-2238.882 l 3086.93,-1001.376 180.39,3240.258 z" /></g><g
       transform="matrix(-0.46328,0,0,0.46328,-4429.698,356.298)"
       id="path2991.-5.-5.-5.-4.-5.-5.-6.-7.-19"><path
         inkscape:connector-curvature="0"
         id="path26"
         style="fill:none;stroke:#000000;stroke-width:5px"
         d="m -12242.8,-343.502 7933.12,0" /></g><g
       transform="matrix(-0.46328,0,0,0.46328,-4429.698,356.298)"
       id="path2991.-5.-5.-5.-4.-5.-5.-6.-7.-19.-5"><path
         inkscape:connector-curvature="0"
         id="path29"
         style="fill:none;stroke:#000000;stroke-width:1.5px"
         d="m -11601.9,-4.768 3227.29,-338.531" /></g><g
       transform="matrix(-0.46328,0,0,0.46328,-4429.698,356.298)"
       id="path2991.-5.-5.-5.-4.-5.-5.-6.-7.-19.-8"><path
         inkscape:connector-curvature="0"
         id="path32"
         style="fill:none;stroke:#000000;stroke-width:1.5px"
         d="M -11461.8,658.751 -8374.41,-343.37" /></g><g
       transform="matrix(-0.46328,0,0,0.46328,-4429.698,356.298)"
       id="path2991.-5.-5.-5.-4.-5.-5.-6.-7.-19.-1"><path
         inkscape:connector-curvature="0"
         id="path35"
         style="fill:#4773bb;fill-rule:nonzero;stroke:#000000;stroke-width:1.5px"
         d="M -11548.9,331.21 -8374.29,-343.3" /></g><g
       transform="matrix(-0.0986798,0,0,0.098255,1209.36,90.171)"
       id="path3763.-2.-7.-2.-1.-9.-7.-3"><path
         inkscape:connector-curvature="0"
         id="path38"
         style="fill:#fee200;fill-rule:nonzero;stroke:#000000;stroke-width:11.76000023px"
         d="m 2750.56,2686.75 c 0,38.45 -31.17,69.62 -69.61,69.62 -38.45,0 -69.62,-31.17 -69.62,-69.62 0,-38.45 31.17,-69.61 69.62,-69.61 38.44,0 69.61,31.16 69.61,69.61 z" /></g><g
       transform="matrix(-0.0986798,0,0,0.098255,1184.85,245.418)"
       id="path3763.-2.-7.-2.-1.-9.-7.-3.-0"><path
         inkscape:connector-curvature="0"
         id="path41"
         style="fill:#fee200;fill-rule:nonzero;stroke:#000000;stroke-width:11.76000023px"
         d="m 2750.56,2686.75 c 0,38.45 -31.17,69.62 -69.61,69.62 -38.45,0 -69.62,-31.17 -69.62,-69.62 0,-38.45 31.17,-69.61 69.62,-69.61 38.44,0 69.61,31.16 69.61,69.61 z" /></g><g
       transform="matrix(-0.0986798,0,0,0.098255,1217.687,-60.365)"
       id="path3763.-2.-7.-2.-1.-9.-7.-3.-0.-1"><path
         inkscape:connector-curvature="0"
         id="path44"
         style="fill:#fee200;fill-rule:nonzero;stroke:#000000;stroke-width:11.76000023px"
         d="m 2750.56,2686.75 c 0,38.45 -31.17,69.62 -69.61,69.62 -38.45,0 -69.62,-31.17 -69.62,-69.62 0,-38.45 31.17,-69.61 69.62,-69.61 38.44,0 69.61,31.16 69.61,69.61 z" /></g><g
       transform="matrix(-0.0986798,0,0,0.098255,1144.745,397.668)"
       id="path3763.-2.-7.-2.-1.-9.-7.-3.-0.-1.-1"><path
         inkscape:connector-curvature="0"
         id="path47"
         style="fill:#fee200;fill-rule:nonzero;stroke:#000000;stroke-width:11.76000023px"
         d="m 2750.56,2686.75 c 0,38.45 -31.17,69.62 -69.61,69.62 -38.45,0 -69.62,-31.17 -69.62,-69.62 0,-38.45 31.17,-69.61 69.62,-69.61 38.44,0 69.61,31.16 69.61,69.61 z" /></g><g
       transform="matrix(0.463588,0.0253455,-0.0252364,0.461593,5170.582,1125.718)"
       id="text5859.-3.-9.-9.-1.-6.-3.-5.-5.-2.-5.-4"><path
         inkscape:connector-curvature="0"
         style="fill:#ffffff;fill-rule:nonzero"
         d="m -10279.5,-1338.89 c -4.4,0 -7.9,1.51 -10.5,4.54 -2.6,3.02 -3.9,7.18 -3.9,12.45 0,5.24 1.3,9.38 3.9,12.42 2.6,3.05 6.1,4.57 10.5,4.57 4.5,0 8,-1.52 10.5,-4.57 2.6,-3.04 3.9,-7.18 3.9,-12.42 0,-5.27 -1.3,-9.43 -3.9,-12.45 -2.5,-3.03 -6,-4.54 -10.5,-4.54 z m 19.6,-30.91 0,8.98 c -2.5,-1.17 -5,-2.06 -7.5,-2.68 -2.5,-0.62 -5,-0.93 -7.5,-0.93 -6.5,0 -11.5,2.2 -14.9,6.59 -3.4,4.4 -5.4,11.04 -5.9,19.92 1.9,-2.83 4.3,-5 7.2,-6.52 2.9,-1.51 6.1,-2.27 9.6,-2.27 7.3,0 13.1,2.22 17.4,6.67 4.2,4.44 6.3,10.49 6.3,18.14 0,7.49 -2.2,13.49 -6.6,18.02 -4.4,4.52 -10.3,6.78 -17.7,6.78 -8.4,0 -14.9,-3.23 -19.3,-9.69 -4.5,-6.46 -6.7,-15.83 -6.7,-28.1 0,-11.52 2.7,-20.71 8.2,-27.56 5.5,-6.86 12.8,-10.28 22,-10.28 2.5,0 5,0.24 7.5,0.73 2.5,0.49 5.2,1.22 7.9,2.2 l 0,0 z"
         id="path3700" /><path
         inkscape:connector-curvature="0"
         style="fill:#ffffff;fill-rule:nonzero"
         d="m -10223.8,-1366.43 c -2.6,0 -4.8,0.9 -6.6,2.71 -1.8,1.8 -2.7,4.01 -2.7,6.61 0,2.57 0.9,4.75 2.7,6.52 1.8,1.78 4,2.66 6.6,2.66 2.6,0 4.8,-0.88 6.6,-2.66 1.8,-1.77 2.7,-3.95 2.7,-6.52 0,-2.57 -0.9,-4.77 -2.7,-6.59 -1.9,-1.82 -4,-2.73 -6.6,-2.73 l 0,0 z m 0,-6.3 c 2.1,0 4.1,0.4 6,1.19 1.9,0.8 3.6,1.95 5,3.45 1.5,1.46 2.6,3.12 3.3,4.98 0.8,1.85 1.2,3.85 1.2,6 0,4.3 -1.5,7.94 -4.6,10.92 -3,2.98 -6.6,4.46 -11,4.46 -4.4,0 -8.1,-1.46 -11,-4.39 -2.9,-2.93 -4.4,-6.59 -4.4,-10.99 0,-4.36 1.5,-8.05 4.5,-11.08 3,-3.03 6.7,-4.54 11,-4.54 l 0,0 z"
         id="path3702" /></g><g
       transform="matrix(0.462698,0.0383018,-0.0381369,0.460706,4802.612,1706.458)"
       id="text5859.-3.-9.-9.-1.-6.-3.-5.-5.-2.-5.-4.-6"><path
         inkscape:connector-curvature="0"
         style="fill:#ffffff;fill-rule:nonzero"
         d="m -9894.03,-2233.58 16.11,0 0,-55.61 -17.53,3.51 0,-8.98 17.43,-3.52 9.87,0 0,64.6 16.11,0 0,8.3 -41.99,0 0,-8.3 z"
         id="path3693" /><path
         inkscape:connector-curvature="0"
         style="fill:#ffffff;fill-rule:nonzero"
         d="m -9823.57,-2233.58 34.42,0 0,8.3 -46.29,0 0,-8.3 c 3.75,-3.87 8.85,-9.07 15.31,-15.6 6.46,-6.52 10.52,-10.73 12.18,-12.62 3.16,-3.55 5.36,-6.55 6.62,-9.01 1.25,-2.45 1.88,-4.87 1.88,-7.25 0,-3.87 -1.36,-7.03 -4.08,-9.47 -2.72,-2.44 -6.26,-3.66 -10.62,-3.66 -3.09,0 -6.36,0.53 -9.79,1.61 -3.43,1.07 -7.1,2.7 -11.01,4.88 l 0,-9.96 c 3.97,-1.59 7.68,-2.8 11.13,-3.61 3.45,-0.82 6.61,-1.22 9.48,-1.22 7.55,0 13.57,1.88 18.06,5.66 4.49,3.78 6.74,8.82 6.74,15.14 0,2.99 -0.56,5.83 -1.69,8.52 -1.12,2.68 -3.16,5.85 -6.12,9.49 -0.82,0.95 -3.4,3.67 -7.77,8.18 -4.36,4.51 -10.51,10.82 -18.45,18.92 l 0,0 z"
         id="path3695" /><path
         inkscape:connector-curvature="0"
         style="fill:#ffffff;fill-rule:nonzero"
         d="m -9754.09,-2293.2 c -2.6,0.01 -4.8,0.91 -6.59,2.71 -1.79,1.81 -2.69,4.02 -2.69,6.62 0,2.57 0.9,4.75 2.69,6.52 1.79,1.77 3.99,2.66 6.59,2.66 2.6,0 4.8,-0.89 6.59,-2.66 1.79,-1.77 2.69,-3.95 2.69,-6.52 0,-2.57 -0.91,-4.77 -2.71,-6.59 -1.81,-1.82 -4,-2.74 -6.57,-2.74 z m 0,-6.29 c 2.08,0 4.08,0.39 6,1.19 1.93,0.8 3.59,1.95 4.99,3.44 1.49,1.47 2.62,3.13 3.36,4.99 0.75,1.85 1.13,3.85 1.13,6 0,4.3 -1.51,7.94 -4.52,10.92 -3.01,2.97 -6.7,4.46 -11.06,4.46 -4.39,0 -8.06,-1.46 -10.99,-4.39 -2.92,-2.93 -4.39,-6.59 -4.39,-10.99 0,-4.36 1.5,-8.06 4.49,-11.08 3,-3.03 6.66,-4.54 10.99,-4.54 z"
         id="path3697" /></g><g
       transform="matrix(0.461299,0.0525362,-0.0523101,0.459313,4354.352,2251.278)"
       id="text5859.-3.-9.-9.-1.-6.-3.-5.-5.-2.-5.-4.-3"><path
         inkscape:connector-curvature="0"
         style="fill:#ffffff;fill-rule:nonzero"
         d="m -9380.01,-3128.45 16.11,0 0,-55.61 -17.53,3.51 0,-8.98 17.44,-3.52 9.86,0 0,64.6 16.11,0 0,8.31 -41.99,0 0,-8.31 z"
         id="path3686" /><path
         inkscape:connector-curvature="0"
         style="fill:#ffffff;fill-rule:nonzero"
         d="m -9296.95,-3154.76 c -4.69,0 -8.38,1.25 -11.06,3.76 -2.69,2.5 -4.03,5.95 -4.03,10.35 0,4.39 1.34,7.84 4.03,10.35 2.68,2.5 6.37,3.76 11.06,3.76 4.68,0 8.38,-1.26 11.08,-3.79 2.7,-2.52 4.05,-5.96 4.05,-10.32 0,-4.4 -1.34,-7.85 -4.02,-10.35 -2.69,-2.51 -6.39,-3.76 -11.11,-3.76 l 0,0 z m -9.87,-4.2 c -4.23,-1.05 -7.52,-3.01 -9.88,-5.91 -2.36,-2.9 -3.54,-6.43 -3.54,-10.6 0,-5.82 2.07,-10.43 6.22,-13.82 4.15,-3.38 9.84,-5.07 17.07,-5.07 7.26,0 12.95,1.69 17.09,5.07 4.13,3.39 6.2,8 6.2,13.82 0,4.17 -1.18,7.7 -3.54,10.6 -2.36,2.9 -5.64,4.86 -9.84,5.91 4.75,1.1 8.45,3.27 11.11,6.49 2.65,3.22 3.98,7.16 3.98,11.82 0,7.06 -2.16,12.48 -6.47,16.26 -4.32,3.77 -10.49,5.66 -18.53,5.66 -8.04,0 -14.22,-1.89 -18.53,-5.66 -4.32,-3.78 -6.47,-9.2 -6.47,-16.26 0,-4.66 1.33,-8.6 4,-11.82 2.67,-3.22 6.38,-5.39 11.13,-6.49 l 0,0 z m -3.61,-15.58 c 0,3.78 1.18,6.72 3.54,8.84 2.36,2.11 5.67,3.17 9.94,3.17 4.23,0 7.54,-1.06 9.93,-3.17 2.4,-2.12 3.59,-5.06 3.59,-8.84 0,-3.78 -1.19,-6.72 -3.59,-8.84 -2.39,-2.11 -5.7,-3.17 -9.93,-3.17 -4.27,0 -7.58,1.06 -9.94,3.17 -2.36,2.12 -3.54,5.06 -3.54,8.84 z"
         id="path3688" /><path
         inkscape:connector-curvature="0"
         style="fill:#ffffff;fill-rule:nonzero"
         d="m -9240.07,-3188.07 c -2.6,0 -4.8,0.91 -6.59,2.71 -1.79,1.81 -2.69,4.02 -2.69,6.62 0,2.57 0.9,4.75 2.69,6.52 1.79,1.77 3.99,2.66 6.59,2.66 2.61,0 4.8,-0.89 6.59,-2.66 1.79,-1.77 2.69,-3.95 2.69,-6.52 0,-2.57 -0.9,-4.77 -2.71,-6.59 -1.81,-1.82 -4,-2.74 -6.57,-2.74 l 0,0 z m 0,-6.29 c 2.08,0 4.09,0.39 6.01,1.19 1.92,0.8 3.58,1.95 4.98,3.45 1.49,1.46 2.62,3.12 3.37,4.98 0.75,1.85 1.12,3.85 1.12,6 0,4.3 -1.5,7.94 -4.52,10.91 -3.01,2.98 -6.69,4.47 -11.06,4.47 -4.39,0 -8.05,-1.46 -10.98,-4.39 -2.93,-2.93 -4.4,-6.59 -4.4,-10.99 0,-4.36 1.5,-8.06 4.49,-11.08 3,-3.03 6.66,-4.54 10.99,-4.54 l 0,0 z"
         id="path3690" /></g><g
       id="g60"
       transform="matrix(0.979319,0.202323,-0.202323,0.979319,856.531,39.863)"><path
         inkscape:connector-curvature="0"
         id="path62"
         style="fill-rule:nonzero"
         d="m 200.765,461.835 -4.406,0 0,-14.906 c 0,-1.203 -0.059,-2.324 -0.176,-3.363 -0.117,-1.039 -0.34,-1.871 -0.668,-2.496 -0.359,-0.657 -0.859,-1.145 -1.5,-1.465 -0.641,-0.321 -1.516,-0.481 -2.625,-0.481 -1.094,0 -2.223,0.293 -3.387,0.879 -1.164,0.586 -2.3,1.348 -3.41,2.285 l 0,19.547 -4.406,0 0,-26.179 4.406,0 0,2.906 c 1.313,-1.172 2.61,-2.07 3.891,-2.695 1.281,-0.625 2.633,-0.938 4.055,-0.938 2.578,0 4.593,0.848 6.046,2.543 1.454,1.695 2.18,4.152 2.18,7.371 l 0,16.992 z" /><path
         inkscape:connector-curvature="0"
         id="path64"
         style="fill-rule:nonzero"
         d="m 223.978,455.39 0,-7.266 c -1.047,0.094 -2.371,0.223 -3.973,0.387 -1.602,0.164 -2.895,0.395 -3.879,0.691 -1.172,0.36 -2.141,0.911 -2.906,1.653 -0.766,0.742 -1.149,1.777 -1.149,3.105 0,1.5 0.422,2.633 1.266,3.399 0.844,0.765 2.078,1.148 3.703,1.148 1.391,0 2.649,-0.301 3.774,-0.902 1.125,-0.602 2.179,-1.34 3.164,-2.215 z m 0,3.656 c -0.36,0.266 -0.84,0.637 -1.442,1.113 -0.601,0.477 -1.183,0.856 -1.746,1.137 -0.781,0.406 -1.535,0.719 -2.262,0.938 -0.726,0.218 -1.746,0.328 -3.058,0.328 -1.078,0 -2.102,-0.203 -3.071,-0.61 -0.968,-0.406 -1.82,-0.976 -2.554,-1.71 -0.703,-0.719 -1.266,-1.606 -1.688,-2.661 -0.422,-1.054 -0.633,-2.168 -0.633,-3.339 0,-1.813 0.383,-3.356 1.149,-4.629 0.766,-1.274 1.976,-2.286 3.633,-3.036 1.468,-0.671 3.203,-1.136 5.203,-1.394 2,-0.258 4.156,-0.449 6.469,-0.574 l 0,-0.844 c 0,-1.031 -0.157,-1.863 -0.469,-2.496 -0.313,-0.633 -0.75,-1.121 -1.313,-1.465 -0.562,-0.359 -1.25,-0.598 -2.062,-0.715 -0.813,-0.117 -1.649,-0.176 -2.508,-0.176 -1.016,0 -2.211,0.153 -3.586,0.457 -1.375,0.305 -2.75,0.747 -4.125,1.325 l -0.258,0 0,-4.477 c 0.813,-0.234 1.977,-0.492 3.492,-0.773 1.516,-0.282 3.016,-0.422 4.5,-0.422 1.797,0 3.313,0.14 4.547,0.422 1.235,0.281 2.344,0.789 3.328,1.523 0.954,0.719 1.665,1.649 2.133,2.789 0.469,1.141 0.703,2.531 0.703,4.172 l 0,17.906 -4.382,0 0,-2.789 z" /><path
         inkscape:connector-curvature="0"
         id="path66"
         style="fill-rule:nonzero"
         d="m 257.339,461.835 -4.407,0 0,-2.906 c -1.359,1.188 -2.648,2.09 -3.867,2.707 -1.219,0.617 -2.578,0.926 -4.078,0.926 -1.141,0 -2.215,-0.188 -3.223,-0.563 -1.007,-0.375 -1.886,-0.968 -2.636,-1.781 -0.75,-0.812 -1.332,-1.836 -1.746,-3.07 -0.415,-1.235 -0.622,-2.735 -0.622,-4.5 l 0,-16.992 4.407,0 0,14.906 c 0,1.39 0.05,2.543 0.152,3.457 0.102,0.914 0.332,1.715 0.691,2.402 0.36,0.672 0.848,1.164 1.465,1.477 0.617,0.312 1.504,0.469 2.66,0.469 1.079,0 2.227,-0.305 3.446,-0.915 1.218,-0.609 2.336,-1.359 3.351,-2.25 l 0,-19.546 4.407,0 0,26.179 z" /><path
         inkscape:connector-curvature="0"
         id="path68"
         style="fill-rule:nonzero"
         d="m 274.035,462.351 c -2.406,0 -4.281,-0.684 -5.625,-2.051 -1.343,-1.367 -2.015,-3.527 -2.015,-6.48 l 0,-14.508 -2.977,0 0,-3.656 2.977,0 0,-7.524 4.406,0 0,7.524 8.109,0 0,3.656 -8.109,0 0,12.445 c 0,1.328 0.023,2.352 0.07,3.07 0.047,0.719 0.227,1.391 0.539,2.016 0.266,0.547 0.696,0.957 1.289,1.231 0.594,0.273 1.399,0.41 2.415,0.41 0.718,0 1.414,-0.106 2.085,-0.317 0.672,-0.211 1.157,-0.386 1.454,-0.527 l 0.257,0 0,3.961 c -0.828,0.234 -1.668,0.418 -2.519,0.551 -0.852,0.132 -1.637,0.199 -2.356,0.199 z" /><path
         inkscape:connector-curvature="0"
         id="path70"
         style="fill-rule:nonzero"
         d="m 289.068,461.835 -4.406,0 0,-26.179 4.406,0 0,26.179 z m 0.305,-30.562 -5.016,0 0,-4.571 5.016,0 0,4.571 z" /><path
         inkscape:connector-curvature="0"
         id="path72"
         style="fill-rule:nonzero"
         d="m 308.343,462.421 c -1.797,0 -3.445,-0.277 -4.945,-0.832 -1.5,-0.555 -2.789,-1.394 -3.867,-2.519 -1.078,-1.125 -1.914,-2.543 -2.508,-4.254 -0.594,-1.711 -0.891,-3.723 -0.891,-6.035 0,-2.297 0.309,-4.282 0.926,-5.954 0.617,-1.671 1.441,-3.078 2.473,-4.218 1.031,-1.141 2.316,-2.02 3.855,-2.637 1.539,-0.617 3.192,-0.926 4.957,-0.926 1.438,0 2.824,0.203 4.16,0.61 1.336,0.406 2.528,0.875 3.575,1.406 l 0,4.945 -0.258,0 c -0.313,-0.265 -0.715,-0.57 -1.207,-0.914 -0.492,-0.344 -1.09,-0.695 -1.793,-1.055 -0.61,-0.312 -1.328,-0.586 -2.156,-0.82 -0.829,-0.234 -1.625,-0.351 -2.391,-0.351 -2.281,0 -4.113,0.863 -5.496,2.589 -1.383,1.727 -2.074,4.168 -2.074,7.325 0,3.093 0.668,5.503 2.004,7.23 1.335,1.727 3.191,2.59 5.566,2.59 1.437,0 2.805,-0.297 4.101,-0.891 1.297,-0.593 2.446,-1.359 3.446,-2.297 l 0.258,0 0,4.946 c -0.438,0.203 -0.985,0.449 -1.641,0.738 -0.656,0.289 -1.25,0.504 -1.781,0.645 -0.75,0.218 -1.422,0.386 -2.016,0.503 -0.594,0.118 -1.359,0.176 -2.297,0.176 z" /><path
         inkscape:connector-curvature="0"
         id="path74"
         style="fill-rule:nonzero"
         d="m 337.11,455.39 0,-7.266 c -1.046,0.094 -2.371,0.223 -3.972,0.387 -1.602,0.164 -2.895,0.395 -3.879,0.691 -1.172,0.36 -2.141,0.911 -2.906,1.653 -0.766,0.742 -1.149,1.777 -1.149,3.105 0,1.5 0.422,2.633 1.266,3.399 0.844,0.765 2.078,1.148 3.703,1.148 1.391,0 2.648,-0.301 3.773,-0.902 1.125,-0.602 2.18,-1.34 3.164,-2.215 z m 0,3.656 c -0.359,0.266 -0.839,0.637 -1.441,1.113 -0.602,0.477 -1.184,0.856 -1.746,1.137 -0.781,0.406 -1.535,0.719 -2.262,0.938 -0.726,0.218 -1.746,0.328 -3.058,0.328 -1.079,0 -2.102,-0.203 -3.071,-0.61 -0.968,-0.406 -1.82,-0.976 -2.554,-1.71 -0.704,-0.719 -1.266,-1.606 -1.688,-2.661 -0.422,-1.054 -0.633,-2.168 -0.633,-3.339 0,-1.813 0.383,-3.356 1.149,-4.629 0.765,-1.274 1.976,-2.286 3.633,-3.036 1.468,-0.671 3.203,-1.136 5.203,-1.394 2,-0.258 4.156,-0.449 6.468,-0.574 l 0,-0.844 c 0,-1.031 -0.156,-1.863 -0.468,-2.496 -0.313,-0.633 -0.75,-1.121 -1.313,-1.465 -0.562,-0.359 -1.25,-0.598 -2.062,-0.715 -0.813,-0.117 -1.649,-0.176 -2.508,-0.176 -1.016,0 -2.211,0.153 -3.586,0.457 -1.375,0.305 -2.75,0.747 -4.125,1.325 l -0.258,0 0,-4.477 c 0.813,-0.234 1.977,-0.492 3.492,-0.773 1.516,-0.282 3.016,-0.422 4.5,-0.422 1.797,0 3.313,0.14 4.547,0.422 1.235,0.281 2.344,0.789 3.328,1.523 0.953,0.719 1.664,1.649 2.133,2.789 0.469,1.141 0.703,2.531 0.703,4.172 l 0,17.906 -4.383,0 0,-2.789 z" /><rect
         id="rect76"
         style="fill-rule:nonzero"
         height="36.469002"
         width="4.4060001"
         y="425.367"
         x="350.17401" /><path
         inkscape:connector-curvature="0"
         id="path78"
         style="fill-rule:nonzero"
         d="m 401.006,461.835 -4.407,0 0,-2.672 c -0.687,0.579 -1.281,1.055 -1.781,1.43 -0.5,0.375 -1.086,0.719 -1.758,1.031 -0.625,0.297 -1.273,0.528 -1.945,0.692 -0.672,0.164 -1.453,0.246 -2.344,0.246 -1.422,0 -2.738,-0.297 -3.949,-0.891 -1.211,-0.594 -2.238,-1.461 -3.082,-2.601 -0.859,-1.157 -1.523,-2.582 -1.992,-4.278 -0.469,-1.695 -0.703,-3.644 -0.703,-5.847 0,-2.297 0.297,-4.286 0.89,-5.965 0.594,-1.68 1.414,-3.145 2.461,-4.395 0.953,-1.14 2.106,-2.035 3.457,-2.683 1.352,-0.649 2.77,-0.973 4.254,-0.973 1.313,0 2.453,0.145 3.422,0.434 0.969,0.289 1.992,0.738 3.07,1.347 l 0,-11.343 4.407,0 0,36.468 z m -4.407,-6.375 0,-15.093 c -1.093,-0.532 -2.074,-0.899 -2.941,-1.102 -0.867,-0.203 -1.809,-0.305 -2.824,-0.305 -2.266,0 -4.039,0.848 -5.32,2.543 -1.282,1.696 -1.922,4.145 -1.922,7.348 0,3.078 0.492,5.433 1.476,7.066 0.985,1.633 2.563,2.45 4.735,2.45 1.156,0 2.32,-0.262 3.492,-0.786 1.172,-0.523 2.273,-1.23 3.304,-2.121 z" /><path
         inkscape:connector-curvature="0"
         id="path80"
         style="fill-rule:nonzero"
         d="m 424.406,455.39 0,-7.266 c -1.047,0.094 -2.371,0.223 -3.973,0.387 -1.601,0.164 -2.894,0.395 -3.879,0.691 -1.172,0.36 -2.14,0.911 -2.906,1.653 -0.766,0.742 -1.149,1.777 -1.149,3.105 0,1.5 0.422,2.633 1.266,3.399 0.844,0.765 2.078,1.148 3.703,1.148 1.391,0 2.649,-0.301 3.774,-0.902 1.125,-0.602 2.179,-1.34 3.164,-2.215 z m 0,3.656 c -0.36,0.266 -0.84,0.637 -1.442,1.113 -0.601,0.477 -1.183,0.856 -1.746,1.137 -0.781,0.406 -1.535,0.719 -2.261,0.938 -0.727,0.218 -1.747,0.328 -3.059,0.328 -1.078,0 -2.102,-0.203 -3.07,-0.61 -0.969,-0.406 -1.821,-0.976 -2.555,-1.71 -0.703,-0.719 -1.266,-1.606 -1.688,-2.661 -0.421,-1.054 -0.632,-2.168 -0.632,-3.339 0,-1.813 0.382,-3.356 1.148,-4.629 0.766,-1.274 1.977,-2.286 3.633,-3.036 1.469,-0.671 3.203,-1.136 5.203,-1.394 2,-0.258 4.156,-0.449 6.469,-0.574 l 0,-0.844 c 0,-1.031 -0.157,-1.863 -0.469,-2.496 -0.313,-0.633 -0.75,-1.121 -1.313,-1.465 -0.562,-0.359 -1.25,-0.598 -2.062,-0.715 -0.813,-0.117 -1.648,-0.176 -2.508,-0.176 -1.015,0 -2.211,0.153 -3.586,0.457 -1.375,0.305 -2.75,0.747 -4.125,1.325 l -0.258,0 0,-4.477 c 0.813,-0.234 1.977,-0.492 3.493,-0.773 1.515,-0.282 3.015,-0.422 4.5,-0.422 1.796,0 3.312,0.14 4.546,0.422 1.235,0.281 2.344,0.789 3.329,1.523 0.953,0.719 1.664,1.649 2.132,2.789 0.469,1.141 0.704,2.531 0.704,4.172 l 0,17.906 -4.383,0 0,-2.789 z" /><path
         inkscape:connector-curvature="0"
         id="path82"
         style="fill-rule:nonzero"
         d="m 469.11,435.656 -6.632,26.179 -4.079,0 -6.398,-20.179 -6.352,20.179 -4.054,0 -6.703,-26.179 4.593,0 4.618,20.273 6.211,-20.273 3.632,0 6.375,20.273 4.36,-20.273 4.429,0 z" /><path
         inkscape:connector-curvature="0"
         id="path84"
         style="fill-rule:nonzero"
         d="m 495.979,461.835 -4.406,0 0,-14.906 c 0,-1.203 -0.059,-2.324 -0.176,-3.363 -0.117,-1.039 -0.34,-1.871 -0.668,-2.496 -0.359,-0.657 -0.859,-1.145 -1.5,-1.465 -0.64,-0.321 -1.515,-0.481 -2.625,-0.481 -1.094,0 -2.222,0.293 -3.387,0.879 -1.164,0.586 -2.3,1.348 -3.41,2.285 l 0,19.547 -4.406,0 0,-26.179 4.406,0 0,2.906 c 1.313,-1.172 2.61,-2.07 3.891,-2.695 1.281,-0.625 2.633,-0.938 4.055,-0.938 2.578,0 4.593,0.848 6.046,2.543 1.454,1.695 2.18,4.152 2.18,7.371 l 0,16.992 z" /></g><g
       id="g86"
       transform="matrix(0.994027,0.10913,-0.10913,0.994027,841.746,-117.754)"><path
         inkscape:connector-curvature="0"
         id="path88"
         style="fill-rule:nonzero"
         d="m 189.249,472.674 c -1.796,0 -3.445,-0.278 -4.945,-0.832 -1.5,-0.555 -2.789,-1.395 -3.867,-2.52 -1.078,-1.125 -1.914,-2.543 -2.508,-4.254 -0.594,-1.711 -0.891,-3.722 -0.891,-6.035 0,-2.297 0.309,-4.281 0.926,-5.953 0.617,-1.672 1.442,-3.078 2.473,-4.219 1.031,-1.14 2.316,-2.019 3.855,-2.636 1.539,-0.618 3.192,-0.926 4.957,-0.926 1.438,0 2.825,0.203 4.161,0.609 1.335,0.406 2.527,0.875 3.574,1.406 l 0,4.946 -0.258,0 c -0.313,-0.266 -0.715,-0.571 -1.207,-0.914 -0.492,-0.344 -1.09,-0.696 -1.793,-1.055 -0.609,-0.312 -1.328,-0.586 -2.156,-0.82 -0.828,-0.235 -1.625,-0.352 -2.391,-0.352 -2.281,0 -4.113,0.863 -5.496,2.59 -1.383,1.727 -2.074,4.168 -2.074,7.324 0,3.094 0.668,5.504 2.004,7.231 1.336,1.726 3.191,2.59 5.566,2.59 1.438,0 2.805,-0.297 4.102,-0.891 1.297,-0.594 2.445,-1.359 3.445,-2.297 l 0.258,0 0,4.945 c -0.438,0.203 -0.985,0.45 -1.641,0.739 -0.656,0.289 -1.25,0.504 -1.781,0.644 -0.75,0.219 -1.422,0.387 -2.016,0.504 -0.593,0.117 -1.359,0.176 -2.297,0.176 z" /><path
         inkscape:connector-curvature="0"
         id="path90"
         style="fill-rule:nonzero"
         d="m 207.892,472.088 -4.407,0 0,-26.18 4.407,0 0,26.18 z m 0.304,-30.563 -5.015,0 0,-4.57 5.015,0 0,4.57 z" /><path
         inkscape:connector-curvature="0"
         id="path92"
         style="fill-rule:nonzero"
         d="m 237.338,445.908 -9.867,26.18 -3.961,0 -9.797,-26.18 4.758,0 7.172,20.203 7.102,-20.203 4.593,0 z" /><path
         inkscape:connector-curvature="0"
         id="path94"
         style="fill-rule:nonzero"
         d="m 247.567,472.088 -4.407,0 0,-26.18 4.407,0 0,26.18 z m 0.304,-30.563 -5.015,0 0,-4.57 5.015,0 0,4.57 z" /><rect
         id="rect96"
         style="fill-rule:nonzero"
         height="36.469002"
         width="4.4060001"
         y="435.61899"
         x="256.52899" /><path
         inkscape:connector-curvature="0"
         id="path98"
         style="fill-rule:nonzero"
         d="m 307.36,472.088 -4.406,0 0,-2.672 c -0.687,0.578 -1.281,1.055 -1.781,1.43 -0.5,0.375 -1.086,0.718 -1.758,1.031 -0.625,0.297 -1.273,0.527 -1.945,0.691 -0.672,0.164 -1.453,0.246 -2.344,0.246 -1.422,0 -2.738,-0.296 -3.949,-0.89 -1.211,-0.594 -2.239,-1.461 -3.082,-2.602 -0.86,-1.156 -1.524,-2.582 -1.992,-4.277 -0.469,-1.695 -0.704,-3.645 -0.704,-5.848 0,-2.297 0.297,-4.285 0.891,-5.965 0.594,-1.679 1.414,-3.144 2.461,-4.394 0.953,-1.141 2.105,-2.035 3.457,-2.684 1.352,-0.648 2.77,-0.972 4.254,-0.972 1.312,0 2.453,0.144 3.422,0.433 0.969,0.289 1.992,0.739 3.07,1.348 l 0,-11.344 4.406,0 0,36.469 z m -4.406,-6.375 0,-15.094 c -1.094,-0.531 -2.074,-0.898 -2.941,-1.101 -0.868,-0.204 -1.809,-0.305 -2.825,-0.305 -2.265,0 -4.039,0.848 -5.32,2.543 -1.281,1.695 -1.922,4.144 -1.922,7.348 0,3.078 0.492,5.433 1.477,7.066 0.984,1.633 2.562,2.449 4.734,2.449 1.156,0 2.321,-0.262 3.492,-0.785 1.172,-0.523 2.274,-1.23 3.305,-2.121 z" /><path
         inkscape:connector-curvature="0"
         id="path100"
         style="fill-rule:nonzero"
         d="m 330.76,465.643 0,-7.266 c -1.047,0.094 -2.371,0.223 -3.972,0.387 -1.602,0.164 -2.895,0.394 -3.879,0.691 -1.172,0.359 -2.141,0.91 -2.906,1.652 -0.766,0.743 -1.149,1.778 -1.149,3.106 0,1.5 0.422,2.633 1.266,3.398 0.843,0.766 2.078,1.149 3.703,1.149 1.39,0 2.648,-0.301 3.773,-0.903 1.125,-0.601 2.18,-1.339 3.164,-2.214 z m 0,3.656 c -0.359,0.265 -0.84,0.637 -1.441,1.113 -0.602,0.477 -1.184,0.856 -1.746,1.137 -0.781,0.406 -1.535,0.719 -2.262,0.937 -0.726,0.219 -1.746,0.328 -3.058,0.328 -1.079,0 -2.102,-0.203 -3.071,-0.609 -0.969,-0.406 -1.82,-0.976 -2.554,-1.711 -0.704,-0.719 -1.266,-1.605 -1.688,-2.66 -0.422,-1.055 -0.633,-2.168 -0.633,-3.34 0,-1.812 0.383,-3.355 1.149,-4.629 0.765,-1.273 1.976,-2.285 3.632,-3.035 1.469,-0.672 3.204,-1.137 5.204,-1.394 2,-0.258 4.156,-0.45 6.468,-0.575 l 0,-0.843 c 0,-1.032 -0.156,-1.864 -0.468,-2.497 -0.313,-0.632 -0.75,-1.121 -1.313,-1.464 -0.562,-0.36 -1.25,-0.598 -2.062,-0.715 -0.813,-0.117 -1.649,-0.176 -2.508,-0.176 -1.016,0 -2.211,0.152 -3.586,0.457 -1.375,0.305 -2.75,0.746 -4.125,1.324 l -0.258,0 0,-4.476 c 0.813,-0.235 1.977,-0.492 3.492,-0.774 1.516,-0.281 3.016,-0.422 4.5,-0.422 1.797,0 3.313,0.141 4.547,0.422 1.234,0.282 2.344,0.789 3.328,1.524 0.953,0.718 1.664,1.648 2.133,2.789 0.469,1.14 0.703,2.531 0.703,4.172 l 0,17.906 -4.383,0 0,-2.789 z" /><path
         inkscape:connector-curvature="0"
         id="path102"
         style="fill-rule:nonzero"
         d="m 375.465,445.908 -6.633,26.18 -4.078,0 -6.398,-20.18 -6.352,20.18 -4.055,0 -6.703,-26.18 4.594,0 4.617,20.274 6.211,-20.274 3.633,0 6.375,20.274 4.359,-20.274 4.43,0 z" /><path
         inkscape:connector-curvature="0"
         id="path104"
         style="fill-rule:nonzero"
         d="m 402.334,472.088 -4.406,0 0,-14.906 c 0,-1.203 -0.059,-2.325 -0.176,-3.364 -0.117,-1.039 -0.34,-1.871 -0.668,-2.496 -0.36,-0.656 -0.86,-1.144 -1.5,-1.465 -0.641,-0.32 -1.516,-0.48 -2.625,-0.48 -1.094,0 -2.223,0.293 -3.387,0.879 -1.164,0.586 -2.301,1.348 -3.41,2.285 l 0,19.547 -4.406,0 0,-26.18 4.406,0 0,2.906 c 1.312,-1.171 2.609,-2.07 3.891,-2.695 1.281,-0.625 2.632,-0.937 4.054,-0.937 2.578,0 4.594,0.847 6.047,2.543 1.453,1.695 2.18,4.152 2.18,7.371 l 0,16.992 z" /></g><g
       id="g106"
       transform="matrix(0.950989,0.309224,-0.309224,0.950989,227.4461,-274.846)"><path
         inkscape:connector-curvature="0"
         id="path108"
         style="fill-rule:nonzero"
         d="m 948.664,695.92 0,-7.266 c -1.047,0.094 -2.371,0.223 -3.972,0.387 -1.602,0.164 -2.895,0.394 -3.879,0.691 -1.172,0.359 -2.141,0.91 -2.907,1.652 -0.765,0.743 -1.148,1.778 -1.148,3.106 0,1.5 0.422,2.633 1.266,3.398 0.843,0.766 2.078,1.149 3.703,1.149 1.39,0 2.648,-0.301 3.773,-0.903 1.125,-0.601 2.18,-1.339 3.164,-2.214 z m 0,3.656 c -0.359,0.265 -0.84,0.636 -1.441,1.113 -0.602,0.477 -1.184,0.856 -1.746,1.137 -0.781,0.406 -1.535,0.719 -2.262,0.937 -0.726,0.219 -1.746,0.328 -3.059,0.328 -1.078,0 -2.101,-0.203 -3.07,-0.609 -0.969,-0.406 -1.82,-0.977 -2.555,-1.711 -0.703,-0.719 -1.265,-1.605 -1.687,-2.66 -0.422,-1.055 -0.633,-2.168 -0.633,-3.34 0,-1.812 0.383,-3.355 1.149,-4.629 0.765,-1.273 1.976,-2.285 3.632,-3.035 1.469,-0.672 3.204,-1.137 5.204,-1.395 2,-0.257 4.156,-0.449 6.468,-0.574 l 0,-0.843 c 0,-1.032 -0.156,-1.864 -0.468,-2.497 -0.313,-0.632 -0.75,-1.121 -1.313,-1.464 -0.562,-0.36 -1.25,-0.598 -2.062,-0.715 -0.813,-0.117 -1.649,-0.176 -2.508,-0.176 -1.016,0 -2.211,0.152 -3.586,0.457 -1.375,0.305 -2.75,0.746 -4.125,1.324 l -0.258,0 0,-4.476 c 0.812,-0.235 1.977,-0.493 3.492,-0.774 1.516,-0.281 3.016,-0.422 4.5,-0.422 1.797,0 3.313,0.141 4.547,0.422 1.234,0.281 2.344,0.789 3.328,1.524 0.953,0.718 1.664,1.648 2.133,2.789 0.469,1.14 0.703,2.531 0.703,4.172 l 0,17.906 -4.383,0 0,-2.789 z" /><path
         inkscape:connector-curvature="0"
         id="path110"
         style="fill-rule:nonzero"
         d="m 968.713,702.998 c -1.75,0 -3.387,-0.235 -4.91,-0.703 -1.524,-0.469 -2.786,-0.969 -3.786,-1.5 l 0,-4.946 0.235,0 c 0.375,0.297 0.816,0.625 1.324,0.985 0.508,0.359 1.184,0.734 2.027,1.125 0.75,0.343 1.575,0.648 2.473,0.914 0.898,0.265 1.832,0.398 2.801,0.398 0.703,0 1.453,-0.082 2.25,-0.246 0.797,-0.164 1.39,-0.371 1.781,-0.621 0.547,-0.359 0.941,-0.742 1.184,-1.149 0.242,-0.406 0.363,-1.015 0.363,-1.828 0,-1.047 -0.285,-1.836 -0.856,-2.367 -0.57,-0.531 -1.582,-0.976 -3.035,-1.336 -0.562,-0.14 -1.297,-0.304 -2.203,-0.492 -0.906,-0.187 -1.742,-0.391 -2.508,-0.609 -2,-0.578 -3.453,-1.473 -4.359,-2.684 -0.906,-1.211 -1.359,-2.676 -1.359,-4.394 0,-2.36 0.89,-4.282 2.671,-5.766 1.782,-1.484 4.149,-2.227 7.102,-2.227 1.453,0 2.914,0.18 4.383,0.539 1.469,0.36 2.703,0.813 3.703,1.36 l 0,4.711 -0.234,0 c -1.125,-0.891 -2.379,-1.594 -3.762,-2.11 -1.383,-0.515 -2.777,-0.773 -4.184,-0.773 -1.453,0 -2.679,0.305 -3.679,0.914 -1,0.609 -1.5,1.531 -1.5,2.766 0,1.093 0.296,1.91 0.89,2.449 0.594,0.539 1.547,0.98 2.86,1.324 0.656,0.172 1.386,0.34 2.191,0.504 0.805,0.164 1.652,0.355 2.543,0.574 1.937,0.485 3.395,1.289 4.371,2.414 0.977,1.125 1.465,2.656 1.465,4.594 0,1.125 -0.223,2.191 -0.668,3.199 -0.445,1.008 -1.098,1.871 -1.957,2.59 -0.938,0.781 -1.996,1.375 -3.176,1.781 -1.18,0.407 -2.66,0.61 -4.441,0.61 z" /><path
         inkscape:connector-curvature="0"
         id="path112"
         style="fill-rule:nonzero"
         d="m 993.378,702.88 c -2.406,0 -4.281,-0.683 -5.625,-2.05 -1.343,-1.368 -2.015,-3.528 -2.015,-6.481 l 0,-14.508 -2.977,0 0,-3.656 2.977,0 0,-7.523 4.406,0 0,7.523 8.109,0 0,3.656 -8.109,0 0,12.446 c 0,1.328 0.023,2.351 0.07,3.07 0.047,0.719 0.227,1.391 0.539,2.016 0.266,0.547 0.696,0.957 1.289,1.23 0.594,0.274 1.399,0.41 2.414,0.41 0.719,0 1.415,-0.105 2.086,-0.316 0.672,-0.211 1.157,-0.387 1.454,-0.527 l 0.257,0 0,3.96 c -0.828,0.235 -1.668,0.418 -2.519,0.551 -0.852,0.133 -1.637,0.199 -2.356,0.199 z" /><path
         inkscape:connector-curvature="0"
         id="path114"
         style="fill-rule:nonzero"
         d="m 1017.79,680.92 -0.24,0 c -0.33,-0.094 -0.67,-0.153 -1.04,-0.176 -0.37,-0.024 -0.81,-0.035 -1.32,-0.035 -1.19,0 -2.37,0.257 -3.54,0.773 -1.18,0.516 -2.29,1.281 -3.33,2.297 l 0,18.586 -4.41,0 0,-26.18 4.41,0 0,3.891 c 1.61,-1.422 3.01,-2.426 4.2,-3.012 1.2,-0.586 2.36,-0.879 3.48,-0.879 0.46,0 0.8,0.012 1.02,0.035 0.23,0.024 0.48,0.059 0.77,0.106 l 0,4.594 z" /><path
         inkscape:connector-curvature="0"
         id="path116"
         style="fill-rule:nonzero"
         d="m 1045.15,689.287 c 0,4.406 -1.06,7.808 -3.19,10.207 -2.12,2.398 -4.95,3.597 -8.49,3.597 -3.63,0 -6.5,-1.238 -8.59,-3.714 -2.08,-2.477 -3.12,-5.84 -3.12,-10.09 0,-4.375 1.07,-7.774 3.22,-10.196 2.15,-2.421 4.98,-3.632 8.49,-3.632 3.54,0 6.37,1.207 8.49,3.621 2.13,2.414 3.19,5.816 3.19,10.207 z m -4.55,0 c 0,-3.391 -0.62,-5.91 -1.85,-7.559 -1.24,-1.648 -2.99,-2.473 -5.28,-2.473 -2.29,0 -4.06,0.825 -5.3,2.473 -1.25,1.649 -1.87,4.168 -1.87,7.559 0,3.281 0.62,5.769 1.87,7.465 1.24,1.695 3.01,2.543 5.3,2.543 2.27,0 4.03,-0.833 5.27,-2.497 1.24,-1.664 1.86,-4.168 1.86,-7.511 z" /><path
         inkscape:connector-curvature="0"
         id="path118"
         style="fill-rule:nonzero"
         d="m 1072.65,702.365 -4.41,0 0,-14.906 c 0,-1.204 -0.06,-2.325 -0.17,-3.364 -0.12,-1.039 -0.34,-1.871 -0.67,-2.496 -0.36,-0.656 -0.86,-1.144 -1.5,-1.465 -0.64,-0.32 -1.52,-0.48 -2.63,-0.48 -1.09,0 -2.22,0.293 -3.38,0.879 -1.17,0.586 -2.3,1.347 -3.41,2.285 l 0,19.547 -4.41,0 0,-26.18 4.41,0 0,2.906 c 1.31,-1.171 2.61,-2.07 3.89,-2.695 1.28,-0.625 2.63,-0.937 4.05,-0.937 2.58,0 4.6,0.847 6.05,2.543 1.45,1.695 2.18,4.152 2.18,7.371 l 0,16.992 z" /><path
         inkscape:connector-curvature="0"
         id="path120"
         style="fill-rule:nonzero"
         d="m 1102.78,689.287 c 0,4.406 -1.07,7.808 -3.19,10.207 -2.13,2.398 -4.96,3.597 -8.49,3.597 -3.64,0 -6.5,-1.238 -8.59,-3.714 -2.08,-2.477 -3.13,-5.84 -3.13,-10.09 0,-4.375 1.08,-7.774 3.23,-10.196 2.15,-2.421 4.98,-3.632 8.49,-3.632 3.53,0 6.36,1.207 8.49,3.621 2.12,2.414 3.19,5.816 3.19,10.207 z m -4.55,0 c 0,-3.391 -0.62,-5.91 -1.85,-7.559 -1.24,-1.648 -3,-2.473 -5.28,-2.473 -2.29,0 -4.06,0.825 -5.3,2.473 -1.25,1.649 -1.87,4.168 -1.87,7.559 0,3.281 0.62,5.769 1.87,7.465 1.24,1.695 3.01,2.543 5.3,2.543 2.27,0 4.02,-0.833 5.27,-2.497 1.24,-1.664 1.86,-4.168 1.86,-7.511 z" /><path
         inkscape:connector-curvature="0"
         id="path122"
         style="fill-rule:nonzero"
         d="m 1139.42,702.365 0,-15.141 c 0,-1.203 -0.05,-2.316 -0.14,-3.34 -0.1,-1.023 -0.29,-1.824 -0.59,-2.402 -0.31,-0.625 -0.76,-1.086 -1.33,-1.383 -0.58,-0.297 -1.36,-0.445 -2.35,-0.445 -0.9,0 -1.88,0.277 -2.92,0.832 -1.04,0.555 -2.11,1.355 -3.22,2.402 0.02,0.266 0.04,0.582 0.06,0.949 0.02,0.368 0.03,0.801 0.03,1.301 l 0,17.227 -4.4,0 0,-15.141 c 0,-1.203 -0.05,-2.316 -0.14,-3.34 -0.1,-1.023 -0.29,-1.824 -0.59,-2.402 -0.31,-0.625 -0.76,-1.086 -1.33,-1.383 -0.58,-0.297 -1.36,-0.445 -2.35,-0.445 -0.95,0 -1.95,0.297 -3,0.891 -1.04,0.593 -2.06,1.351 -3.04,2.273 l 0,19.547 -4.41,0 0,-26.18 4.41,0 0,2.906 c 1.15,-1.156 2.3,-2.05 3.43,-2.683 1.13,-0.633 2.38,-0.949 3.74,-0.949 1.54,0 2.91,0.351 4.11,1.054 1.2,0.703 2.11,1.86 2.73,3.469 1.33,-1.484 2.63,-2.609 3.89,-3.375 1.27,-0.766 2.64,-1.148 4.13,-1.148 1.12,0 2.15,0.175 3.07,0.527 0.92,0.351 1.72,0.918 2.41,1.699 0.7,0.797 1.25,1.789 1.63,2.977 0.38,1.187 0.57,2.679 0.57,4.476 l 0,17.227 -4.4,0 z" /><path
         inkscape:connector-curvature="0"
         id="path124"
         style="fill-rule:nonzero"
         d="m 1156.91,702.365 -4.4,0 0,-26.18 4.4,0 0,26.18 z m 0.31,-30.563 -5.02,0 0,-4.57 5.02,0 0,4.57 z" /><path
         inkscape:connector-curvature="0"
         id="path126"
         style="fill-rule:nonzero"
         d="m 1176.19,702.951 c -1.8,0 -3.45,-0.278 -4.95,-0.832 -1.5,-0.555 -2.79,-1.395 -3.87,-2.52 -1.07,-1.125 -1.91,-2.543 -2.5,-4.254 -0.6,-1.711 -0.89,-3.722 -0.89,-6.035 0,-2.297 0.3,-4.281 0.92,-5.953 0.62,-1.672 1.44,-3.078 2.47,-4.219 1.03,-1.14 2.32,-2.019 3.86,-2.636 1.54,-0.618 3.19,-0.926 4.96,-0.926 1.43,0 2.82,0.203 4.16,0.609 1.33,0.406 2.52,0.875 3.57,1.406 l 0,4.946 -0.26,0 c -0.31,-0.266 -0.71,-0.571 -1.2,-0.914 -0.5,-0.344 -1.09,-0.696 -1.8,-1.055 -0.61,-0.313 -1.32,-0.586 -2.15,-0.82 -0.83,-0.235 -1.63,-0.352 -2.39,-0.352 -2.28,0 -4.12,0.863 -5.5,2.59 -1.38,1.726 -2.07,4.168 -2.07,7.324 0,3.094 0.66,5.504 2,7.231 1.33,1.726 3.19,2.589 5.57,2.589 1.43,0 2.8,-0.296 4.1,-0.89 1.29,-0.594 2.44,-1.36 3.44,-2.297 l 0.26,0 0,4.945 c -0.44,0.203 -0.98,0.449 -1.64,0.739 -0.66,0.289 -1.25,0.503 -1.78,0.644 -0.75,0.219 -1.42,0.387 -2.02,0.504 -0.59,0.117 -1.36,0.176 -2.29,0.176 z" /><path
         inkscape:connector-curvature="0"
         id="path128"
         style="fill-rule:nonzero"
         d="m 1204.95,695.92 0,-7.266 c -1.04,0.094 -2.37,0.223 -3.97,0.387 -1.6,0.164 -2.89,0.394 -3.88,0.691 -1.17,0.359 -2.14,0.91 -2.9,1.652 -0.77,0.743 -1.15,1.778 -1.15,3.106 0,1.5 0.42,2.633 1.26,3.398 0.85,0.766 2.08,1.149 3.71,1.149 1.39,0 2.64,-0.301 3.77,-0.903 1.12,-0.601 2.18,-1.339 3.16,-2.214 z m 0,3.656 c -0.36,0.265 -0.84,0.636 -1.44,1.113 -0.6,0.477 -1.18,0.856 -1.74,1.137 -0.78,0.406 -1.54,0.719 -2.27,0.937 -0.72,0.219 -1.74,0.328 -3.05,0.328 -1.08,0 -2.11,-0.203 -3.07,-0.609 -0.97,-0.406 -1.82,-0.977 -2.56,-1.711 -0.7,-0.719 -1.26,-1.605 -1.69,-2.66 -0.42,-1.055 -0.63,-2.168 -0.63,-3.34 0,-1.812 0.38,-3.355 1.15,-4.629 0.76,-1.273 1.97,-2.285 3.63,-3.035 1.47,-0.672 3.21,-1.137 5.21,-1.395 2,-0.257 4.15,-0.449 6.46,-0.574 l 0,-0.843 c 0,-1.032 -0.15,-1.864 -0.46,-2.497 -0.32,-0.632 -0.75,-1.121 -1.32,-1.464 -0.56,-0.36 -1.25,-0.598 -2.06,-0.715 -0.81,-0.117 -1.65,-0.176 -2.51,-0.176 -1.01,0 -2.21,0.152 -3.58,0.457 -1.38,0.305 -2.75,0.746 -4.13,1.324 l -0.26,0 0,-4.476 c 0.82,-0.235 1.98,-0.493 3.49,-0.774 1.52,-0.281 3.02,-0.422 4.5,-0.422 1.8,0 3.32,0.141 4.55,0.422 1.24,0.281 2.35,0.789 3.33,1.524 0.95,0.718 1.66,1.648 2.13,2.789 0.47,1.14 0.71,2.531 0.71,4.172 l 0,17.906 -4.39,0 0,-2.789 z" /><rect
         id="rect130"
         style="fill-rule:nonzero"
         height="36.469002"
         width="4.4060001"
         y="665.896"
         x="1218.02" /><path
         inkscape:connector-curvature="0"
         id="path132"
         style="fill-rule:nonzero"
         d="m 1268.85,702.365 -4.41,0 0,-2.672 c -0.68,0.578 -1.28,1.055 -1.78,1.43 -0.5,0.375 -1.08,0.718 -1.76,1.031 -0.62,0.297 -1.27,0.527 -1.94,0.691 -0.67,0.164 -1.45,0.246 -2.35,0.246 -1.42,0 -2.73,-0.296 -3.95,-0.89 -1.21,-0.594 -2.23,-1.461 -3.08,-2.602 -0.86,-1.156 -1.52,-2.582 -1.99,-4.277 -0.47,-1.695 -0.7,-3.645 -0.7,-5.848 0,-2.297 0.29,-4.285 0.89,-5.965 0.59,-1.679 1.41,-3.144 2.46,-4.394 0.95,-1.141 2.11,-2.035 3.46,-2.684 1.35,-0.648 2.77,-0.972 4.25,-0.972 1.31,0 2.45,0.144 3.42,0.433 0.97,0.289 1.99,0.738 3.07,1.348 l 0,-11.344 4.41,0 0,36.469 z m -4.41,-6.375 0,-15.094 c -1.09,-0.531 -2.07,-0.898 -2.94,-1.101 -0.87,-0.204 -1.81,-0.305 -2.82,-0.305 -2.27,0 -4.04,0.847 -5.32,2.543 -1.28,1.695 -1.93,4.144 -1.93,7.347 0,3.079 0.5,5.434 1.48,7.067 0.99,1.633 2.56,2.449 4.74,2.449 1.15,0 2.32,-0.262 3.49,-0.785 1.17,-0.524 2.27,-1.231 3.3,-2.121 z" /><path
         inkscape:connector-curvature="0"
         id="path134"
         style="fill-rule:nonzero"
         d="m 1292.25,695.92 0,-7.266 c -1.05,0.094 -2.37,0.223 -3.97,0.387 -1.61,0.164 -2.9,0.394 -3.88,0.691 -1.17,0.359 -2.14,0.91 -2.91,1.652 -0.76,0.743 -1.15,1.778 -1.15,3.106 0,1.5 0.42,2.633 1.27,3.398 0.84,0.766 2.08,1.149 3.7,1.149 1.39,0 2.65,-0.301 3.78,-0.903 1.12,-0.601 2.17,-1.339 3.16,-2.214 z m 0,3.656 c -0.36,0.265 -0.84,0.636 -1.44,1.113 -0.6,0.477 -1.19,0.856 -1.75,1.137 -0.78,0.406 -1.53,0.719 -2.26,0.937 -0.73,0.219 -1.75,0.328 -3.06,0.328 -1.08,0 -2.1,-0.203 -3.07,-0.609 -0.97,-0.406 -1.82,-0.977 -2.55,-1.711 -0.71,-0.719 -1.27,-1.605 -1.69,-2.66 -0.42,-1.055 -0.63,-2.168 -0.63,-3.34 0,-1.812 0.38,-3.355 1.14,-4.629 0.77,-1.273 1.98,-2.285 3.64,-3.035 1.47,-0.672 3.2,-1.137 5.2,-1.395 2,-0.257 4.16,-0.449 6.47,-0.574 l 0,-0.843 c 0,-1.032 -0.16,-1.864 -0.47,-2.497 -0.31,-0.632 -0.75,-1.121 -1.31,-1.464 -0.57,-0.36 -1.25,-0.598 -2.07,-0.715 -0.81,-0.117 -1.64,-0.176 -2.5,-0.176 -1.02,0 -2.21,0.152 -3.59,0.457 -1.37,0.305 -2.75,0.746 -4.12,1.324 l -0.26,0 0,-4.476 c 0.81,-0.235 1.97,-0.493 3.49,-0.774 1.52,-0.281 3.02,-0.422 4.5,-0.422 1.8,0 3.31,0.141 4.55,0.422 1.23,0.281 2.34,0.789 3.33,1.524 0.95,0.718 1.66,1.648 2.13,2.789 0.47,1.14 0.7,2.531 0.7,4.172 l 0,17.906 -4.38,0 0,-2.789 z" /><path
         inkscape:connector-curvature="0"
         id="path136"
         style="fill-rule:nonzero"
         d="m 1336.95,676.185 -6.63,26.18 -4.08,0 -6.4,-20.18 -6.35,20.18 -4.05,0 -6.7,-26.18 4.59,0 4.62,20.274 6.21,-20.274 3.63,0 6.37,20.274 4.36,-20.274 4.43,0 z" /><path
         inkscape:connector-curvature="0"
         id="path138"
         style="fill-rule:nonzero"
         d="m 1363.82,702.365 -4.4,0 0,-14.906 c 0,-1.204 -0.06,-2.325 -0.18,-3.364 -0.12,-1.039 -0.34,-1.871 -0.67,-2.496 -0.36,-0.656 -0.86,-1.144 -1.5,-1.465 -0.64,-0.32 -1.51,-0.48 -2.62,-0.48 -1.1,0 -2.23,0.293 -3.39,0.879 -1.16,0.586 -2.3,1.347 -3.41,2.285 l 0,19.547 -4.41,0 0,-26.18 4.41,0 0,2.906 c 1.31,-1.171 2.61,-2.07 3.89,-2.695 1.28,-0.625 2.63,-0.937 4.06,-0.937 2.57,0 4.59,0.847 6.04,2.543 1.46,1.695 2.18,4.152 2.18,7.371 l 0,16.992 z" /></g><g
       id="g140"
       transform="matrix(0.930331,0.36672,-0.36672,0.930331,806.841,-161.333)"><path
         inkscape:connector-curvature="0"
         id="path142"
         style="fill:#ffffff;fill-rule:nonzero"
         d="m 208.108,847.292 -4.406,0 0,-14.906 c 0,-1.204 -0.059,-2.325 -0.176,-3.364 -0.117,-1.039 -0.34,-1.871 -0.668,-2.496 -0.359,-0.656 -0.859,-1.144 -1.5,-1.465 -0.64,-0.32 -1.515,-0.48 -2.625,-0.48 -1.094,0 -2.222,0.293 -3.387,0.879 -1.164,0.586 -2.3,1.347 -3.41,2.285 l 0,19.547 -4.406,0 0,-26.18 4.406,0 0,2.906 c 1.313,-1.172 2.61,-2.07 3.891,-2.695 1.281,-0.625 2.633,-0.937 4.055,-0.937 2.578,0 4.593,0.847 6.046,2.543 1.454,1.695 2.18,4.152 2.18,7.371 l 0,16.992 z" /><path
         inkscape:connector-curvature="0"
         id="path144"
         style="fill:#ffffff;fill-rule:nonzero"
         d="m 221.196,847.292 -4.407,0 0,-26.18 4.407,0 0,26.18 z m 0.304,-30.563 -5.015,0 0,-4.57 5.015,0 0,4.57 z" /><path
         inkscape:connector-curvature="0"
         id="path146"
         style="fill:#ffffff;fill-rule:nonzero"
         d="m 245.814,840.19 0,-14.367 c -1.093,-0.531 -2.105,-0.91 -3.035,-1.137 -0.929,-0.226 -1.855,-0.34 -2.777,-0.34 -2.234,0 -3.992,0.821 -5.274,2.461 -1.281,1.641 -1.921,3.993 -1.921,7.055 0,2.906 0.488,5.117 1.464,6.633 0.977,1.516 2.559,2.273 4.747,2.273 1.14,0 2.316,-0.226 3.527,-0.679 1.211,-0.453 2.301,-1.086 3.269,-1.899 z m -14.812,11.297 c 0.297,0.125 0.734,0.293 1.312,0.504 0.579,0.211 1.235,0.41 1.969,0.598 0.813,0.203 1.563,0.367 2.25,0.492 0.688,0.125 1.438,0.187 2.25,0.187 1.36,0 2.512,-0.179 3.457,-0.539 0.946,-0.359 1.684,-0.859 2.215,-1.5 0.5,-0.64 0.852,-1.383 1.055,-2.226 0.203,-0.844 0.304,-1.805 0.304,-2.883 l 0,-2.297 c -1.187,1.031 -2.351,1.793 -3.492,2.285 -1.14,0.492 -2.57,0.738 -4.289,0.738 -2.984,0 -5.359,-1.109 -7.125,-3.328 -1.765,-2.218 -2.648,-5.406 -2.648,-9.562 0,-2.172 0.304,-4.098 0.914,-5.777 0.609,-1.68 1.429,-3.106 2.461,-4.278 0.984,-1.125 2.148,-1.992 3.492,-2.601 1.344,-0.61 2.734,-0.914 4.172,-0.914 1.359,0 2.535,0.16 3.527,0.48 0.992,0.32 1.988,0.777 2.988,1.371 l 0.258,-1.125 4.149,0 0,23.203 c 0,4.438 -0.969,7.696 -2.907,9.774 -1.937,2.078 -4.898,3.117 -8.882,3.117 -1.282,0 -2.59,-0.102 -3.926,-0.305 -1.336,-0.203 -2.582,-0.476 -3.738,-0.82 l 0,-4.594 0.234,0 z" /><path
         inkscape:connector-curvature="0"
         id="path148"
         style="fill:#ffffff;fill-rule:nonzero"
         d="m 279.574,847.292 -4.406,0 0,-14.906 c 0,-1.204 -0.059,-2.325 -0.176,-3.364 -0.117,-1.039 -0.34,-1.871 -0.668,-2.496 -0.36,-0.656 -0.86,-1.144 -1.5,-1.465 -0.641,-0.32 -1.516,-0.48 -2.625,-0.48 -1.094,0 -2.223,0.293 -3.387,0.879 -1.164,0.586 -2.301,1.347 -3.41,2.285 l 0,19.547 -4.406,0 0,-36.469 4.406,0 0,13.195 c 1.312,-1.172 2.609,-2.07 3.891,-2.695 1.281,-0.625 2.632,-0.937 4.054,-0.937 2.578,0 4.594,0.847 6.047,2.543 1.453,1.695 2.18,4.152 2.18,7.371 l 0,16.992 z" /><path
         inkscape:connector-curvature="0"
         id="path150"
         style="fill:#ffffff;fill-rule:nonzero"
         d="m 296.083,847.807 c -2.406,0 -4.281,-0.683 -5.625,-2.05 -1.344,-1.368 -2.015,-3.528 -2.015,-6.481 l 0,-14.508 -2.977,0 0,-3.656 2.977,0 0,-7.523 4.406,0 0,7.523 8.109,0 0,3.656 -8.109,0 0,12.446 c 0,1.328 0.023,2.351 0.07,3.07 0.047,0.719 0.227,1.391 0.539,2.016 0.266,0.546 0.695,0.957 1.289,1.23 0.594,0.274 1.399,0.41 2.414,0.41 0.719,0 1.414,-0.105 2.086,-0.316 0.672,-0.211 1.156,-0.387 1.453,-0.528 l 0.258,0 0,3.961 c -0.828,0.235 -1.668,0.418 -2.519,0.551 -0.852,0.133 -1.637,0.199 -2.356,0.199 z" /></g><g
       id="g152"
       transform="translate(805.614,-44)"><path
         inkscape:connector-curvature="0"
         id="path154"
         style="fill-rule:nonzero"
         d="m 169.632,283.673 c -1.75,0 -3.387,-0.235 -4.91,-0.704 -1.524,-0.468 -2.786,-0.968 -3.786,-1.5 l 0,-4.945 0.235,0 c 0.375,0.297 0.816,0.625 1.324,0.985 0.508,0.359 1.184,0.734 2.027,1.125 0.75,0.343 1.575,0.648 2.473,0.914 0.898,0.265 1.832,0.398 2.801,0.398 0.703,0 1.453,-0.082 2.25,-0.246 0.797,-0.164 1.39,-0.371 1.781,-0.621 0.547,-0.36 0.941,-0.742 1.184,-1.149 0.242,-0.406 0.363,-1.015 0.363,-1.828 0,-1.047 -0.285,-1.836 -0.856,-2.367 -0.57,-0.531 -1.582,-0.976 -3.035,-1.336 -0.562,-0.14 -1.297,-0.305 -2.203,-0.492 -0.906,-0.188 -1.742,-0.391 -2.508,-0.609 -2,-0.579 -3.453,-1.473 -4.359,-2.684 -0.906,-1.211 -1.359,-2.676 -1.359,-4.395 0,-2.359 0.89,-4.281 2.671,-5.765 1.782,-1.485 4.149,-2.227 7.102,-2.227 1.453,0 2.914,0.18 4.383,0.539 1.469,0.36 2.703,0.813 3.703,1.36 l 0,4.711 -0.234,0 c -1.125,-0.891 -2.379,-1.594 -3.762,-2.11 -1.383,-0.515 -2.777,-0.773 -4.184,-0.773 -1.453,0 -2.679,0.305 -3.679,0.914 -1,0.609 -1.5,1.531 -1.5,2.766 0,1.093 0.296,1.91 0.89,2.449 0.594,0.539 1.547,0.98 2.86,1.324 0.656,0.172 1.386,0.34 2.191,0.504 0.805,0.164 1.652,0.355 2.543,0.574 1.937,0.484 3.395,1.289 4.371,2.414 0.977,1.125 1.465,2.656 1.465,4.594 0,1.125 -0.223,2.191 -0.668,3.199 -0.445,1.008 -1.098,1.871 -1.957,2.59 -0.938,0.781 -1.996,1.375 -3.176,1.781 -1.18,0.406 -2.66,0.61 -4.441,0.61 z" /><path
         inkscape:connector-curvature="0"
         id="path156"
         style="fill-rule:nonzero"
         d="m 206.766,283.04 -4.406,0 0,-2.906 c -1.36,1.187 -2.649,2.089 -3.867,2.707 -1.219,0.617 -2.578,0.925 -4.078,0.925 -1.141,0 -2.215,-0.187 -3.223,-0.562 -1.008,-0.375 -1.887,-0.969 -2.637,-1.781 -0.75,-0.813 -1.332,-1.836 -1.746,-3.071 -0.414,-1.234 -0.621,-2.734 -0.621,-4.5 l 0,-16.992 4.406,0 0,14.906 c 0,1.391 0.051,2.543 0.153,3.457 0.101,0.914 0.332,1.715 0.691,2.403 0.359,0.672 0.848,1.164 1.465,1.476 0.617,0.313 1.504,0.469 2.66,0.469 1.078,0 2.227,-0.305 3.445,-0.914 1.219,-0.609 2.336,-1.359 3.352,-2.25 l 0,-19.547 4.406,0 0,26.18 z" /><path
         inkscape:connector-curvature="0"
         id="path158"
         style="fill-rule:nonzero"
         d="m 236.119,283.04 -4.406,0 0,-14.906 c 0,-1.204 -0.059,-2.325 -0.176,-3.364 -0.117,-1.039 -0.34,-1.871 -0.668,-2.496 -0.359,-0.656 -0.859,-1.144 -1.5,-1.465 -0.64,-0.32 -1.515,-0.48 -2.625,-0.48 -1.094,0 -2.222,0.293 -3.386,0.879 -1.165,0.586 -2.301,1.347 -3.411,2.285 l 0,19.547 -4.406,0 0,-26.18 4.406,0 0,2.906 c 1.313,-1.172 2.61,-2.07 3.891,-2.695 1.281,-0.625 2.633,-0.937 4.055,-0.937 2.578,0 4.593,0.847 6.047,2.542 1.453,1.696 2.179,4.153 2.179,7.372 l 0,16.992 z" /><path
         inkscape:connector-curvature="0"
         id="path160"
         style="fill-rule:nonzero"
         d="m 258.582,261.594 -0.235,0 c -0.328,-0.093 -0.675,-0.152 -1.043,-0.175 -0.367,-0.024 -0.808,-0.035 -1.324,-0.035 -1.187,0 -2.367,0.257 -3.539,0.773 -1.172,0.516 -2.281,1.281 -3.328,2.297 l 0,18.586 -4.406,0 0,-26.18 4.406,0 0,3.891 c 1.609,-1.422 3.012,-2.426 4.207,-3.012 1.195,-0.586 2.355,-0.879 3.48,-0.879 0.454,0 0.793,0.012 1.02,0.035 0.227,0.024 0.48,0.059 0.762,0.106 l 0,4.593 z" /><path
         inkscape:connector-curvature="0"
         id="path162"
         style="fill-rule:nonzero"
         d="m 268.904,283.04 -4.407,0 0,-26.18 4.407,0 0,26.18 z m 0.304,-30.563 -5.015,0 0,-4.57 5.015,0 0,4.57 z" /><path
         inkscape:connector-curvature="0"
         id="path164"
         style="fill-rule:nonzero"
         d="m 284.85,283.673 c -1.75,0 -3.386,-0.235 -4.91,-0.704 -1.523,-0.468 -2.785,-0.968 -3.785,-1.5 l 0,-4.945 0.235,0 c 0.375,0.297 0.816,0.625 1.324,0.985 0.508,0.359 1.183,0.734 2.027,1.125 0.75,0.343 1.574,0.648 2.473,0.914 0.898,0.265 1.832,0.398 2.801,0.398 0.703,0 1.453,-0.082 2.25,-0.246 0.796,-0.164 1.39,-0.371 1.781,-0.621 0.547,-0.36 0.941,-0.742 1.183,-1.149 0.243,-0.406 0.364,-1.015 0.364,-1.828 0,-1.047 -0.285,-1.836 -0.856,-2.367 -0.57,-0.531 -1.582,-0.976 -3.035,-1.336 -0.562,-0.14 -1.297,-0.305 -2.203,-0.492 -0.906,-0.188 -1.742,-0.391 -2.508,-0.609 -2,-0.579 -3.453,-1.473 -4.359,-2.684 -0.907,-1.211 -1.36,-2.676 -1.36,-4.395 0,-2.359 0.891,-4.281 2.672,-5.765 1.781,-1.485 4.149,-2.227 7.102,-2.227 1.453,0 2.914,0.18 4.383,0.539 1.468,0.36 2.703,0.813 3.703,1.36 l 0,4.711 -0.235,0 c -1.125,-0.891 -2.379,-1.594 -3.761,-2.11 -1.383,-0.515 -2.778,-0.773 -4.184,-0.773 -1.453,0 -2.68,0.305 -3.68,0.914 -1,0.609 -1.5,1.531 -1.5,2.766 0,1.093 0.297,1.91 0.891,2.449 0.594,0.539 1.547,0.98 2.859,1.324 0.657,0.172 1.387,0.34 2.192,0.504 0.804,0.164 1.652,0.355 2.543,0.574 1.937,0.484 3.394,1.289 4.371,2.414 0.976,1.125 1.465,2.656 1.465,4.594 0,1.125 -0.223,2.191 -0.668,3.199 -0.446,1.008 -1.098,1.871 -1.957,2.59 -0.938,0.781 -1.996,1.375 -3.176,1.781 -1.18,0.406 -2.66,0.61 -4.442,0.61 z" /><path
         inkscape:connector-curvature="0"
         id="path166"
         style="fill-rule:nonzero"
         d="m 312.961,283.649 c -4.171,0 -7.41,-1.176 -9.714,-3.527 -2.305,-2.352 -3.457,-5.692 -3.457,-10.02 0,-4.265 1.117,-7.66 3.351,-10.183 2.234,-2.524 5.156,-3.785 8.766,-3.785 1.625,0 3.062,0.234 4.312,0.703 1.25,0.468 2.344,1.203 3.281,2.203 0.938,1 1.657,2.222 2.157,3.668 0.5,1.445 0.75,3.215 0.75,5.308 l 0,2.391 -18.141,0 c 0,3.047 0.766,5.375 2.297,6.984 1.531,1.61 3.648,2.414 6.352,2.414 0.968,0 1.918,-0.109 2.847,-0.328 0.93,-0.218 1.77,-0.5 2.52,-0.843 0.797,-0.36 1.468,-0.708 2.015,-1.043 0.547,-0.336 1,-0.653 1.36,-0.95 l 0.258,0 0,4.805 c -0.516,0.203 -1.157,0.457 -1.922,0.762 -0.766,0.304 -1.453,0.543 -2.063,0.715 -0.859,0.234 -1.637,0.414 -2.332,0.539 -0.695,0.125 -1.574,0.187 -2.637,0.187 z m 5.157,-16.617 c -0.032,-1.188 -0.172,-2.211 -0.422,-3.07 -0.25,-0.86 -0.61,-1.586 -1.078,-2.18 -0.516,-0.656 -1.176,-1.156 -1.981,-1.5 -0.804,-0.344 -1.801,-0.516 -2.988,-0.516 -1.172,0 -2.168,0.176 -2.988,0.528 -0.821,0.351 -1.567,0.863 -2.239,1.535 -0.656,0.687 -1.156,1.449 -1.5,2.285 -0.343,0.836 -0.562,1.809 -0.656,2.918 l 13.852,0 z" /></g><g
       id="g168"
       transform="matrix(0.966241,0.257642,-0.257642,0.966241,453.179,-382.479)"><path
         inkscape:connector-curvature="0"
         id="path170"
         style="fill:#ffffff;fill-rule:nonzero"
         d="m 146.81,824.209 0,-7.265 c -1.047,0.094 -2.371,0.223 -3.973,0.387 -1.601,0.164 -2.894,0.394 -3.879,0.691 -1.171,0.359 -2.14,0.91 -2.906,1.652 -0.765,0.743 -1.148,1.778 -1.148,3.106 0,1.5 0.422,2.633 1.265,3.398 0.844,0.766 2.078,1.149 3.703,1.149 1.391,0 2.649,-0.301 3.774,-0.903 1.125,-0.601 2.18,-1.34 3.164,-2.215 z m 0,3.657 c -0.359,0.265 -0.84,0.636 -1.441,1.113 -0.602,0.477 -1.184,0.855 -1.747,1.137 -0.781,0.406 -1.535,0.718 -2.261,0.937 -0.727,0.219 -1.746,0.328 -3.059,0.328 -1.078,0 -2.101,-0.203 -3.07,-0.609 -0.969,-0.406 -1.82,-0.977 -2.555,-1.711 -0.703,-0.719 -1.265,-1.605 -1.687,-2.66 -0.422,-1.055 -0.633,-2.168 -0.633,-3.34 0,-1.812 0.383,-3.355 1.148,-4.629 0.766,-1.273 1.977,-2.285 3.633,-3.035 1.469,-0.672 3.203,-1.137 5.203,-1.395 2,-0.257 4.156,-0.449 6.469,-0.574 l 0,-0.844 c 0,-1.031 -0.156,-1.863 -0.469,-2.496 -0.312,-0.632 -0.75,-1.121 -1.312,-1.464 -0.563,-0.36 -1.25,-0.598 -2.063,-0.715 -0.812,-0.117 -1.648,-0.176 -2.508,-0.176 -1.015,0 -2.211,0.152 -3.586,0.457 -1.375,0.305 -2.75,0.746 -4.125,1.324 l -0.257,0 0,-4.476 c 0.812,-0.235 1.976,-0.493 3.492,-0.774 1.515,-0.281 3.015,-0.422 4.5,-0.422 1.797,0 3.312,0.141 4.547,0.422 1.234,0.281 2.343,0.789 3.328,1.524 0.953,0.718 1.664,1.648 2.133,2.789 0.468,1.14 0.703,2.531 0.703,4.172 l 0,17.906 -4.383,0 0,-2.789 z" /><path
         inkscape:connector-curvature="0"
         id="path172"
         style="fill:#ffffff;fill-rule:nonzero"
         d="m 166.858,831.288 c -1.75,0 -3.386,-0.235 -4.91,-0.704 -1.523,-0.468 -2.785,-0.968 -3.785,-1.5 l 0,-4.945 0.234,0 c 0.375,0.297 0.817,0.625 1.325,0.985 0.508,0.359 1.183,0.734 2.027,1.125 0.75,0.343 1.574,0.648 2.473,0.914 0.898,0.265 1.832,0.398 2.8,0.398 0.704,0 1.454,-0.082 2.25,-0.246 0.797,-0.164 1.391,-0.371 1.782,-0.621 0.547,-0.36 0.941,-0.742 1.183,-1.149 0.243,-0.406 0.364,-1.015 0.364,-1.828 0,-1.047 -0.286,-1.836 -0.856,-2.367 -0.57,-0.531 -1.582,-0.976 -3.035,-1.336 -0.563,-0.14 -1.297,-0.305 -2.203,-0.492 -0.906,-0.188 -1.742,-0.391 -2.508,-0.609 -2,-0.579 -3.453,-1.473 -4.359,-2.684 -0.907,-1.211 -1.36,-2.676 -1.36,-4.395 0,-2.359 0.891,-4.281 2.672,-5.765 1.781,-1.485 4.149,-2.227 7.102,-2.227 1.453,0 2.914,0.18 4.383,0.539 1.468,0.36 2.703,0.813 3.703,1.36 l 0,4.711 -0.235,0 c -1.125,-0.891 -2.379,-1.594 -3.761,-2.11 -1.383,-0.515 -2.778,-0.773 -4.184,-0.773 -1.453,0 -2.68,0.305 -3.68,0.914 -1,0.609 -1.5,1.531 -1.5,2.766 0,1.093 0.297,1.91 0.891,2.449 0.594,0.539 1.547,0.98 2.859,1.324 0.657,0.172 1.387,0.34 2.192,0.504 0.804,0.164 1.652,0.355 2.543,0.574 1.937,0.484 3.394,1.289 4.371,2.414 0.976,1.125 1.465,2.656 1.465,4.594 0,1.125 -0.223,2.191 -0.668,3.199 -0.446,1.008 -1.098,1.871 -1.957,2.59 -0.938,0.781 -1.996,1.375 -3.176,1.781 -1.18,0.406 -2.66,0.61 -4.442,0.61 z" /><path
         inkscape:connector-curvature="0"
         id="path174"
         style="fill:#ffffff;fill-rule:nonzero"
         d="m 191.524,831.17 c -2.406,0 -4.281,-0.683 -5.625,-2.05 -1.344,-1.368 -2.016,-3.528 -2.016,-6.481 l 0,-14.508 -2.976,0 0,-3.656 2.976,0 0,-7.523 4.407,0 0,7.523 8.109,0 0,3.656 -8.109,0 0,12.446 c 0,1.328 0.023,2.351 0.07,3.07 0.047,0.719 0.227,1.391 0.539,2.016 0.266,0.546 0.695,0.957 1.289,1.23 0.594,0.274 1.399,0.41 2.414,0.41 0.719,0 1.414,-0.105 2.086,-0.316 0.672,-0.211 1.156,-0.387 1.453,-0.528 l 0.258,0 0,3.961 c -0.828,0.235 -1.668,0.418 -2.519,0.551 -0.852,0.133 -1.637,0.199 -2.356,0.199 z" /><path
         inkscape:connector-curvature="0"
         id="path176"
         style="fill:#ffffff;fill-rule:nonzero"
         d="m 215.932,809.209 -0.235,0 c -0.328,-0.093 -0.675,-0.152 -1.042,-0.175 -0.368,-0.024 -0.809,-0.035 -1.325,-0.035 -1.187,0 -2.367,0.257 -3.539,0.773 -1.172,0.516 -2.281,1.281 -3.328,2.297 l 0,18.586 -4.406,0 0,-26.18 4.406,0 0,3.891 c 1.609,-1.422 3.012,-2.426 4.207,-3.012 1.195,-0.586 2.356,-0.879 3.481,-0.879 0.453,0 0.793,0.012 1.019,0.035 0.227,0.024 0.481,0.059 0.762,0.106 l 0,4.593 z" /><path
         inkscape:connector-curvature="0"
         id="path178"
         style="fill:#ffffff;fill-rule:nonzero"
         d="m 243.293,817.577 c 0,4.406 -1.063,7.808 -3.188,10.207 -2.125,2.398 -4.953,3.597 -8.484,3.597 -3.641,0 -6.504,-1.238 -8.59,-3.714 -2.086,-2.477 -3.129,-5.84 -3.129,-10.09 0,-4.375 1.074,-7.774 3.223,-10.196 2.148,-2.422 4.98,-3.632 8.496,-3.632 3.531,0 6.359,1.207 8.484,3.621 2.125,2.414 3.188,5.816 3.188,10.207 z m -4.547,0 c 0,-3.391 -0.617,-5.91 -1.852,-7.559 -1.234,-1.648 -2.992,-2.473 -5.273,-2.473 -2.297,0 -4.066,0.825 -5.309,2.473 -1.242,1.649 -1.863,4.168 -1.863,7.559 0,3.281 0.621,5.769 1.863,7.465 1.243,1.695 3.012,2.542 5.309,2.542 2.266,0 4.019,-0.832 5.262,-2.496 1.242,-1.664 1.863,-4.168 1.863,-7.511 z" /><path
         inkscape:connector-curvature="0"
         id="path180"
         style="fill:#ffffff;fill-rule:nonzero"
         d="m 270.794,830.655 -4.406,0 0,-14.906 c 0,-1.204 -0.058,-2.325 -0.176,-3.364 -0.117,-1.039 -0.34,-1.871 -0.668,-2.496 -0.359,-0.656 -0.859,-1.144 -1.5,-1.465 -0.64,-0.32 -1.515,-0.48 -2.625,-0.48 -1.093,0 -2.222,0.293 -3.386,0.879 -1.164,0.586 -2.301,1.347 -3.411,2.285 l 0,19.547 -4.406,0 0,-26.18 4.406,0 0,2.906 c 1.313,-1.172 2.61,-2.07 3.891,-2.695 1.281,-0.625 2.633,-0.937 4.055,-0.937 2.578,0 4.594,0.847 6.047,2.543 1.453,1.695 2.179,4.152 2.179,7.371 l 0,16.992 z" /><path
         inkscape:connector-curvature="0"
         id="path182"
         style="fill:#ffffff;fill-rule:nonzero"
         d="m 300.921,817.577 c 0,4.406 -1.063,7.808 -3.188,10.207 -2.125,2.398 -4.953,3.597 -8.484,3.597 -3.641,0 -6.504,-1.238 -8.59,-3.714 -2.086,-2.477 -3.129,-5.84 -3.129,-10.09 0,-4.375 1.075,-7.774 3.223,-10.196 2.148,-2.422 4.98,-3.632 8.496,-3.632 3.531,0 6.359,1.207 8.484,3.621 2.125,2.414 3.188,5.816 3.188,10.207 z m -4.547,0 c 0,-3.391 -0.617,-5.91 -1.852,-7.559 -1.234,-1.648 -2.992,-2.473 -5.273,-2.473 -2.297,0 -4.066,0.825 -5.309,2.473 -1.242,1.649 -1.863,4.168 -1.863,7.559 0,3.281 0.621,5.769 1.863,7.465 1.243,1.695 3.012,2.542 5.309,2.542 2.266,0 4.02,-0.832 5.262,-2.496 1.242,-1.664 1.863,-4.168 1.863,-7.511 z" /><path
         inkscape:connector-curvature="0"
         id="path184"
         style="fill:#ffffff;fill-rule:nonzero"
         d="m 337.563,830.655 0,-15.141 c 0,-1.203 -0.047,-2.316 -0.141,-3.34 -0.093,-1.023 -0.289,-1.824 -0.585,-2.402 -0.313,-0.625 -0.758,-1.086 -1.336,-1.383 -0.579,-0.297 -1.36,-0.445 -2.344,-0.445 -0.906,0 -1.879,0.277 -2.918,0.832 -1.039,0.555 -2.113,1.355 -3.223,2.402 0.016,0.266 0.035,0.582 0.059,0.949 0.023,0.368 0.035,0.801 0.035,1.301 l 0,17.227 -4.406,0 0,-15.141 c 0,-1.203 -0.047,-2.316 -0.141,-3.34 -0.094,-1.023 -0.289,-1.824 -0.586,-2.402 -0.312,-0.625 -0.758,-1.086 -1.336,-1.383 -0.578,-0.297 -1.359,-0.445 -2.344,-0.445 -0.953,0 -1.953,0.297 -3,0.89 -1.046,0.594 -2.062,1.352 -3.046,2.274 l 0,19.547 -4.407,0 0,-26.18 4.407,0 0,2.906 c 1.156,-1.156 2.3,-2.05 3.433,-2.683 1.133,-0.633 2.379,-0.949 3.738,-0.949 1.547,0 2.918,0.351 4.114,1.054 1.195,0.703 2.105,1.86 2.73,3.469 1.328,-1.484 2.625,-2.609 3.891,-3.375 1.265,-0.766 2.64,-1.148 4.125,-1.148 1.125,0 2.148,0.175 3.07,0.527 0.922,0.351 1.727,0.918 2.414,1.699 0.703,0.797 1.246,1.789 1.629,2.977 0.383,1.187 0.574,2.679 0.574,4.476 l 0,17.227 -4.406,0 z" /><path
         inkscape:connector-curvature="0"
         id="path186"
         style="fill:#ffffff;fill-rule:nonzero"
         d="m 355.057,830.655 -4.406,0 0,-26.18 4.406,0 0,26.18 z m 0.305,-30.563 -5.016,0 0,-4.57 5.016,0 0,4.57 z" /><path
         inkscape:connector-curvature="0"
         id="path188"
         style="fill:#ffffff;fill-rule:nonzero"
         d="m 374.332,831.241 c -1.797,0 -3.445,-0.278 -4.945,-0.832 -1.5,-0.555 -2.79,-1.395 -3.868,-2.52 -1.078,-1.125 -1.914,-2.543 -2.507,-4.254 -0.594,-1.711 -0.891,-3.722 -0.891,-6.035 0,-2.297 0.309,-4.281 0.926,-5.953 0.617,-1.672 1.441,-3.078 2.472,-4.219 1.032,-1.14 2.317,-2.019 3.856,-2.636 1.539,-0.618 3.191,-0.926 4.957,-0.926 1.437,0 2.824,0.203 4.16,0.609 1.336,0.406 2.527,0.875 3.574,1.406 l 0,4.946 -0.258,0 c -0.312,-0.266 -0.714,-0.571 -1.207,-0.914 -0.492,-0.344 -1.089,-0.696 -1.793,-1.055 -0.609,-0.313 -1.328,-0.586 -2.156,-0.82 -0.828,-0.235 -1.625,-0.352 -2.39,-0.352 -2.282,0 -4.114,0.863 -5.497,2.59 -1.382,1.726 -2.074,4.168 -2.074,7.324 0,3.094 0.668,5.504 2.004,7.231 1.336,1.726 3.192,2.589 5.567,2.589 1.437,0 2.804,-0.296 4.101,-0.89 1.297,-0.594 2.445,-1.36 3.445,-2.297 l 0.258,0 0,4.945 c -0.437,0.203 -0.984,0.449 -1.64,0.739 -0.657,0.289 -1.25,0.503 -1.782,0.644 -0.75,0.219 -1.422,0.387 -2.015,0.504 -0.594,0.117 -1.36,0.176 -2.297,0.176 z" /><path
         inkscape:connector-curvature="0"
         id="path190"
         style="fill:#ffffff;fill-rule:nonzero"
         d="m 403.099,824.209 0,-7.265 c -1.047,0.094 -2.371,0.223 -3.973,0.387 -1.601,0.164 -2.894,0.394 -3.879,0.691 -1.171,0.359 -2.14,0.91 -2.906,1.652 -0.765,0.743 -1.148,1.778 -1.148,3.106 0,1.5 0.422,2.633 1.265,3.398 0.844,0.766 2.079,1.149 3.704,1.149 1.39,0 2.648,-0.301 3.773,-0.903 1.125,-0.601 2.18,-1.34 3.164,-2.215 z m 0,3.657 c -0.359,0.265 -0.84,0.636 -1.441,1.113 -0.602,0.477 -1.184,0.855 -1.746,1.137 -0.782,0.406 -1.536,0.718 -2.262,0.937 -0.727,0.219 -1.746,0.328 -3.059,0.328 -1.078,0 -2.101,-0.203 -3.07,-0.609 -0.969,-0.406 -1.82,-0.977 -2.555,-1.711 -0.703,-0.719 -1.265,-1.605 -1.687,-2.66 -0.422,-1.055 -0.633,-2.168 -0.633,-3.34 0,-1.812 0.383,-3.355 1.148,-4.629 0.766,-1.273 1.977,-2.285 3.633,-3.035 1.469,-0.672 3.203,-1.137 5.203,-1.395 2,-0.257 4.157,-0.449 6.469,-0.574 l 0,-0.844 c 0,-1.031 -0.156,-1.863 -0.469,-2.496 -0.312,-0.632 -0.75,-1.121 -1.312,-1.464 -0.563,-0.36 -1.25,-0.598 -2.063,-0.715 -0.812,-0.117 -1.648,-0.176 -2.508,-0.176 -1.015,0 -2.21,0.152 -3.585,0.457 -1.375,0.305 -2.75,0.746 -4.125,1.324 l -0.258,0 0,-4.476 c 0.812,-0.235 1.976,-0.493 3.492,-0.774 1.516,-0.281 3.016,-0.422 4.5,-0.422 1.797,0 3.312,0.141 4.547,0.422 1.234,0.281 2.344,0.789 3.328,1.524 0.953,0.718 1.664,1.648 2.133,2.789 0.468,1.14 0.703,2.531 0.703,4.172 l 0,17.906 -4.383,0 0,-2.789 z" /><rect
         id="rect192"
         style="fill:#ffffff;fill-rule:nonzero"
         height="36.469002"
         width="4.4060001"
         y="794.18597"
         x="416.16299" /><path
         inkscape:connector-curvature="0"
         id="path194"
         style="fill:#ffffff;fill-rule:nonzero"
         d="m 454.76,831.17 c -2.406,0 -4.281,-0.683 -5.625,-2.05 -1.344,-1.368 -2.016,-3.528 -2.016,-6.481 l 0,-14.508 -2.976,0 0,-3.656 2.976,0 0,-7.523 4.407,0 0,7.523 8.109,0 0,3.656 -8.109,0 0,12.446 c 0,1.328 0.023,2.351 0.07,3.07 0.047,0.719 0.226,1.391 0.539,2.016 0.266,0.546 0.695,0.957 1.289,1.23 0.594,0.274 1.398,0.41 2.414,0.41 0.719,0 1.414,-0.105 2.086,-0.316 0.672,-0.211 1.156,-0.387 1.453,-0.528 l 0.258,0 0,3.961 c -0.828,0.235 -1.668,0.418 -2.52,0.551 -0.851,0.133 -1.636,0.199 -2.355,0.199 z" /><path
         inkscape:connector-curvature="0"
         id="path196"
         style="fill:#ffffff;fill-rule:nonzero"
         d="m 497.027,804.475 -6.633,26.18 -4.078,0 -6.398,-20.18 -6.352,20.18 -4.054,0 -6.704,-26.18 4.594,0 4.617,20.274 6.211,-20.274 3.633,0 6.375,20.274 4.359,-20.274 4.43,0 z" /><path
         inkscape:connector-curvature="0"
         id="path198"
         style="fill:#ffffff;fill-rule:nonzero"
         d="m 507.818,830.655 -4.406,0 0,-26.18 4.406,0 0,26.18 z m 0.304,-30.563 -5.015,0 0,-4.57 5.015,0 0,4.57 z" /><rect
         id="rect200"
         style="fill:#ffffff;fill-rule:nonzero"
         height="36.469002"
         width="4.4060001"
         y="794.18597"
         x="516.78003" /><path
         inkscape:connector-curvature="0"
         id="path202"
         style="fill:#ffffff;fill-rule:nonzero"
         d="m 534.555,830.655 -4.406,0 0,-26.18 4.406,0 0,26.18 z m 0.305,-30.563 -5.016,0 0,-4.57 5.016,0 0,4.57 z" /><path
         inkscape:connector-curvature="0"
         id="path204"
         style="fill:#ffffff;fill-rule:nonzero"
         d="m 559.174,823.553 0,-14.367 c -1.094,-0.531 -2.105,-0.91 -3.035,-1.137 -0.93,-0.226 -1.856,-0.34 -2.777,-0.34 -2.235,0 -3.993,0.821 -5.274,2.461 -1.281,1.641 -1.922,3.993 -1.922,7.055 0,2.906 0.489,5.117 1.465,6.633 0.977,1.516 2.559,2.273 4.746,2.273 1.141,0 2.317,-0.226 3.528,-0.679 1.21,-0.453 2.3,-1.086 3.269,-1.899 z m -14.812,11.297 c 0.296,0.125 0.734,0.293 1.312,0.504 0.578,0.211 1.234,0.41 1.969,0.598 0.812,0.203 1.562,0.367 2.25,0.492 0.687,0.125 1.437,0.187 2.25,0.187 1.359,0 2.512,-0.179 3.457,-0.539 0.945,-0.359 1.683,-0.859 2.215,-1.5 0.5,-0.64 0.851,-1.383 1.054,-2.226 0.203,-0.844 0.305,-1.805 0.305,-2.883 l 0,-2.297 c -1.187,1.031 -2.352,1.793 -3.492,2.285 -1.141,0.492 -2.57,0.738 -4.289,0.738 -2.985,0 -5.36,-1.109 -7.125,-3.328 -1.766,-2.218 -2.649,-5.406 -2.649,-9.562 0,-2.172 0.305,-4.098 0.914,-5.777 0.61,-1.68 1.43,-3.106 2.461,-4.278 0.985,-1.125 2.149,-1.992 3.493,-2.601 1.343,-0.61 2.734,-0.914 4.171,-0.914 1.36,0 2.536,0.16 3.528,0.48 0.992,0.32 1.988,0.777 2.988,1.371 l 0.258,-1.125 4.148,0 0,23.203 c 0,4.438 -0.968,7.696 -2.906,9.774 -1.937,2.078 -4.898,3.117 -8.883,3.117 -1.281,0 -2.59,-0.102 -3.926,-0.305 -1.335,-0.203 -2.582,-0.476 -3.738,-0.82 l 0,-4.594 0.235,0 z" /><path
         inkscape:connector-curvature="0"
         id="path206"
         style="fill:#ffffff;fill-rule:nonzero"
         d="m 592.933,830.655 -4.406,0 0,-14.906 c 0,-1.204 -0.058,-2.325 -0.176,-3.364 -0.117,-1.039 -0.339,-1.871 -0.668,-2.496 -0.359,-0.656 -0.859,-1.144 -1.5,-1.465 -0.64,-0.32 -1.515,-0.48 -2.625,-0.48 -1.093,0 -2.222,0.293 -3.386,0.879 -1.164,0.586 -2.301,1.347 -3.41,2.285 l 0,19.547 -4.407,0 0,-36.469 4.407,0 0,13.195 c 1.312,-1.172 2.609,-2.07 3.89,-2.695 1.281,-0.625 2.633,-0.937 4.055,-0.937 2.578,0 4.594,0.847 6.047,2.543 1.453,1.695 2.179,4.152 2.179,7.371 l 0,16.992 z" /><path
         inkscape:connector-curvature="0"
         id="path208"
         style="fill:#ffffff;fill-rule:nonzero"
         d="m 609.443,831.17 c -2.406,0 -4.281,-0.683 -5.625,-2.05 -1.344,-1.368 -2.016,-3.528 -2.016,-6.481 l 0,-14.508 -2.976,0 0,-3.656 2.976,0 0,-7.523 4.406,0 0,7.523 8.11,0 0,3.656 -8.11,0 0,12.446 c 0,1.328 0.024,2.351 0.071,3.07 0.047,0.719 0.226,1.391 0.539,2.016 0.265,0.546 0.695,0.957 1.289,1.23 0.594,0.274 1.398,0.41 2.414,0.41 0.719,0 1.414,-0.105 2.086,-0.316 0.672,-0.211 1.156,-0.387 1.453,-0.528 l 0.258,0 0,3.961 c -0.828,0.235 -1.668,0.418 -2.52,0.551 -0.851,0.133 -1.636,0.199 -2.355,0.199 z" /></g><g
       id="g210"
       transform="matrix(0.986601,0.163149,-0.163149,0.986601,437.222,-322.398)"><path
         inkscape:connector-curvature="0"
         id="path212"
         style="fill:#ffffff;fill-rule:nonzero"
         d="m 206.902,682.998 -4.406,0 0,-14.906 c 0,-1.203 -0.058,-2.324 -0.176,-3.363 -0.117,-1.039 -0.339,-1.871 -0.668,-2.496 -0.359,-0.657 -0.859,-1.145 -1.5,-1.465 -0.64,-0.321 -1.515,-0.481 -2.625,-0.481 -1.093,0 -2.222,0.293 -3.386,0.879 -1.164,0.586 -2.301,1.348 -3.41,2.285 l 0,19.547 -4.407,0 0,-26.179 4.407,0 0,2.906 c 1.312,-1.172 2.609,-2.071 3.89,-2.696 1.281,-0.625 2.633,-0.937 4.055,-0.937 2.578,0 4.594,0.848 6.047,2.543 1.453,1.695 2.179,4.152 2.179,7.371 l 0,16.992 z" /><path
         inkscape:connector-curvature="0"
         id="path214"
         style="fill:#ffffff;fill-rule:nonzero"
         d="m 230.115,676.553 0,-7.266 c -1.047,0.094 -2.371,0.223 -3.973,0.387 -1.601,0.164 -2.894,0.395 -3.879,0.691 -1.171,0.36 -2.14,0.911 -2.906,1.653 -0.765,0.742 -1.148,1.777 -1.148,3.105 0,1.5 0.422,2.633 1.265,3.399 0.844,0.765 2.078,1.148 3.703,1.148 1.391,0 2.649,-0.301 3.774,-0.902 1.125,-0.602 2.18,-1.34 3.164,-2.215 z m 0,3.656 c -0.359,0.266 -0.84,0.637 -1.441,1.113 -0.602,0.477 -1.184,0.856 -1.747,1.137 -0.781,0.406 -1.535,0.719 -2.261,0.938 -0.727,0.218 -1.746,0.328 -3.059,0.328 -1.078,0 -2.101,-0.203 -3.07,-0.61 -0.969,-0.406 -1.82,-0.976 -2.555,-1.711 -0.703,-0.718 -1.265,-1.605 -1.687,-2.66 -0.422,-1.054 -0.633,-2.168 -0.633,-3.34 0,-1.812 0.383,-3.355 1.148,-4.628 0.766,-1.274 1.977,-2.286 3.633,-3.036 1.469,-0.671 3.203,-1.136 5.203,-1.394 2,-0.258 4.156,-0.449 6.469,-0.574 l 0,-0.844 c 0,-1.031 -0.156,-1.863 -0.469,-2.496 -0.312,-0.633 -0.75,-1.121 -1.312,-1.465 -0.563,-0.359 -1.25,-0.598 -2.063,-0.715 -0.812,-0.117 -1.648,-0.176 -2.508,-0.176 -1.015,0 -2.211,0.153 -3.586,0.457 -1.375,0.305 -2.75,0.746 -4.125,1.325 l -0.257,0 0,-4.477 c 0.812,-0.234 1.976,-0.492 3.492,-0.773 1.515,-0.282 3.015,-0.422 4.5,-0.422 1.797,0 3.312,0.14 4.547,0.422 1.234,0.281 2.343,0.789 3.328,1.523 0.953,0.719 1.664,1.648 2.133,2.789 0.468,1.141 0.703,2.531 0.703,4.172 l 0,17.906 -4.383,0 0,-2.789 z" /><path
         inkscape:connector-curvature="0"
         id="path216"
         style="fill:#ffffff;fill-rule:nonzero"
         d="m 263.476,682.998 -4.406,0 0,-2.906 c -1.36,1.187 -2.649,2.09 -3.868,2.707 -1.218,0.617 -2.578,0.926 -4.078,0.926 -1.14,0 -2.214,-0.188 -3.222,-0.563 -1.008,-0.375 -1.887,-0.968 -2.637,-1.781 -0.75,-0.812 -1.332,-1.836 -1.746,-3.07 -0.414,-1.235 -0.621,-2.735 -0.621,-4.5 l 0,-16.992 4.406,0 0,14.906 c 0,1.39 0.051,2.543 0.152,3.457 0.102,0.914 0.332,1.715 0.692,2.402 0.359,0.672 0.847,1.164 1.465,1.477 0.617,0.312 1.504,0.468 2.66,0.468 1.078,0 2.226,-0.304 3.445,-0.914 1.219,-0.609 2.336,-1.359 3.352,-2.25 l 0,-19.546 4.406,0 0,26.179 z" /><path
         inkscape:connector-curvature="0"
         id="path218"
         style="fill:#ffffff;fill-rule:nonzero"
         d="m 280.173,683.514 c -2.406,0 -4.281,-0.684 -5.625,-2.051 -1.344,-1.367 -2.016,-3.527 -2.016,-6.48 l 0,-14.508 -2.976,0 0,-3.656 2.976,0 0,-7.524 4.406,0 0,7.524 8.11,0 0,3.656 -8.11,0 0,12.445 c 0,1.328 0.024,2.352 0.071,3.07 0.047,0.719 0.226,1.391 0.539,2.016 0.265,0.547 0.695,0.957 1.289,1.231 0.594,0.273 1.398,0.41 2.414,0.41 0.719,0 1.414,-0.106 2.086,-0.317 0.672,-0.211 1.156,-0.386 1.453,-0.527 l 0.258,0 0,3.961 c -0.828,0.234 -1.668,0.418 -2.52,0.551 -0.851,0.132 -1.636,0.199 -2.355,0.199 z" /><path
         inkscape:connector-curvature="0"
         id="path220"
         style="fill:#ffffff;fill-rule:nonzero"
         d="m 295.206,682.998 -4.407,0 0,-26.179 4.407,0 0,26.179 z m 0.304,-30.562 -5.015,0 0,-4.571 5.015,0 0,4.571 z" /><path
         inkscape:connector-curvature="0"
         id="path222"
         style="fill:#ffffff;fill-rule:nonzero"
         d="m 314.481,683.584 c -1.797,0 -3.446,-0.277 -4.946,-0.832 -1.5,-0.555 -2.789,-1.394 -3.867,-2.519 -1.078,-1.125 -1.914,-2.543 -2.508,-4.254 -0.593,-1.711 -0.89,-3.723 -0.89,-6.035 0,-2.297 0.308,-4.282 0.925,-5.954 0.618,-1.671 1.442,-3.078 2.473,-4.218 1.031,-1.141 2.317,-2.02 3.856,-2.637 1.539,-0.617 3.191,-0.926 4.957,-0.926 1.437,0 2.824,0.203 4.16,0.61 1.336,0.406 2.527,0.875 3.574,1.406 l 0,4.945 -0.258,0 c -0.312,-0.266 -0.715,-0.57 -1.207,-0.914 -0.492,-0.344 -1.09,-0.695 -1.793,-1.055 -0.609,-0.312 -1.328,-0.586 -2.156,-0.82 -0.828,-0.234 -1.625,-0.352 -2.391,-0.352 -2.281,0 -4.113,0.864 -5.496,2.59 -1.383,1.727 -2.074,4.168 -2.074,7.325 0,3.093 0.668,5.503 2.004,7.23 1.336,1.727 3.191,2.59 5.566,2.59 1.438,0 2.805,-0.297 4.102,-0.891 1.297,-0.594 2.445,-1.359 3.445,-2.297 l 0.258,0 0,4.946 c -0.438,0.203 -0.984,0.449 -1.641,0.738 -0.656,0.289 -1.25,0.504 -1.781,0.644 -0.75,0.219 -1.422,0.387 -2.016,0.504 -0.593,0.118 -1.359,0.176 -2.296,0.176 z" /><path
         inkscape:connector-curvature="0"
         id="path224"
         style="fill:#ffffff;fill-rule:nonzero"
         d="m 343.248,676.553 0,-7.266 c -1.047,0.094 -2.371,0.223 -3.973,0.387 -1.601,0.164 -2.894,0.395 -3.879,0.691 -1.172,0.36 -2.14,0.911 -2.906,1.653 -0.766,0.742 -1.148,1.777 -1.148,3.105 0,1.5 0.421,2.633 1.265,3.399 0.844,0.765 2.078,1.148 3.703,1.148 1.391,0 2.649,-0.301 3.774,-0.902 1.125,-0.602 2.179,-1.34 3.164,-2.215 z m 0,3.656 c -0.36,0.266 -0.84,0.637 -1.442,1.113 -0.601,0.477 -1.183,0.856 -1.746,1.137 -0.781,0.406 -1.535,0.719 -2.261,0.938 -0.727,0.218 -1.747,0.328 -3.059,0.328 -1.078,0 -2.102,-0.203 -3.07,-0.61 -0.969,-0.406 -1.821,-0.976 -2.555,-1.711 -0.703,-0.718 -1.266,-1.605 -1.688,-2.66 -0.421,-1.054 -0.632,-2.168 -0.632,-3.34 0,-1.812 0.382,-3.355 1.148,-4.628 0.766,-1.274 1.977,-2.286 3.633,-3.036 1.469,-0.671 3.203,-1.136 5.203,-1.394 2,-0.258 4.156,-0.449 6.469,-0.574 l 0,-0.844 c 0,-1.031 -0.156,-1.863 -0.469,-2.496 -0.312,-0.633 -0.75,-1.121 -1.312,-1.465 -0.563,-0.359 -1.25,-0.598 -2.063,-0.715 -0.812,-0.117 -1.648,-0.176 -2.508,-0.176 -1.015,0 -2.211,0.153 -3.586,0.457 -1.375,0.305 -2.75,0.746 -4.125,1.325 l -0.258,0 0,-4.477 c 0.813,-0.234 1.977,-0.492 3.493,-0.773 1.515,-0.282 3.015,-0.422 4.5,-0.422 1.797,0 3.312,0.14 4.547,0.422 1.234,0.281 2.343,0.789 3.328,1.523 0.953,0.719 1.664,1.648 2.132,2.789 0.469,1.141 0.704,2.531 0.704,4.172 l 0,17.906 -4.383,0 0,-2.789 z" /><rect
         id="rect226"
         style="fill:#ffffff;fill-rule:nonzero"
         height="36.469002"
         width="4.4060001"
         y="646.52899"
         x="356.31201" /><path
         inkscape:connector-curvature="0"
         id="path228"
         style="fill:#ffffff;fill-rule:nonzero"
         d="m 394.909,683.514 c -2.407,0 -4.282,-0.684 -5.625,-2.051 -1.344,-1.367 -2.016,-3.527 -2.016,-6.48 l 0,-14.508 -2.976,0 0,-3.656 2.976,0 0,-7.524 4.406,0 0,7.524 8.11,0 0,3.656 -8.11,0 0,12.445 c 0,1.328 0.024,2.352 0.071,3.07 0.047,0.719 0.226,1.391 0.539,2.016 0.265,0.547 0.695,0.957 1.289,1.231 0.594,0.273 1.398,0.41 2.414,0.41 0.719,0 1.414,-0.106 2.086,-0.317 0.672,-0.211 1.156,-0.386 1.453,-0.527 l 0.258,0 0,3.961 c -0.828,0.234 -1.668,0.418 -2.52,0.551 -0.851,0.132 -1.637,0.199 -2.355,0.199 z" /><path
         inkscape:connector-curvature="0"
         id="path230"
         style="fill:#ffffff;fill-rule:nonzero"
         d="m 437.176,656.819 -6.633,26.179 -4.078,0 -6.398,-20.179 -6.352,20.179 -4.055,0 -6.703,-26.179 4.594,0 4.617,20.273 6.211,-20.273 3.633,0 6.375,20.273 4.359,-20.273 4.43,0 z" /><path
         inkscape:connector-curvature="0"
         id="path232"
         style="fill:#ffffff;fill-rule:nonzero"
         d="m 447.967,682.998 -4.407,0 0,-26.179 4.407,0 0,26.179 z m 0.304,-30.562 -5.015,0 0,-4.571 5.015,0 0,4.571 z" /><rect
         id="rect234"
         style="fill:#ffffff;fill-rule:nonzero"
         height="36.469002"
         width="4.4060001"
         y="646.52899"
         x="456.92899" /><path
         inkscape:connector-curvature="0"
         id="path236"
         style="fill:#ffffff;fill-rule:nonzero"
         d="m 474.704,682.998 -4.406,0 0,-26.179 4.406,0 0,26.179 z m 0.305,-30.562 -5.016,0 0,-4.571 5.016,0 0,4.571 z" /><path
         inkscape:connector-curvature="0"
         id="path238"
         style="fill:#ffffff;fill-rule:nonzero"
         d="m 499.323,675.897 0,-14.368 c -1.094,-0.531 -2.106,-0.91 -3.035,-1.136 -0.93,-0.227 -1.856,-0.34 -2.778,-0.34 -2.234,0 -3.992,0.82 -5.273,2.461 -1.281,1.64 -1.922,3.992 -1.922,7.055 0,2.906 0.488,5.117 1.465,6.632 0.976,1.516 2.558,2.274 4.746,2.274 1.141,0 2.316,-0.227 3.527,-0.68 1.211,-0.453 2.301,-1.086 3.27,-1.898 z m -14.813,11.297 c 0.297,0.125 0.735,0.293 1.313,0.503 0.578,0.211 1.234,0.411 1.969,0.598 0.812,0.203 1.562,0.367 2.25,0.492 0.687,0.125 1.437,0.188 2.25,0.188 1.359,0 2.511,-0.18 3.457,-0.539 0.945,-0.36 1.683,-0.86 2.214,-1.5 0.5,-0.641 0.852,-1.383 1.055,-2.227 0.203,-0.844 0.305,-1.805 0.305,-2.883 l 0,-2.297 c -1.188,1.032 -2.352,1.793 -3.492,2.286 -1.141,0.492 -2.571,0.738 -4.289,0.738 -2.985,0 -5.36,-1.109 -7.125,-3.328 -1.766,-2.219 -2.649,-5.406 -2.649,-9.563 0,-2.172 0.305,-4.097 0.914,-5.777 0.61,-1.68 1.43,-3.106 2.461,-4.277 0.984,-1.125 2.149,-1.993 3.492,-2.602 1.344,-0.609 2.735,-0.914 4.172,-0.914 1.36,0 2.535,0.16 3.528,0.48 0.992,0.321 1.988,0.778 2.988,1.372 l 0.258,-1.125 4.148,0 0,23.203 c 0,4.437 -0.969,7.695 -2.906,9.773 -1.938,2.078 -4.899,3.117 -8.883,3.117 -1.281,0 -2.59,-0.101 -3.926,-0.304 -1.336,-0.204 -2.582,-0.477 -3.738,-0.821 l 0,-4.593 0.234,0 z" /><path
         inkscape:connector-curvature="0"
         id="path240"
         style="fill:#ffffff;fill-rule:nonzero"
         d="m 533.082,682.998 -4.406,0 0,-14.906 c 0,-1.203 -0.059,-2.324 -0.176,-3.363 -0.117,-1.039 -0.34,-1.871 -0.668,-2.496 -0.359,-0.657 -0.859,-1.145 -1.5,-1.465 -0.64,-0.321 -1.515,-0.481 -2.625,-0.481 -1.094,0 -2.222,0.293 -3.387,0.879 -1.164,0.586 -2.3,1.348 -3.41,2.285 l 0,19.547 -4.406,0 0,-36.469 4.406,0 0,13.196 c 1.313,-1.172 2.61,-2.071 3.891,-2.696 1.281,-0.625 2.633,-0.937 4.055,-0.937 2.578,0 4.593,0.848 6.046,2.543 1.454,1.695 2.18,4.152 2.18,7.371 l 0,16.992 z" /><path
         inkscape:connector-curvature="0"
         id="path242"
         style="fill:#ffffff;fill-rule:nonzero"
         d="m 549.592,683.514 c -2.407,0 -4.282,-0.684 -5.625,-2.051 -1.344,-1.367 -2.016,-3.527 -2.016,-6.48 l 0,-14.508 -2.977,0 0,-3.656 2.977,0 0,-7.524 4.406,0 0,7.524 8.11,0 0,3.656 -8.11,0 0,12.445 c 0,1.328 0.024,2.352 0.07,3.07 0.047,0.719 0.227,1.391 0.54,2.016 0.265,0.547 0.695,0.957 1.289,1.231 0.593,0.273 1.398,0.41 2.414,0.41 0.718,0 1.414,-0.106 2.086,-0.317 0.671,-0.211 1.156,-0.386 1.453,-0.527 l 0.258,0 0,3.961 c -0.829,0.234 -1.668,0.418 -2.52,0.551 -0.852,0.132 -1.637,0.199 -2.355,0.199 z" /></g><g
       id="g244"
       transform="matrix(0.998346,0.0574839,-0.0574839,0.998346,462.645,-446.914)"><path
         inkscape:connector-curvature="0"
         id="path246"
         style="fill:#ffffff;fill-rule:nonzero"
         d="m 204.534,711.382 c -1.797,0 -3.445,-0.277 -4.945,-0.832 -1.5,-0.554 -2.789,-1.394 -3.867,-2.519 -1.078,-1.125 -1.914,-2.543 -2.508,-4.254 -0.594,-1.711 -0.891,-3.723 -0.891,-6.035 0,-2.297 0.309,-4.282 0.926,-5.953 0.617,-1.672 1.441,-3.079 2.473,-4.219 1.031,-1.141 2.316,-2.02 3.855,-2.637 1.539,-0.617 3.192,-0.926 4.957,-0.926 1.438,0 2.824,0.203 4.16,0.61 1.336,0.406 2.528,0.875 3.575,1.406 l 0,4.945 -0.258,0 c -0.313,-0.265 -0.715,-0.57 -1.207,-0.914 -0.492,-0.344 -1.09,-0.695 -1.793,-1.055 -0.61,-0.312 -1.328,-0.585 -2.157,-0.82 -0.828,-0.234 -1.625,-0.351 -2.39,-0.351 -2.281,0 -4.113,0.863 -5.496,2.589 -1.383,1.727 -2.074,4.168 -2.074,7.325 0,3.093 0.668,5.504 2.003,7.23 1.336,1.727 3.192,2.59 5.567,2.59 1.437,0 2.805,-0.297 4.101,-0.891 1.297,-0.593 2.446,-1.359 3.446,-2.297 l 0.258,0 0,4.946 c -0.438,0.203 -0.985,0.449 -1.641,0.738 -0.656,0.289 -1.25,0.504 -1.781,0.645 -0.75,0.218 -1.422,0.386 -2.016,0.504 -0.594,0.117 -1.359,0.175 -2.297,0.175 z" /><path
         inkscape:connector-curvature="0"
         id="path248"
         style="fill:#ffffff;fill-rule:nonzero"
         d="m 223.176,710.796 -4.406,0 0,-26.179 4.406,0 0,26.179 z m 0.305,-30.562 -5.016,0 0,-4.57 5.016,0 0,4.57 z" /><path
         inkscape:connector-curvature="0"
         id="path250"
         style="fill:#ffffff;fill-rule:nonzero"
         d="m 252.623,684.617 -9.867,26.179 -3.961,0 -9.797,-26.179 4.758,0 7.172,20.203 7.101,-20.203 4.594,0 z" /><path
         inkscape:connector-curvature="0"
         id="path252"
         style="fill:#ffffff;fill-rule:nonzero"
         d="m 262.851,710.796 -4.406,0 0,-26.179 4.406,0 0,26.179 z m 0.305,-30.562 -5.016,0 0,-4.57 5.016,0 0,4.57 z" /><rect
         id="rect254"
         style="fill:#ffffff;fill-rule:nonzero"
         height="36.469002"
         width="4.4060001"
         y="674.328"
         x="271.814" /><path
         inkscape:connector-curvature="0"
         id="path256"
         style="fill:#ffffff;fill-rule:nonzero"
         d="m 310.411,711.312 c -2.407,0 -4.282,-0.684 -5.625,-2.051 -1.344,-1.367 -2.016,-3.527 -2.016,-6.48 l 0,-14.508 -2.976,0 0,-3.656 2.976,0 0,-7.524 4.406,0 0,7.524 8.11,0 0,3.656 -8.11,0 0,12.445 c 0,1.328 0.024,2.352 0.071,3.071 0.047,0.718 0.226,1.39 0.539,2.015 0.265,0.547 0.695,0.957 1.289,1.231 0.594,0.273 1.398,0.41 2.414,0.41 0.719,0 1.414,-0.106 2.086,-0.317 0.672,-0.211 1.156,-0.386 1.453,-0.527 l 0.258,0 0,3.961 c -0.828,0.234 -1.668,0.418 -2.52,0.551 -0.851,0.133 -1.637,0.199 -2.355,0.199 z" /><path
         inkscape:connector-curvature="0"
         id="path258"
         style="fill:#ffffff;fill-rule:nonzero"
         d="m 352.678,684.617 -6.633,26.179 -4.078,0 -6.398,-20.179 -6.352,20.179 -4.055,0 -6.703,-26.179 4.594,0 4.617,20.273 6.211,-20.273 3.633,0 6.375,20.273 4.359,-20.273 4.43,0 z" /><path
         inkscape:connector-curvature="0"
         id="path260"
         style="fill:#ffffff;fill-rule:nonzero"
         d="m 363.469,710.796 -4.407,0 0,-26.179 4.407,0 0,26.179 z m 0.304,-30.562 -5.015,0 0,-4.57 5.015,0 0,4.57 z" /><rect
         id="rect262"
         style="fill:#ffffff;fill-rule:nonzero"
         height="36.469002"
         width="4.4060001"
         y="674.328"
         x="372.431" /><path
         inkscape:connector-curvature="0"
         id="path264"
         style="fill:#ffffff;fill-rule:nonzero"
         d="m 390.206,710.796 -4.406,0 0,-26.179 4.406,0 0,26.179 z m 0.305,-30.562 -5.016,0 0,-4.57 5.016,0 0,4.57 z" /><path
         inkscape:connector-curvature="0"
         id="path266"
         style="fill:#ffffff;fill-rule:nonzero"
         d="m 414.825,703.695 0,-14.367 c -1.094,-0.532 -2.106,-0.911 -3.035,-1.137 -0.93,-0.227 -1.856,-0.34 -2.778,-0.34 -2.234,0 -3.992,0.82 -5.273,2.461 -1.281,1.641 -1.922,3.992 -1.922,7.055 0,2.906 0.488,5.117 1.465,6.632 0.976,1.516 2.558,2.274 4.746,2.274 1.141,0 2.316,-0.227 3.527,-0.68 1.211,-0.453 2.301,-1.086 3.27,-1.898 z m -14.813,11.297 c 0.297,0.125 0.735,0.293 1.313,0.504 0.578,0.211 1.234,0.41 1.969,0.597 0.812,0.203 1.562,0.367 2.25,0.492 0.687,0.125 1.437,0.188 2.25,0.188 1.359,0 2.511,-0.18 3.457,-0.539 0.945,-0.36 1.683,-0.86 2.214,-1.5 0.5,-0.641 0.852,-1.383 1.055,-2.227 0.203,-0.843 0.305,-1.804 0.305,-2.883 l 0,-2.296 c -1.188,1.031 -2.352,1.793 -3.492,2.285 -1.141,0.492 -2.571,0.738 -4.289,0.738 -2.985,0 -5.36,-1.109 -7.125,-3.328 -1.766,-2.219 -2.649,-5.406 -2.649,-9.563 0,-2.171 0.305,-4.097 0.914,-5.777 0.61,-1.68 1.43,-3.105 2.461,-4.277 0.984,-1.125 2.149,-1.992 3.492,-2.602 1.344,-0.609 2.735,-0.914 4.172,-0.914 1.36,0 2.535,0.16 3.528,0.481 0.992,0.32 1.988,0.777 2.988,1.371 l 0.258,-1.125 4.148,0 0,23.203 c 0,4.437 -0.969,7.695 -2.906,9.773 -1.938,2.078 -4.899,3.117 -8.883,3.117 -1.281,0 -2.59,-0.101 -3.926,-0.304 -1.336,-0.203 -2.582,-0.477 -3.738,-0.821 l 0,-4.593 0.234,0 z" /><path
         inkscape:connector-curvature="0"
         id="path268"
         style="fill:#ffffff;fill-rule:nonzero"
         d="m 448.584,710.796 -4.406,0 0,-14.906 c 0,-1.203 -0.059,-2.324 -0.176,-3.363 -0.117,-1.039 -0.34,-1.871 -0.668,-2.496 -0.359,-0.657 -0.859,-1.145 -1.5,-1.465 -0.64,-0.32 -1.515,-0.481 -2.625,-0.481 -1.094,0 -2.222,0.293 -3.387,0.879 -1.164,0.586 -2.3,1.348 -3.41,2.285 l 0,19.547 -4.406,0 0,-36.468 4.406,0 0,13.195 c 1.313,-1.172 2.61,-2.07 3.891,-2.695 1.281,-0.625 2.633,-0.938 4.055,-0.938 2.578,0 4.593,0.848 6.046,2.543 1.454,1.695 2.18,4.152 2.18,7.371 l 0,16.992 z" /><path
         inkscape:connector-curvature="0"
         id="path270"
         style="fill:#ffffff;fill-rule:nonzero"
         d="m 465.094,711.312 c -2.407,0 -4.282,-0.684 -5.625,-2.051 -1.344,-1.367 -2.016,-3.527 -2.016,-6.48 l 0,-14.508 -2.977,0 0,-3.656 2.977,0 0,-7.524 4.406,0 0,7.524 8.11,0 0,3.656 -8.11,0 0,12.445 c 0,1.328 0.024,2.352 0.07,3.071 0.047,0.718 0.227,1.39 0.54,2.015 0.265,0.547 0.695,0.957 1.289,1.231 0.593,0.273 1.398,0.41 2.414,0.41 0.718,0 1.414,-0.106 2.086,-0.317 0.671,-0.211 1.156,-0.386 1.453,-0.527 l 0.258,0 0,3.961 c -0.829,0.234 -1.668,0.418 -2.52,0.551 -0.852,0.133 -1.637,0.199 -2.355,0.199 z" /></g><g
       transform="matrix(0.464281,0,0,0.462282,6121.132,356.298)"
       id="text5859.-3.-9.-9.-1.-6.-3.-5.-5.-2.-5.-6.-1.-3.-2"><path
         inkscape:connector-curvature="0"
         style="fill-rule:nonzero"
         d="m -11410.4,-512.233 0,-29.589 9,0 0,75.976 -9,0 0,-8.203 c -1.9,3.255 -4.3,5.672 -7.2,7.251 -2.8,1.579 -6.3,2.368 -10.3,2.368 -6.6,0 -12,-2.637 -16.2,-7.91 -4.1,-5.273 -6.2,-12.207 -6.2,-20.801 0,-8.594 2.1,-15.527 6.2,-20.801 4.2,-5.273 9.6,-7.91 16.2,-7.91 4,0 7.5,0.79 10.3,2.368 2.9,1.579 5.3,3.996 7.2,7.251 z m -30.6,19.092 c 0,6.608 1.3,11.792 4.1,15.552 2.7,3.76 6.4,5.64 11.2,5.64 4.7,0 8.5,-1.88 11.2,-5.64 2.7,-3.76 4.1,-8.944 4.1,-15.552 0,-6.608 -1.4,-11.792 -4.1,-15.552 -2.7,-3.759 -6.5,-5.639 -11.2,-5.639 -4.8,0 -8.5,1.88 -11.2,5.639 -2.8,3.76 -4.1,8.944 -4.1,15.552 z"
         id="path3924" /><path
         inkscape:connector-curvature="0"
         style="fill-rule:nonzero"
         d="m -11358.1,-493.336 c -7.2,0 -12.2,0.83 -15,2.49 -2.8,1.66 -4.2,4.492 -4.2,8.496 0,3.19 1,5.721 3.1,7.593 2.1,1.872 5,2.808 8.6,2.808 5,0 8.9,-1.766 12,-5.298 3,-3.532 4.5,-8.228 4.5,-14.087 l 0,-2.002 -9,0 z m 18,-3.711 0,31.201 -9,0 0,-8.301 c -2.1,3.321 -4.6,5.77 -7.7,7.349 -3.1,1.579 -6.8,2.368 -11.2,2.368 -5.6,0 -10.1,-1.571 -13.4,-4.712 -3.3,-3.141 -4.9,-7.348 -4.9,-12.622 0,-6.152 2,-10.791 6.1,-13.916 4.2,-3.125 10.3,-4.687 18.5,-4.687 l 12.6,0 0,-0.879 c 0,-4.134 -1.4,-7.333 -4.1,-9.595 -2.7,-2.262 -6.5,-3.394 -11.5,-3.394 -3.1,0 -6.1,0.375 -9.1,1.123 -2.9,0.749 -5.8,1.872 -8.5,3.37 l 0,-8.301 c 3.3,-1.27 6.5,-2.222 9.5,-2.857 3.1,-0.634 6.1,-0.952 9.1,-0.952 7.9,0 13.8,2.051 17.7,6.153 3.9,4.101 5.9,10.319 5.9,18.652 l 0,0 z"
         id="path3926" /><path
         inkscape:connector-curvature="0"
         style="fill-rule:nonzero"
         d="m -11298.8,-460.768 c -2.6,6.511 -5,10.759 -7.5,12.744 -2.4,1.986 -5.6,2.979 -9.6,2.979 l -7.2,0 0,-7.52 5.3,0 c 2.4,0 4.4,-0.586 5.7,-1.757 1.4,-1.172 2.9,-3.939 4.6,-8.301 l 1.6,-4.102 -22.1,-53.808 9.5,0 17.1,42.773 17.1,-42.773 9.5,0 -24,59.765 z"
         id="path3928" /></g><g
       transform="matrix(0.464281,0,0,0.462282,7115.902,356.298)"
       id="text5859.-3.-9.-9.-1.-6.-3.-5.-5.-2.-5.-6.-7.-93"><path
         inkscape:connector-curvature="0"
         style="fill-rule:nonzero"
         d="m -12564.6,-350.303 0,33.008 -9,0 0,-32.715 c 0,-5.176 -1,-9.049 -3,-11.621 -2,-2.571 -5,-3.857 -9.1,-3.857 -4.8,0 -8.6,1.546 -11.4,4.638 -2.8,3.093 -4.2,7.308 -4.2,12.647 l 0,30.908 -9.1,0 0,-75.976 9.1,0 0,29.785 c 2.1,-3.288 4.6,-5.746 7.6,-7.373 2.9,-1.628 6.2,-2.442 10,-2.442 6.3,0 11.1,1.945 14.3,5.835 3.2,3.89 4.8,9.611 4.8,17.163 z"
         id="path3909" /><path
         inkscape:connector-curvature="0"
         style="fill-rule:nonzero"
         d="m -12525.4,-365.684 c -4.8,0 -8.6,1.88 -11.4,5.64 -2.8,3.76 -4.2,8.911 -4.2,15.454 0,6.543 1.4,11.695 4.2,15.454 2.8,3.76 6.6,5.64 11.4,5.64 4.8,0 8.6,-1.888 11.4,-5.664 2.8,-3.776 4.2,-8.919 4.2,-15.43 0,-6.478 -1.4,-11.613 -4.2,-15.405 -2.8,-3.792 -6.6,-5.689 -11.4,-5.689 z m 0,-7.617 c 7.9,0 14,2.539 18.4,7.617 4.5,5.079 6.7,12.11 6.7,21.094 0,8.952 -2.2,15.975 -6.7,21.069 -4.4,5.095 -10.5,7.642 -18.4,7.642 -7.8,0 -13.9,-2.547 -18.4,-7.642 -4.4,-5.094 -6.7,-12.117 -6.7,-21.069 0,-8.984 2.3,-16.015 6.7,-21.094 4.5,-5.078 10.6,-7.617 18.4,-7.617 z"
         id="path3911" /><path
         inkscape:connector-curvature="0"
         style="fill-rule:nonzero"
         d="m -12453.7,-363.584 c -1,-0.586 -2.1,-1.017 -3.3,-1.294 -1.2,-0.277 -2.5,-0.415 -4,-0.415 -5,0 -8.9,1.652 -11.6,4.956 -2.8,3.304 -4.1,8.049 -4.1,14.233 l 0,28.809 -9.1,0 0,-54.687 9.1,0 0,8.496 c 1.9,-3.321 4.3,-5.786 7.3,-7.398 3.1,-1.611 6.8,-2.417 11.1,-2.417 0.6,0 1.3,0.041 2,0.122 0.8,0.082 1.6,0.204 2.5,0.366 l 0.1,9.229 z"
         id="path3913" /><path
         inkscape:connector-curvature="0"
         style="fill-rule:nonzero"
         d="m -12444.2,-371.982 9,0 0,54.687 -9,0 0,-54.687 z m 0,-21.289 9,0 0,11.376 -9,0 0,-11.376 z"
         id="path3915" /><path
         inkscape:connector-curvature="0"
         style="fill-rule:nonzero"
         d="m -12420.4,-371.982 42.7,0 0,8.203 -33.8,39.306 33.8,0 0,7.178 -43.9,0 0,-8.203 33.8,-39.307 -32.6,0 0,-7.177 z"
         id="path3917" /><path
         inkscape:connector-curvature="0"
         style="fill-rule:nonzero"
         d="m -12342.7,-365.684 c -4.9,0 -8.7,1.88 -11.5,5.64 -2.8,3.76 -4.2,8.911 -4.2,15.454 0,6.543 1.4,11.695 4.2,15.454 2.8,3.76 6.6,5.64 11.5,5.64 4.7,0 8.5,-1.888 11.3,-5.664 2.8,-3.776 4.2,-8.919 4.2,-15.43 0,-6.478 -1.4,-11.613 -4.2,-15.405 -2.8,-3.792 -6.6,-5.689 -11.3,-5.689 z m 0,-7.617 c 7.8,0 13.9,2.539 18.4,7.617 4.4,5.079 6.7,12.11 6.7,21.094 0,8.952 -2.3,15.975 -6.7,21.069 -4.5,5.095 -10.6,7.642 -18.4,7.642 -7.9,0 -14,-2.547 -18.5,-7.642 -4.4,-5.094 -6.6,-12.117 -6.6,-21.069 0,-8.984 2.2,-16.015 6.6,-21.094 4.5,-5.078 10.6,-7.617 18.5,-7.617 z"
         id="path3919" /><path
         inkscape:connector-curvature="0"
         style="fill-rule:nonzero"
         d="m -12257.3,-350.303 0,33.008 -9,0 0,-32.715 c 0,-5.176 -1,-9.049 -3.1,-11.621 -2,-2.571 -5,-3.857 -9,-3.857 -4.9,0 -8.7,1.546 -11.5,4.638 -2.8,3.093 -4.2,7.308 -4.2,12.647 l 0,30.908 -9,0 0,-54.687 9,0 0,8.496 c 2.1,-3.288 4.7,-5.746 7.6,-7.373 2.9,-1.628 6.3,-2.442 10.1,-2.442 6.2,0 11,1.945 14.2,5.835 3.2,3.89 4.9,9.611 4.9,17.163 z"
         id="path3921" /></g><g
       id="g3932"
       transform="matrix(-1,0,0,1,249.452,-776.212)"><g
         transform="matrix(0.46328,0,0,0.46328,3411.42,1371.56)"
         id="path18877"><path
           inkscape:connector-curvature="0"
           id="path286"
           style="fill:#ffffff;fill-rule:nonzero"
           d="m -7709.06,-850.469 -5,0.031 c 0.28,66.486 3.74,132.911 10.4,199.063 l 4.97,-0.5 c -6.64,-65.992 -10.09,-132.268 -10.37,-198.594 l 0,0 z" /></g><path
         inkscape:connector-curvature="0"
         style="fill:#ffffff;stroke:#ffffff;stroke-width:1.59000003px;stroke-linejoin:round"
         d="m -148.636,1044.01 -7.397,28.72 -12.975,-26.67 c 6.459,3.82 14.685,2.96 20.372,-2.05 z"
         id="path3938" /><path
         inkscape:connector-curvature="0"
         style="fill:#ffffff;stroke:#ffffff;stroke-width:1.59000003px;stroke-linejoin:round"
         d="m -171.377,1002.37 10.118,-27.885 10.357,27.795 c -6.063,-4.421 -14.333,-4.36 -20.475,0.09 l 0,0 z"
         id="path3940" /></g><g
       id="g3942"
       transform="matrix(-1,0,0,1,249.452,-776.212)"><g
         transform="matrix(0.46328,0,0,0.46328,3411.42,1371.56)"
         id="path19471"><path
           inkscape:connector-curvature="0"
           id="path292"
           style="fill:#ffffff;fill-rule:nonzero"
           d="m -7485.97,-851.844 c 0.51,123.289 13.63,246.227 39.13,366.906 l 4.87,-1.031 c -25.42,-120.347 -38.49,-242.926 -39,-365.875 l -5,0 z" /></g><path
         inkscape:connector-curvature="0"
         style="fill:#ffffff;stroke:#ffffff;stroke-width:1.59000003px;stroke-linejoin:round"
         d="m -32.491,1120.31 -4.262,29.35 -15.77,-25.12 c 6.833,3.1 14.918,1.36 20.032,-4.23 l 0,0 z"
         id="path3948" /><path
         inkscape:connector-curvature="0"
         style="fill:#ffffff;stroke:#ffffff;stroke-width:1.59000003px;stroke-linejoin:round"
         d="m -65.696,1001.73 10.122,-27.886 10.353,27.796 c -6.063,-4.422 -14.332,-4.362 -20.475,0.09 l 0,0 z"
         id="path3950" /></g><g
       id="g3952"
       transform="matrix(-1,0,0,1,249.452,-776.212)"><g
         transform="matrix(0.46328,0,0,0.46328,3411.42,1371.56)"
         id="path19473"><path
           inkscape:connector-curvature="0"
           id="path298"
           style="fill:#ffffff;fill-rule:nonzero"
           d="m -7240.34,-851.875 -5,0.031 c 0.75,163.017 26.33,324.982 75.81,480.313 l 4.75,-1.532 c -49.32,-154.847 -74.81,-316.302 -75.56,-478.812 l 0,0 z" /></g><path
         inkscape:connector-curvature="0"
         style="fill:#ffffff;stroke:#ffffff;stroke-width:1.59000003px;stroke-linejoin:round"
         d="M 93.292,1172.37 91.986,1202 73.783,1178.58 c 7.109,2.4 14.98,-0.13 19.509,-6.21 z"
         id="path3958" /><path
         inkscape:connector-curvature="0"
         style="fill:#ffffff;stroke:#ffffff;stroke-width:1.59000003px;stroke-linejoin:round"
         d="m 45.795,1001.73 10.107,-27.892 10.367,27.792 c -6.065,-4.42 -14.334,-4.356 -20.474,0.1 l 0,0 z"
         id="path3960" /></g></g></svg>