<?xml version="1.0" encoding="UTF-8" standalone="no"?>
<!-- Created with Inkscape (http://www.inkscape.org/) -->

<svg
   xmlns:dc="http://purl.org/dc/elements/1.1/"
   xmlns:cc="http://creativecommons.org/ns#"
   xmlns:rdf="http://www.w3.org/1999/02/22-rdf-syntax-ns#"
   xmlns:svg="http://www.w3.org/2000/svg"
   xmlns="http://www.w3.org/2000/svg"
   xmlns:sodipodi="http://sodipodi.sourceforge.net/DTD/sodipodi-0.dtd"
   xmlns:inkscape="http://www.inkscape.org/namespaces/inkscape"
   width="22"
   height="22"
   id="svg3813"
   version="1.1"
   inkscape:version="0.91 r13725"
   sodipodi:docname="dog.svg">
  <defs
     id="defs3815" />
  <sodipodi:namedview
     id="base"
     pagecolor="#ffffff"
     bordercolor="#666666"
     borderopacity="1.0"
     inkscape:pageopacity="0.0"
     inkscape:pageshadow="2"
     inkscape:zoom="46.138718"
     inkscape:cx="7.1572123"
     inkscape:cy="11.273156"
     inkscape:document-units="px"
     inkscape:current-layer="layer1"
     showgrid="true"
     fit-margin-top="0"
     fit-margin-left="0"
     fit-margin-right="0"
     fit-margin-bottom="0"
     inkscape:window-width="1920"
     inkscape:window-height="1051"
     inkscape:window-x="1366"
     inkscape:window-y="0"
     inkscape:window-maximized="1"
     inkscape:showpageshadow="false">
    <inkscape:grid
       type="xygrid"
       id="grid4109" />
    <sodipodi:guide
       position="2.0000072,19.999993"
       orientation="18,0"
       id="guide4115" />
    <sodipodi:guide
       position="2.0000072,1.9999929"
       orientation="0,18"
       id="guide4117" />
    <sodipodi:guide
       position="20.000007,1.9999929"
       orientation="-18,0"
       id="guide4119" />
    <sodipodi:guide
       position="20.000007,19.999993"
       orientation="0,-18"
       id="guide4121" />
    <sodipodi:guide
       position="3.0000072,18.999993"
       orientation="16,0"
       id="guide4123" />
    <sodipodi:guide
       position="3.0000072,2.9999929"
       orientation="0,16"
       id="guide4125" />
    <sodipodi:guide
       position="19.000007,2.9999929"
       orientation="-16,0"
       id="guide4127" />
    <sodipodi:guide
       position="19.000007,18.999993"
       orientation="0,-16"
       id="guide4129" />
  </sodipodi:namedview>
  <metadata
     id="metadata3818">
    <rdf:RDF>
      <cc:Work
         rdf:about="">
        <dc:format>image/svg+xml</dc:format>
        <dc:type
           rdf:resource="http://purl.org/dc/dcmitype/StillImage" />
        <dc:title />
      </cc:Work>
    </rdf:RDF>
  </metadata>
  <g
     inkscape:label="Capa 1"
     inkscape:groupmode="layer"
     id="layer1"
     transform="translate(-378.85714,-540.07647)">
    <path
       inkscape:connector-curvature="0"
       id="path14"
       style="font-style:normal;font-variant:normal;font-weight:normal;font-stretch:normal;letter-spacing:normal;word-spacing:normal;text-anchor:start;fill:#1e1916;fill-opacity:1;stroke:#1e1916;stroke-width:0;stroke-linecap:round;stroke-linejoin:round;stroke-miterlimit:10.43299961;stroke-dasharray:none;stroke-dashoffset:0;stroke-opacity:1"
       d="m 395.12471,544.92861 0.0278,0.0206 0.0287,0.0206 0.0579,0.0445 0.06,0.0476 0.0609,0.0507 0.0619,0.0532 0.0625,0.0553 0.0635,0.0573 0.064,0.0589 0.064,0.0609 0.064,0.0615 0.1265,0.12598 0.0619,0.0636 0.0615,0.0635 0.0599,0.063 0.0583,0.063 0.39338,0.41745 c 0.24586,0.25816 0.62696,0.22128 0.95887,0.29504 l 0.13523,0.0128 c 0.35648,0.19721 0.24584,0.59059 0.12291,0.88512 l -0.0738,0.18491 c -0.35651,0.84772 -1.38913,0.90918 -2.12673,0.51579 l -0.31962,-0.17208 -0.11059,0 -0.23358,0.14751 -0.45484,0.36932 c -0.95886,-0.41799 -1.73334,-0.91023 -2.34799,-1.57407 l 1.42601,-1.79481 0.47943,-0.68843 0.0983,-0.23356 0.11059,-0.25765 c 0,0 0.44256,-0.55371 0.70071,-0.44307 0.25816,0.11111 0.41797,0.59008 0.3565,0.83594 l -0.0738,0.29504 -0.0246,0.29504 0.0128,0 m -1.19245,13.25212 -0.0855,0.0128 -0.0825,0.01 -0.0794,0.009 -0.0759,0.007 -0.0738,0.005 -0.0702,0.002 -0.0676,10e-4 -0.0651,0 -0.0619,-0.002 -0.0594,-0.004 -0.0568,-0.005 -0.0543,-0.007 -0.0522,-0.009 -0.0491,-0.01 -0.0471,-0.0115 -0.0445,-0.0128 -0.0424,-0.0144 -0.0404,-0.0159 -0.038,-0.0174 -0.0364,-0.0185 -0.0338,-0.02 -0.0322,-0.0215 -0.0302,-0.0225 -0.0282,-0.0242 -0.0267,-0.0251 -0.0246,-0.0267 -0.0231,-0.0278 -0.0215,-0.0287 -0.02,-0.0302 -0.0185,-0.0314 -0.0322,-0.0655 -0.0272,-0.0696 -0.0221,-0.0738 -0.018,-0.0774 -0.0138,-0.0815 -0.01,-0.0846 -0.008,-0.0876 -0.005,-0.0906 -0.002,-0.0938 -6e-4,-0.0959 9.8e-4,-0.0983 9.7e-4,-0.10045 0.002,-0.10197 0.002,-0.21001 5.9e-4,-0.10644 -0.11212,-2.37002 -0.46716,2.18818 c -0.0983,0.40569 -0.20897,0.78678 0.38111,1.09411 0.41795,0.36931 -0.0492,0.87333 -0.50403,0.81187 -1.36456,0.0486 -1.16787,-0.86054 -1.04493,-1.50029 l 0.0738,-0.93429 0.22128,-1.90545 -0.18439,-0.47943 c -1.48746,-0.38107 -2.4955,-0.66382 -3.63879,-1.27848 l -0.81135,0.11059 c -0.38108,0.0615 -0.28273,0.49174 -0.31962,0.77449 l -0.12291,0.77498 -0.67612,1.75793 -0.0491,0.14703 c -0.0491,0.12291 -0.0368,0.60236 0.13521,0.84822 l 0.3688,0.7381 c 0.27046,0.40517 0.34421,1.43781 -0.41796,1.10589 l 0.0128,0 -0.56549,-0.23358 c -0.40568,-0.17161 -0.73759,-1.2903 -0.88512,-2.10166 l 0.0246,-1.15607 c -0.35651,-0.0979 -0.50402,1.95462 -0.35651,2.3854 l 0.35651,1.069 c 0.0983,0.34421 -0.30734,0.46766 -0.59008,0.46766 -0.66384,0 -0.95887,-0.67665 -1.0941,-1.24213 l -0.0984,-0.43026 c -0.17209,-0.65155 -0.0861,-1.64729 0.24585,-2.22509 l 0.1721,-0.3565 c 0.28273,-0.71301 -0.0861,-1.21703 -0.1721,-1.58583 -0.28273,-1.15556 -0.51631,-2.27423 0.28275,-3.38064 l 0.0738,-0.0855 c -0.037,-0.0866 -0.27047,-0.27045 -0.40568,-0.70121 -0.30732,-0.98347 -0.57778,-2.59389 -0.1967,-2.59389 l 0.25816,-0.0128 c 0.63924,0 0.44255,2.65536 1.21703,2.48324 l 5.53195,0.0615 0.98346,-0.26993 c 0.34421,-0.0989 0.65154,-0.32013 0.97117,-0.51682 l 0.63924,-0.39339 c 0.71301,0.7253 1.35226,1.18016 2.39719,1.56124 0.28273,2.16362 -0.037,2.64356 -0.30733,3.93383 l -0.0984,0.52862 c -0.20898,0.92251 -0.27047,1.88087 -0.22128,2.83973 l 0.0246,0.44257 c -0.0246,0.45485 0.24586,0.49223 0.60238,0.60287 0.23357,0.1224 0.39338,0.57727 -0.0615,0.79855 l 0.0128,0 -0.0128,0 z" />
  </g>
</svg>
