<?xml version="1.0" encoding="UTF-8" standalone="no"?>
<!-- Created with Inkscape (http://www.inkscape.org/) -->

<svg
   xmlns:dc="http://purl.org/dc/elements/1.1/"
   xmlns:cc="http://creativecommons.org/ns#"
   xmlns:rdf="http://www.w3.org/1999/02/22-rdf-syntax-ns#"
   xmlns:svg="http://www.w3.org/2000/svg"
   xmlns="http://www.w3.org/2000/svg"
   xmlns:sodipodi="http://sodipodi.sourceforge.net/DTD/sodipodi-0.dtd"
   xmlns:inkscape="http://www.inkscape.org/namespaces/inkscape"
   width="32"
   height="32"
   id="svg5453"
   version="1.1"
   inkscape:version="0.91 r13725"
   sodipodi:docname="preferences-system-network-sharing-white.svg"
   inkscape:export-filename="/home/uri/Iconos de KDE/Novo/apps/preferences/preferences-system-network-sharing.png"
   inkscape:export-xdpi="90"
   inkscape:export-ydpi="90">
  <defs
     id="defs5455" />
  <sodipodi:namedview
     id="base"
     pagecolor="#ffffff"
     bordercolor="#666666"
     borderopacity="1.0"
     inkscape:pageopacity="0"
     inkscape:pageshadow="2"
     inkscape:zoom="15.999999"
     inkscape:cx="-9.0924914"
     inkscape:cy="17.780469"
     inkscape:document-units="px"
     inkscape:current-layer="g4171"
     showgrid="true"
     fit-margin-top="0"
     fit-margin-left="0"
     fit-margin-right="0"
     fit-margin-bottom="0"
     inkscape:window-width="1920"
     inkscape:window-height="1051"
     inkscape:window-x="1366"
     inkscape:window-y="0"
     inkscape:window-maximized="1"
     inkscape:showpageshadow="false"
     borderlayer="true"
     showguides="true">
    <inkscape:grid
       type="xygrid"
       id="grid4063" />
    <sodipodi:guide
       position="1.1650391e-05,2.6367188e-05"
       orientation="0,32"
       id="guide4159" />
    <sodipodi:guide
       position="32,24"
       orientation="-32,0"
       id="guide4161" />
    <sodipodi:guide
       position="32.000012,32.000026"
       orientation="0,-32"
       id="guide4163" />
    <sodipodi:guide
       position="2.0000117,2.0000264"
       orientation="0,1"
       id="guide4169" />
    <sodipodi:guide
       position="30.000012,30.000026"
       orientation="0,-28"
       id="guide4173" />
    <sodipodi:guide
       position="2.0000117,30.000026"
       orientation="28,0"
       id="guide4181" />
    <sodipodi:guide
       position="2.0000117,2.0000264"
       orientation="0,14"
       id="guide4183" />
    <sodipodi:guide
       position="16.000012,30.000026"
       orientation="0,-14"
       id="guide4187" />
    <sodipodi:guide
       position="9.0000117,23.000026"
       orientation="14,0"
       id="guide4193" />
    <sodipodi:guide
       position="9.0000117,9.0000264"
       orientation="0,14.000031"
       id="guide4195" />
    <sodipodi:guide
       position="23.000042,9.0000264"
       orientation="-14,0"
       id="guide4197" />
    <sodipodi:guide
       position="23.000042,23.000026"
       orientation="0,-14.000031"
       id="guide4199" />
    <sodipodi:guide
       position="9.0000117,18.000026"
       orientation="4,0"
       id="guide4534" />
    <sodipodi:guide
       position="9.0000117,14.000026"
       orientation="0,4"
       id="guide4536" />
    <sodipodi:guide
       position="13.000012,14.000026"
       orientation="-4,0"
       id="guide4538" />
    <sodipodi:guide
       position="18.000012,23.000026"
       orientation="4,0"
       id="guide4546" />
    <sodipodi:guide
       position="18.000012,19.000026"
       orientation="0,4.0000305"
       id="guide4548" />
    <sodipodi:guide
       position="22.000042,19.000026"
       orientation="-4,0"
       id="guide4550" />
    <sodipodi:guide
       position="22.000042,23.000026"
       orientation="0,-4.0000305"
       id="guide4552" />
  </sodipodi:namedview>
  <metadata
     id="metadata5458">
    <rdf:RDF>
      <cc:Work
         rdf:about="">
        <dc:format>image/svg+xml</dc:format>
        <dc:type
           rdf:resource="http://purl.org/dc/dcmitype/StillImage" />
        <dc:title></dc:title>
      </cc:Work>
    </rdf:RDF>
  </metadata>
  <g
     inkscape:label="Capa 1"
     inkscape:groupmode="layer"
     id="layer1"
     transform="translate(-384.57143,-515.798)">
    <g
       id="g4171"
       transform="matrix(1.7682006,0,0,1.8437501,-306.40431,-448.73584)">
      <path
         transform="translate(384.57143,515.798)"
         id="rect4176"
         d="m 20,9 c -1.108,0 -2,0.892 -2,2 0,1.108 0.892,2 2,2 1.108,0 2,-0.892 2,-2 0,-1.108 -0.892,-2 -2,-2 z m -9,5 c -1.108,0 -2,0.892 -2,2 0,1.108 0.892,2 2,2 1.108,0 2,-0.892 2,-2 0,-1.108 -0.892,-2 -2,-2 z m 9,5 c -1.108,0 -2,0.892 -2,2 0,1.108 0.892,2 2,2 1.108,0 2,-0.892 2,-2 0,-1.108 -0.892,-2 -2,-2 z"
         style="opacity:1;fill:#f9f9f9;fill-opacity:1;stroke:none"
         inkscape:connector-curvature="0" />
      <path
         transform="translate(384.57143,515.798)"
         id="rect4186"
         d="M 16.5,12 C 16.223,12 16,12.223 16,12.5 16,12.777 16.223,13 16.5,13 16.777,13 17,12.777 17,12.5 17,12.223 16.777,12 16.5,12 Z m -2,1 C 14.223,13 14,13.223 14,13.5 14,13.777 14.223,14 14.5,14 14.777,14 15,13.777 15,13.5 15,13.223 14.777,13 14.5,13 Z m 0,5 C 14.223,18 14,18.223 14,18.5 14,18.777 14.223,19 14.5,19 14.777,19 15,18.777 15,18.5 15,18.223 14.777,18 14.5,18 Z m 2,1 C 16.223,19 16,19.223 16,19.5 16,19.777 16.223,20 16.5,20 16.777,20 17,19.777 17,19.5 17,19.223 16.777,19 16.5,19 Z"
         style="opacity:1;fill:#f9f9f9;fill-opacity:1;stroke:none"
         inkscape:connector-curvature="0" />
    </g>
  </g>
</svg>
