<?xml version="1.0" encoding="UTF-8" standalone="no"?>
<!-- Svg Vector Icons : http://www.onlinewebfonts.com/icon -->

<svg
   xmlns:dc="http://purl.org/dc/elements/1.1/"
   xmlns:cc="http://creativecommons.org/ns#"
   xmlns:rdf="http://www.w3.org/1999/02/22-rdf-syntax-ns#"
   xmlns:svg="http://www.w3.org/2000/svg"
   xmlns="http://www.w3.org/2000/svg"
   xmlns:sodipodi="http://sodipodi.sourceforge.net/DTD/sodipodi-0.dtd"
   xmlns:inkscape="http://www.inkscape.org/namespaces/inkscape"
   version="1.1"
   x="0px"
   y="0px"
   viewBox="0 0 1000 1000"
   enable-background="new 0 0 1000 1000"
   xml:space="preserve"
   id="svg8"
   sodipodi:docname="map-white.svg"
   inkscape:version="0.92.3 (2405546, 2018-03-11)"><defs
   id="defs12" /><sodipodi:namedview
   pagecolor="#ffffff"
   bordercolor="#666666"
   borderopacity="0.41960784"
   objecttolerance="10"
   gridtolerance="10"
   guidetolerance="10"
   inkscape:pageopacity="0"
   inkscape:pageshadow="2"
   inkscape:window-width="1920"
   inkscape:window-height="1051"
   id="namedview10"
   showgrid="false"
   inkscape:pagecheckerboard="true"
   inkscape:showpageshadow="true"
   borderlayer="false"
   showborder="true"
   inkscape:zoom="0.472"
   inkscape:cx="627.35558"
   inkscape:cy="534.33304"
   inkscape:window-x="1920"
   inkscape:window-y="0"
   inkscape:window-maximized="1"
   inkscape:current-layer="svg8" />
<metadata
   id="metadata2"> Svg Vector Icons : http://www.onlinewebfonts.com/icon <rdf:RDF><cc:Work
     rdf:about=""><dc:format>image/svg+xml</dc:format><dc:type
       rdf:resource="http://purl.org/dc/dcmitype/StillImage" /><dc:title></dc:title></cc:Work></rdf:RDF></metadata>
<g
   id="g6"
   transform="translate(-2.1186392,2.1186401)"
   style="fill:#f9f9f9"><path
     d="M 664.8,826.4 338.4,989.5 10,826.4 V 10.5 l 328.4,122.4 119,-44.6 c -10.9,26.4 -17,55.2 -17,85.4 0,2.6 0.4,5.3 0.5,7.9 l -63.7,23.9 v 674 l 291.5,-144.4 0.3,-52.5 45.6,-63.4 v 141.4 l 198.6,97 V 224.1 l -27,-11.8 c 1.9,-13.3 3.2,-26.4 3.2,-38.6 0,-18.8 -2.6,-37 -7,-54.5 L 990,173.6 V 989.5 Z M 331.3,217 86.6,128.2 V 775.9 L 331.4,894.2 V 217 Z m 170.3,-43.4 c 0,-90.1 73.1,-163.2 163.2,-163.2 90.1,0 163.2,73 163.2,163.2 0,138.5 -163.2,396.3 -163.2,396.3 0,0 -163.2,-255.6 -163.2,-396.3 z m 224.4,0 c 0,-33.8 -27.4,-61.2 -61.2,-61.2 -33.8,0 -61.2,27.4 -61.2,61.2 0,33.8 27.4,61.2 61.2,61.2 33.8,0 61.2,-27.3 61.2,-61.2 z"
     id="path4"
     inkscape:connector-curvature="0"
     style="fill:#f9f9f9" /></g>
</svg>